<svg xmlns="http://www.w3.org/2000/svg" viewBox="0 0 53.11 127.28"><defs><style>.cls-1{isolation:isolate;}.cls-2{fill:#266c24;}.cls-3{fill:#174216;}.cls-4{opacity:0.7;}.cls-5{fill:#9feba1;}.cls-13,.cls-21,.cls-6,.cls-8{mix-blend-mode:multiply;}.cls-7,.cls-8{fill:#ccc;}.cls-9{fill:#f2f2f2;}.cls-10{fill:#fabf25;}.cls-11{fill:#103010;}.cls-12,.cls-16{fill:#fff;}.cls-13{fill:#e6e6e6;}.cls-14{fill:#b0bfc6;}.cls-15{fill:#6c90a1;}.cls-16{opacity:0.6;}.cls-17{fill:#435a63;}.cls-18{fill:#79eee9;}.cls-19{fill:#70dee9;}.cls-20{opacity:0.4;}.cls-21{fill:#ebebeb;}.cls-22{fill:#005be7;}.cls-23{fill:none;stroke:#fff;stroke-miterlimit:10;stroke-width:0.5px;opacity:0.29;}</style></defs><g class="cls-1"><g id="Layer_2" data-name="Layer 2"><g id="Layer_1-2" data-name="Layer 1"><path class="cls-2" d="M44.47,42.28c0-2.57.25-5.94,0-9.74S41.05,6.43,41,5.8V5.69a1.34,1.34,0,0,1,.37-.55,1.21,1.21,0,0,0,.22-.3.42.42,0,0,0,0-.24c0-.59-.83-.39-.83-1.08A.8.8,0,0,1,41,3c.26-.31.71-.46.79-.81a.34.34,0,0,0,0-.1.51.51,0,0,0,0-.17H28.44a.51.51,0,0,0,0,.17.34.34,0,0,0,0,.1c.08.35.53.5.79.81a.8.8,0,0,1,.19.52c0,.69-.91.44-.91,1.08a.46.46,0,0,0,.08.24,1.09,1.09,0,0,0,.24.3,1.31,1.31,0,0,1,.39.55,0,0,0,0,0,0,0V5.8c-.05.63-3.23,23-3.48,26.74s0,7.17,0,9.74c0,2-8.63,10.11-8.63,15.39,0,11,.27,54.27.35,66.42a3.21,3.21,0,0,0,3.21,3.19H49.55a3.22,3.22,0,0,0,3.21-3.19c.08-12.15.35-55.37.35-66.42C53.11,52.39,44.47,44.33,44.47,42.28Z"/><path class="cls-3" d="M42.68,42.28c0-.82,0-1.7,0-2.64.05-2.08.12-4.44,0-7-.09-1.4-.61-5.55-1.22-10.13H28.75c-.61,4.58-1.13,8.73-1.22,10.13-.17,2.54-.11,4.9-.05,7,0,.94.05,1.82.05,2.64,0,1.33-1,2.76-3.21,5.61S18.89,55,18.89,57.67c0,11,.27,53.6.35,66.4a1.42,1.42,0,0,0,1.42,1.41c11.39-.38,17.47-.73,28.89,0A1.43,1.43,0,0,0,51,124.07c.08-12.8.34-55.41.34-66.4,0-2.65-3.26-6.94-5.42-9.78S42.68,43.61,42.68,42.28Z"/><g class="cls-4"><path class="cls-5" d="M32.93,5.92a.65.65,0,0,0,0-.2H31.22a.26.26,0,0,1,0,.15c0,.63-2.65,22.88-2.78,26.67a27.48,27.48,0,0,0,.6,7.91,2,2,0,0,0,1.83,1.4,1.74,1.74,0,0,0,1.69-1.39c-.09-2.26-.44-4.86-.34-7.82C32.33,29.41,32.93,5.92,32.93,5.92Z"/><path class="cls-5" d="M31.2,3a1,1,0,0,1,.13.58.7.7,0,0,1-.27.61h1.83A.65.65,0,0,0,33,3.72,1.1,1.1,0,0,0,32.81,3Z"/><path class="cls-5" d="M30.05,124.09c-.07-12.15-.3-55.37-.3-66.42,0-5.87,4.32-8.82,1.54-10.08-3.55-1.6-9.7,3.75-9.7,10.08,0,11,.24,54.27.31,66.42a3,3,0,0,0,2.79,3.19h8.16A3,3,0,0,1,30.05,124.09Z"/></g><g class="cls-6"><path class="cls-7" d="M43.26,124.09c.05-12.15.23-55.37.23-66.42,0-5.87-3.27-8.82-1.16-10.08,2.37-1.41,7.33,3.36,7.33,10.08,0,11-.18,54.27-.23,66.42,0,1.76-1,3.19-2.11,3.19H41.14C42.31,127.28,43.25,125.85,43.26,124.09Z"/></g><path class="cls-8" d="M41.79,2.19c-.08.35-.53.5-.79.81H29.21c-.26-.31-.71-.46-.79-.81Z"/><path class="cls-8" d="M41.59,4.84a1.21,1.21,0,0,1-.22.3,1.34,1.34,0,0,0-.37.55v0H29.21a0,0,0,0,1,0,0,1.31,1.31,0,0,0-.39-.55,1.09,1.09,0,0,1-.24-.3Z"/><path class="cls-8" d="M48.56,127.25l-.25,0H21.89l-.3,0s8.15-2.19,13.49-2.19S48.56,127.25,48.56,127.25Z"/><rect class="cls-9" x="18.85" y="67.88" width="32.5" height="43.05" rx="13.29"/><rect class="cls-10" x="20.81" y="69.83" width="28.58" height="39.13" rx="11.34"/><rect class="cls-9" x="24.58" y="75" width="21.04" height="28.81" rx="8.34"/><rect class="cls-11" x="17.24" y="83.56" width="35.73" height="11.67"/><rect class="cls-12" x="17.24" y="84.18" width="35.73" height="10.43"/><rect class="cls-11" x="17.24" y="84.83" width="35.73" height="9.13"/><path class="cls-13" d="M44.47,42.28c0-2.57.25-5.94,0-9.74S41.05,6.43,41,5.8V5.69a1.34,1.34,0,0,1,.37-.55,1.21,1.21,0,0,0,.22-.3.42.42,0,0,0,0-.24c0-.59-.83-.39-.83-1.08A.8.8,0,0,1,41,3c.26-.31.71-.46.79-.81a.34.34,0,0,0,0-.1.51.51,0,0,0,0-.17H35.08V127.28H49.55a3.22,3.22,0,0,0,3.21-3.19c.08-12.15.35-55.37.35-66.42C53.11,52.39,44.47,44.33,44.47,42.28Z"/><path class="cls-14" d="M42.05,1.66V3H28.15V1.66A1.39,1.39,0,0,1,29.41.27h.08C31.73.14,33.41,0,35.1,0h0c1.69,0,3.39.11,5.59.26h.06A1.39,1.39,0,0,1,42.05,1.66Z"/><rect class="cls-15" x="30.31" y="1.63" width="1.15" height="1.37"/><rect class="cls-15" x="32" y="1.63" width="1.15" height="1.37"/><rect class="cls-15" x="33.68" y="1.63" width="1.15" height="1.37"/><rect class="cls-15" x="35.37" y="1.63" width="1.15" height="1.37"/><rect class="cls-15" x="37.06" y="1.63" width="1.15" height="1.37"/><rect class="cls-15" x="38.75" y="1.63" width="1.15" height="1.37"/><rect class="cls-15" x="28.73" y="1.63" width="0.81" height="1.37"/><rect class="cls-15" x="40.66" y="1.63" width="0.81" height="1.37"/><path class="cls-16" d="M40.78.27H29.49C31.73.14,33.41,0,35.1,0s3.41.11,5.62.26Z"/><rect class="cls-17" x="30.31" y="1.63" width="0.27" height="1.36"/><rect class="cls-17" x="30.58" y="1.63" width="0.88" height="0.23"/><rect class="cls-17" x="28.73" y="1.63" width="0.19" height="1.36"/><rect class="cls-17" x="28.92" y="1.63" width="0.62" height="0.23"/><rect class="cls-17" x="32" y="1.63" width="0.27" height="1.36"/><rect class="cls-17" x="32.26" y="1.63" width="0.88" height="0.23"/><rect class="cls-17" x="33.68" y="1.63" width="0.27" height="1.36"/><rect class="cls-17" x="33.95" y="1.63" width="0.88" height="0.23"/><rect class="cls-17" x="35.37" y="1.63" width="0.27" height="1.36"/><rect class="cls-17" x="35.64" y="1.63" width="0.88" height="0.23"/><rect class="cls-17" x="37.06" y="1.63" width="0.27" height="1.36"/><rect class="cls-17" x="37.33" y="1.63" width="0.88" height="0.23"/><rect class="cls-17" x="38.75" y="1.63" width="0.27" height="1.36"/><rect class="cls-17" x="39.01" y="1.63" width="0.88" height="0.23"/><rect class="cls-17" x="40.66" y="1.63" width="0.19" height="1.36"/><rect class="cls-17" x="40.85" y="1.63" width="0.62" height="0.23"/><path class="cls-13" d="M42.05,1.66V3H35.13V0c1.69,0,3.39.11,5.59.26h.06A1.39,1.39,0,0,1,42.05,1.66Z"/><path class="cls-18" d="M27.37,42.28c0-2.57.25-5.94,0-9.74S24,6.43,23.9,5.8V5.69a1.34,1.34,0,0,1,.37-.55,1.21,1.21,0,0,0,.22-.3.42.42,0,0,0,.05-.24c0-.59-.83-.39-.83-1.08A.8.8,0,0,1,23.9,3c.26-.31.71-.46.79-.81a.34.34,0,0,0,0-.1.51.51,0,0,0,0-.17H11.34a.51.51,0,0,0,0,.17.34.34,0,0,0,0,.1c.08.35.53.5.79.81a.8.8,0,0,1,.19.52c0,.69-.9.44-.9,1.08a.44.44,0,0,0,.07.24,1.32,1.32,0,0,0,.24.3,1.31,1.31,0,0,1,.39.55V5.8c0,.63-3.23,23-3.48,26.74s0,7.17,0,9.74c0,2-8.63,10.11-8.63,15.39,0,11,.27,54.27.35,66.42a3.21,3.21,0,0,0,3.21,3.19H32.45a3.21,3.21,0,0,0,3.21-3.19c.08-12.15.35-55.37.35-66.42C36,52.39,27.37,44.33,27.37,42.28Z"/><path class="cls-19" d="M25.58,42.28c0-.82,0-1.7.05-2.64.05-2.08.12-4.44-.05-7-.09-1.4-.61-5.55-1.22-10.13H11.65c-.61,4.58-1.13,8.73-1.22,10.13-.17,2.54-.1,4.9,0,7,0,.94,0,1.82,0,2.64,0,1.33-1,2.76-3.21,5.61S1.8,55,1.8,57.67c0,11,.26,53.6.34,66.4a1.42,1.42,0,0,0,1.42,1.41c11.39-.38,17.47-.73,28.89,0a1.43,1.43,0,0,0,1.42-1.41c.08-12.8.34-55.41.34-66.4,0-2.65-3.26-6.94-5.42-9.78S25.58,43.61,25.58,42.28Z"/><g class="cls-20"><path class="cls-12" d="M15.83,5.92a.45.45,0,0,0,0-.2H14.13a.38.38,0,0,1,0,.15c0,.63-2.65,22.88-2.78,26.67a27.48,27.48,0,0,0,.6,7.91,2,2,0,0,0,1.83,1.4,1.74,1.74,0,0,0,1.69-1.39c-.09-2.26-.44-4.86-.34-7.82C15.24,29.41,15.83,5.92,15.83,5.92Z"/><path class="cls-12" d="M14.1,3a1,1,0,0,1,.13.58.7.7,0,0,1-.27.61h1.83a.65.65,0,0,0,.14-.47A1.1,1.1,0,0,0,15.71,3Z"/><path class="cls-12" d="M13,124.09c-.07-12.15-.3-55.37-.3-66.42,0-5.87,4.32-8.82,1.54-10.08-3.55-1.6-9.7,3.75-9.7,10.08,0,11,.24,54.27.31,66.42a3,3,0,0,0,2.8,3.19h8.15A3,3,0,0,1,13,124.09Z"/></g><g class="cls-6"><path class="cls-7" d="M26.16,124.09c.05-12.15.23-55.37.23-66.42,0-5.87-3.27-8.82-1.16-10.08,2.37-1.41,7.33,3.36,7.33,10.08,0,11-.17,54.27-.23,66.42,0,1.76-.95,3.19-2.11,3.19H24C25.21,127.28,26.15,125.85,26.16,124.09Z"/></g><path class="cls-8" d="M24.69,2.19c-.08.35-.53.5-.79.81H12.11c-.26-.31-.71-.46-.79-.81Z"/><path class="cls-8" d="M24.49,4.84a1.21,1.21,0,0,1-.22.3,1.34,1.34,0,0,0-.37.55v0H12.11v0a1.31,1.31,0,0,0-.39-.55,1.32,1.32,0,0,1-.24-.3Z"/><path class="cls-8" d="M31.46,127.25l-.25,0H4.79l-.3,0s8.15-2.19,13.49-2.19S31.46,127.25,31.46,127.25Z"/><path class="cls-21" d="M27.37,42.28c0-2.57.25-5.94,0-9.74S24,6.43,23.9,5.8V5.69a1.34,1.34,0,0,1,.37-.55,1.21,1.21,0,0,0,.22-.3.42.42,0,0,0,.05-.24c0-.59-.83-.39-.83-1.08A.8.8,0,0,1,23.9,3c.26-.31.71-.46.79-.81a.34.34,0,0,0,0-.1.51.51,0,0,0,0-.17H18V127.28H32.45a3.21,3.21,0,0,0,3.21-3.19c.08-12.15.35-55.37.35-66.42C36,52.39,27.37,44.33,27.37,42.28Z"/><path class="cls-22" d="M25,1.66V3H11.05V1.66A1.39,1.39,0,0,1,12.31.27h.08C14.63.14,16.31,0,18,0h0c1.69,0,3.39.11,5.59.26h.07A1.39,1.39,0,0,1,25,1.66Z"/><rect class="cls-15" x="13.21" y="1.63" width="1.15" height="1.37"/><rect class="cls-15" x="14.9" y="1.63" width="1.15" height="1.37"/><rect class="cls-15" x="16.58" y="1.63" width="1.15" height="1.37"/><rect class="cls-15" x="18.27" y="1.63" width="1.15" height="1.37"/><rect class="cls-15" x="19.96" y="1.63" width="1.15" height="1.37"/><rect class="cls-15" x="21.65" y="1.63" width="1.15" height="1.37"/><rect class="cls-15" x="11.63" y="1.63" width="0.81" height="1.37"/><rect class="cls-15" x="23.56" y="1.63" width="0.81" height="1.37"/><path class="cls-22" d="M23.69.27H12.39C14.63.14,16.31,0,18,0s3.41.11,5.62.26Z"/><rect class="cls-17" x="13.21" y="1.63" width="0.27" height="1.36"/><rect class="cls-17" x="13.48" y="1.63" width="0.88" height="0.23"/><rect class="cls-17" x="11.63" y="1.63" width="0.19" height="1.36"/><rect class="cls-17" x="11.82" y="1.63" width="0.62" height="0.23"/><rect class="cls-17" x="14.9" y="1.63" width="0.27" height="1.36"/><rect class="cls-17" x="15.16" y="1.63" width="0.88" height="0.23"/><rect class="cls-17" x="16.58" y="1.63" width="0.27" height="1.36"/><rect class="cls-17" x="16.85" y="1.63" width="0.88" height="0.23"/><rect class="cls-17" x="18.27" y="1.63" width="0.27" height="1.36"/><rect class="cls-17" x="18.54" y="1.63" width="0.88" height="0.23"/><rect class="cls-17" x="19.96" y="1.63" width="0.27" height="1.36"/><rect class="cls-17" x="20.23" y="1.63" width="0.88" height="0.23"/><rect class="cls-17" x="21.65" y="1.63" width="0.27" height="1.36"/><rect class="cls-17" x="21.91" y="1.63" width="0.88" height="0.23"/><rect class="cls-17" x="23.56" y="1.63" width="0.19" height="1.36"/><rect class="cls-17" x="23.75" y="1.63" width="0.62" height="0.23"/><path class="cls-13" d="M25,1.66V3H18V0c1.69,0,3.39.11,5.59.26h.07A1.39,1.39,0,0,1,25,1.66Z"/><rect class="cls-22" x="2.47" y="68.55" width="31.07" height="31.07" rx="15.54"/><rect class="cls-23" x="3.86" y="69.94" width="28.29" height="28.29" rx="14.14"/><path class="cls-12" d="M12.62,78V90.17H10.69v-9.8a7.44,7.44,0,0,1-2.49,1.1V79.83a15,15,0,0,0,2-.8,13.69,13.69,0,0,0,1.64-1Z"/><path class="cls-12" d="M17.53,89.24a1.11,1.11,0,0,1-.34.81,1.18,1.18,0,0,1-.87.33,1.14,1.14,0,0,1-.84-.34,1.11,1.11,0,0,1-.35-.8,1.07,1.07,0,0,1,.36-.83,1.19,1.19,0,0,1,.85-.33,1.18,1.18,0,0,1,.84.34A1.1,1.1,0,0,1,17.53,89.24Z"/><path class="cls-12" d="M19.61,89.9V88.05a4.17,4.17,0,0,0,2.37.79,3,3,0,0,0,1.95-.62,2,2,0,0,0,.73-1.65A1.86,1.86,0,0,0,23.91,85a3.49,3.49,0,0,0-2.15-.56c-.32,0-1,0-2,.1l.43-6.26h5.85v1.65H21.84l-.2,3,1,0a4.11,4.11,0,0,1,2.93,1,3.46,3.46,0,0,1,1,2.65,3.61,3.61,0,0,1-1.18,2.83,4.68,4.68,0,0,1-3.25,1.07A5.31,5.31,0,0,1,19.61,89.9Z"/></g></g></g></svg>