<?xml version="1.0" encoding="utf-8"?>
<!-- Generator: Adobe Illustrator 24.1.1, SVG Export Plug-In . SVG Version: 6.00 Build 0)  -->
<svg version="1.1" id="Layer_1" xmlns="http://www.w3.org/2000/svg" xmlns:xlink="http://www.w3.org/1999/xlink" x="0px" y="0px"
	 viewBox="0 0 40 102" style="enable-background:new 0 0 40 102;" xml:space="preserve">
<style type="text/css">
	.st0{fill:#266C24;}
	.st1{fill:#174216;}
	.st2{opacity:0.7;}
	.st3{fill:#9FEBA1;}
	.st4{fill:#CCCCCC;}
	.st5{fill:#F2F2F2;}
	.st6{fill:#FABF25;}
	.st7{fill:#103010;}
	.st8{fill:#FFFFFF;}
	.st9{fill:#E6E6E6;}
	.st10{fill:#B0BFC6;}
	.st11{fill:#6C90A1;}
	.st12{opacity:0.6;fill:#FFFFFF;enable-background:new    ;}
	.st13{fill:#435A63;}
	.st14{fill:#79EEE9;}
	.st15{fill:#70DEE9;}
	.st16{opacity:0.4;}
	.st17{fill:#EBEBEB;}
	.st18{fill:#005BE7;}
	.st19{opacity:0.29;fill:none;stroke:#FFFFFF;stroke-width:0.3766;stroke-miterlimit:10;enable-background:new    ;}
	.st20{fill:#E5C720;}
	.st21{fill:#401A00;}
	.st22{font-family:'SegoeUI-Bold';}
	.st23{font-size:20px;}
</style>
<g>
	<g id="Layer_2_1_">
		<g id="Layer_1-2">
			<path class="st0" d="M33.5,38.2c0-1.9,0.2-4.5,0-7.3s-2.6-19.7-2.6-20.1v-0.1c0.1-0.2,0.2-0.3,0.3-0.4c0.1-0.1,0.1-0.1,0.2-0.2
				c0-0.1,0-0.1,0-0.2c0-0.4-0.6-0.3-0.6-0.8c0-0.1,0.1-0.3,0.2-0.4c0.2-0.2,0.5-0.3,0.6-0.6c0,0,0-0.1,0-0.1c0,0,0-0.1,0-0.1H21.4
				c0,0,0,0.1,0,0.1c0,0,0,0.1,0,0.1c0.1,0.3,0.4,0.4,0.6,0.6c0.1,0.1,0.1,0.2,0.1,0.4c0,0.5-0.7,0.3-0.7,0.8c0,0.1,0,0.1,0.1,0.2
				c0,0.1,0.1,0.2,0.2,0.2c0.1,0.1,0.2,0.3,0.3,0.4l0,0v0.1c0,0.5-2.4,17.3-2.6,20.1s0,5.4,0,7.3c0,1.5-6.5,7.6-6.5,11.6
				c0,8.3,0.2,40.9,0.3,50c0,1.3,1.1,2.4,2.4,2.4h21.8c1.3,0,2.4-1.1,2.4-2.4c0.1-9.2,0.3-41.7,0.3-50C40,45.9,33.5,39.8,33.5,38.2z
				"/>
			<path class="st1" d="M32.1,38.2c0-0.6,0-1.3,0-2c0-1.6,0.1-3.3,0-5.3c-0.1-1.1-0.5-4.2-0.9-7.6h-9.6c-0.5,3.5-0.9,6.6-0.9,7.6
				c-0.1,1.9-0.1,3.7,0,5.3c0,0.7,0,1.4,0,2c0,1-0.8,2.1-2.4,4.2c-1.7,2.1-4.1,5.4-4.1,7.4c0,8.3,0.2,40.4,0.3,50
				c0,0.6,0.5,1.1,1.1,1.1c8.6-0.3,13.2-0.5,21.8,0c0.6,0,1.1-0.5,1.1-1.1c0,0,0,0,0,0c0.1-9.6,0.3-41.7,0.3-50c0-2-2.5-5.2-4.1-7.4
				C33,40.3,32.1,39.2,32.1,38.2z"/>
			<g class="st2">
				<path class="st3" d="M24.8,10.9c0,0,0-0.1,0-0.2h-1.3c0,0,0,0.1,0,0.1c0,0.5-2,17.2-2.1,20.1c-0.1,2,0,4,0.5,6
					c0.2,0.6,0.7,1,1.4,1.1c0.6,0,1.1-0.4,1.3-1c-0.1-1.7-0.3-3.7-0.3-5.9C24.4,28.6,24.8,10.9,24.8,10.9z"/>
				<path class="st3" d="M23.5,8.7c0.1,0.1,0.1,0.3,0.1,0.4c0,0.2-0.1,0.4-0.2,0.5h1.4c0.1-0.1,0.1-0.2,0.1-0.4c0-0.2,0-0.4-0.1-0.5
					H23.5z"/>
				<path class="st3" d="M22.6,99.9c-0.1-9.2-0.2-41.7-0.2-50c0-4.4,3.3-6.6,1.2-7.6c-2.7-1.2-7.3,2.8-7.3,7.6
					c0,8.3,0.2,40.9,0.2,50c-0.1,1.2,0.9,2.3,2.1,2.4h6.1C23.5,102.2,22.6,101.1,22.6,99.9C22.6,99.9,22.6,99.9,22.6,99.9z"/>
			</g>
			<g>
				<path class="st4" d="M32.6,99.9c0-9.2,0.2-41.7,0.2-50c0-4.4-2.5-6.6-0.9-7.6c1.8-1.1,5.5,2.5,5.5,7.6c0,8.3-0.1,40.9-0.2,50
					c0,1.3-0.8,2.4-1.6,2.4H31C31.9,102.3,32.6,101.2,32.6,99.9z"/>
			</g>
			<path class="st4" d="M31.5,8c-0.1,0.3-0.4,0.4-0.6,0.6H22c-0.2-0.2-0.5-0.3-0.6-0.6H31.5z"/>
			<path class="st4" d="M31.3,10c0,0.1-0.1,0.2-0.2,0.2c-0.1,0.1-0.2,0.3-0.3,0.4l0,0H22l0,0c-0.1-0.2-0.2-0.3-0.3-0.4
				c-0.1-0.1-0.1-0.1-0.2-0.2H31.3z"/>
			<path class="st4" d="M36.6,102.3h-0.2H16.5h-0.2c0,0,6.1-1.6,10.2-1.6S36.6,102.3,36.6,102.3z"/>
			<path class="st5" d="M24.2,57.5h4.5c5.5,0,10,4.5,10,10v12.4c0,5.5-4.5,10-10,10h-4.5c-5.5,0-10-4.5-10-10V67.5
				C14.2,62,18.7,57.5,24.2,57.5z"/>
			<path class="st6" d="M24.2,59h4.4c4.7,0,8.5,3.8,8.5,8.5v12.4c0,4.7-3.8,8.5-8.5,8.5h-4.4c-4.7,0-8.5-3.8-8.5-8.5V67.5
				C15.7,62.8,19.5,59,24.2,59z"/>
			<path class="st5" d="M24.8,62.9h3.3c3.5,0,6.3,2.8,6.3,6.3v9.1c0,3.5-2.8,6.3-6.3,6.3h-3.3c-3.5,0-6.3-2.8-6.3-6.3v-9.1
				C18.5,65.7,21.3,62.9,24.8,62.9z"/>
			<rect x="13" y="69.3" class="st7" width="26.9" height="8.8"/>
			<rect x="13" y="69.8" class="st8" width="26.9" height="7.9"/>
			<rect x="13" y="70.3" class="st7" width="26.9" height="6.9"/>
			<path class="st9" d="M33.5,38.2c0-1.9,0.2-4.5,0-7.3s-2.6-19.7-2.6-20.1v-0.1c0.1-0.2,0.2-0.3,0.3-0.4c0.1-0.1,0.1-0.1,0.2-0.2
				c0-0.1,0-0.1,0-0.2c0-0.4-0.6-0.3-0.6-0.8c0-0.1,0.1-0.3,0.2-0.4c0.2-0.2,0.5-0.3,0.6-0.6c0,0,0-0.1,0-0.1c0,0,0-0.1,0-0.1h-5.1
				v94.4h10.9c1.3,0,2.4-1.1,2.4-2.4c0.1-9.2,0.3-41.7,0.3-50C40,45.9,33.5,39.8,33.5,38.2z"/>
			<path class="st10" d="M31.7,7.6v1H21.2v-1c0-0.5,0.4-1,0.9-1h0.1c1.7-0.1,3-0.2,4.2-0.2l0,0c1.3,0,2.6,0.1,4.2,0.2h0
				C31.2,6.6,31.7,7.1,31.7,7.6z"/>
			<rect x="22.8" y="7.6" class="st11" width="0.9" height="1"/>
			<rect x="24.1" y="7.6" class="st11" width="0.9" height="1"/>
			<rect x="25.4" y="7.6" class="st11" width="0.9" height="1"/>
			<rect x="26.6" y="7.6" class="st11" width="0.9" height="1"/>
			<rect x="27.9" y="7.6" class="st11" width="0.9" height="1"/>
			<rect x="29.2" y="7.6" class="st11" width="0.9" height="1"/>
			<rect x="21.6" y="7.6" class="st11" width="0.6" height="1"/>
			<rect x="30.6" y="7.6" class="st11" width="0.6" height="1"/>
			<path class="st12" d="M30.7,6.6h-8.5c1.7-0.1,3-0.2,4.2-0.2C27.7,6.4,29,6.5,30.7,6.6L30.7,6.6z"/>
			<rect x="22.8" y="7.6" class="st13" width="0.2" height="1"/>
			<rect x="23" y="7.6" class="st13" width="0.7" height="0.2"/>
			<rect x="21.6" y="7.6" class="st13" width="0.1" height="1"/>
			<rect x="21.8" y="7.6" class="st13" width="0.5" height="0.2"/>
			<rect x="24.1" y="7.6" class="st13" width="0.2" height="1"/>
			<rect x="24.3" y="7.6" class="st13" width="0.7" height="0.2"/>
			<rect x="25.4" y="7.6" class="st13" width="0.2" height="1"/>
			<rect x="25.6" y="7.6" class="st13" width="0.7" height="0.2"/>
			<rect x="26.6" y="7.6" class="st13" width="0.2" height="1"/>
			<rect x="26.8" y="7.6" class="st13" width="0.7" height="0.2"/>
			<rect x="27.9" y="7.6" class="st13" width="0.2" height="1"/>
			<rect x="28.1" y="7.6" class="st13" width="0.7" height="0.2"/>
			<rect x="29.2" y="7.6" class="st13" width="0.2" height="1"/>
			<rect x="29.4" y="7.6" class="st13" width="0.7" height="0.2"/>
			<rect x="30.6" y="7.6" class="st13" width="0.1" height="1"/>
			<rect x="30.8" y="7.6" class="st13" width="0.5" height="0.2"/>
			<path class="st9" d="M31.7,7.6v1h-5.2V6.4c1.3,0,2.6,0.1,4.2,0.2h0C31.3,6.6,31.7,7.1,31.7,7.6z"/>
			<path class="st14" d="M20.6,38.2c0-1.9,0.2-4.5,0-7.3S18.1,11.2,18,10.8v-0.1c0.1-0.2,0.2-0.3,0.3-0.4c0.1-0.1,0.1-0.1,0.2-0.2
				c0-0.1,0-0.1,0-0.2c0-0.4-0.6-0.3-0.6-0.8c0-0.1,0.1-0.3,0.1-0.4c0.2-0.2,0.5-0.3,0.6-0.6c0,0,0-0.1,0-0.1c0,0,0-0.1,0-0.1H8.5
				c0,0,0,0.1,0,0.1c0,0,0,0.1,0,0.1c0.1,0.3,0.4,0.4,0.6,0.6C9.2,8.8,9.3,8.9,9.3,9c0,0.5-0.7,0.3-0.7,0.8c0,0.1,0,0.1,0.1,0.2
				c0,0.1,0.1,0.2,0.2,0.2c0.1,0.1,0.2,0.3,0.3,0.4v0.1c0,0.5-2.4,17.3-2.6,20.1c-0.2,2.8,0,5.4,0,7.3c0,1.5-6.5,7.6-6.5,11.6
				c0,8.3,0.2,40.9,0.3,50c0,1.3,1.1,2.4,2.4,2.4h21.8c1.3,0,2.4-1.1,2.4-2.4c0.1-9.2,0.3-41.7,0.3-50
				C27.1,45.9,20.6,39.8,20.6,38.2z"/>
			<path class="st15" d="M19.3,38.2c0-0.6,0-1.3,0-2c0-1.6,0.1-3.3,0-5.3c-0.1-1.1-0.5-4.2-0.9-7.6H8.8c-0.5,3.5-0.9,6.6-0.9,7.6
				c-0.1,1.9-0.1,3.7,0,5.3c0,0.7,0,1.4,0,2c0,1-0.8,2.1-2.4,4.2c-1.7,2.1-4.1,5.4-4.1,7.4c0,8.3,0.2,40.4,0.3,50
				c0,0.6,0.5,1.1,1.1,1.1c8.6-0.3,13.2-0.5,21.8,0c0.6,0,1.1-0.5,1.1-1.1c0.1-9.6,0.3-41.7,0.3-50c0-2-2.5-5.2-4.1-7.4
				C20.1,40.3,19.3,39.2,19.3,38.2z"/>
			<g class="st16">
				<path class="st8" d="M11.9,10.9c0,0,0-0.1,0-0.2h-1.3c0,0,0,0.1,0,0.1c0,0.5-2,17.2-2.1,20.1c-0.1,2,0,4,0.5,6
					c0.2,0.6,0.7,1,1.4,1.1c0.6,0,1.1-0.4,1.3-1c-0.1-1.7-0.3-3.7-0.3-5.9C11.5,28.6,11.9,10.9,11.9,10.9z"/>
				<path class="st8" d="M10.6,8.7c0.1,0.1,0.1,0.3,0.1,0.4c0,0.2-0.1,0.4-0.2,0.5h1.4C12,9.5,12,9.3,12,9.2c0-0.2,0-0.4-0.2-0.5
					H10.6z"/>
				<path class="st8" d="M9.8,99.9c-0.1-9.2-0.2-41.7-0.2-50c0-4.4,3.3-6.6,1.2-7.6c-2.7-1.2-7.3,2.8-7.3,7.6c0,8.3,0.2,40.9,0.2,50
					c-0.1,1.2,0.9,2.3,2.1,2.4c0,0,0,0,0,0h6.1C10.7,102.2,9.7,101.1,9.8,99.9C9.8,99.9,9.8,99.9,9.8,99.9z"/>
			</g>
			<g>
				<path class="st4" d="M19.7,99.9c0-9.2,0.2-41.7,0.2-50c0-4.4-2.5-6.6-0.9-7.6c1.8-1.1,5.5,2.5,5.5,7.6c0,8.3-0.1,40.9-0.2,50
					c0,1.3-0.7,2.4-1.6,2.4h-4.7C19,102.3,19.7,101.2,19.7,99.9z"/>
			</g>
			<path class="st4" d="M18.6,8c-0.1,0.3-0.4,0.4-0.6,0.6H9.1C8.9,8.4,8.6,8.3,8.5,8H18.6z"/>
			<path class="st4" d="M18.4,10c0,0.1-0.1,0.2-0.2,0.2c-0.1,0.1-0.2,0.3-0.3,0.4l0,0H9.1l0,0c-0.1-0.2-0.2-0.3-0.3-0.4
				c-0.1-0.1-0.1-0.1-0.2-0.2H18.4z"/>
			<path class="st4" d="M23.7,102.3h-0.2H3.6H3.4c0,0,6.1-1.6,10.2-1.6S23.7,102.3,23.7,102.3z"/>
			<path class="st17" d="M20.6,38.2c0-1.9,0.2-4.5,0-7.3S18.1,11.2,18,10.8v-0.1c0.1-0.2,0.2-0.3,0.3-0.4c0.1-0.1,0.1-0.1,0.2-0.2
				c0-0.1,0-0.1,0-0.2c0-0.4-0.6-0.3-0.6-0.8c0-0.1,0.1-0.3,0.1-0.4c0.2-0.2,0.5-0.3,0.6-0.6c0,0,0-0.1,0-0.1c0,0,0-0.1,0-0.1h-5
				v94.4h10.9c1.3,0,2.4-1.1,2.4-2.4c0.1-9.2,0.3-41.7,0.3-50C27.1,45.9,20.6,39.8,20.6,38.2z"/>
			<path class="st18" d="M18.8,7.6v1H8.3v-1c0-0.5,0.4-1,0.9-1h0.1c1.7-0.1,3-0.2,4.2-0.2l0,0c1.3,0,2.6,0.1,4.2,0.2h0.1
				C18.4,6.6,18.8,7.1,18.8,7.6z"/>
			<rect x="9.9" y="7.6" class="st11" width="0.9" height="1"/>
			<rect x="11.2" y="7.6" class="st11" width="0.9" height="1"/>
			<rect x="12.5" y="7.6" class="st11" width="0.9" height="1"/>
			<rect x="13.8" y="7.6" class="st11" width="0.9" height="1"/>
			<rect x="15" y="7.6" class="st11" width="0.9" height="1"/>
			<rect x="16.3" y="7.6" class="st11" width="0.9" height="1"/>
			<rect x="8.8" y="7.6" class="st11" width="0.6" height="1"/>
			<rect x="17.7" y="7.6" class="st11" width="0.6" height="1"/>
			<path class="st18" d="M17.8,6.6H9.3c1.7-0.1,3-0.2,4.2-0.2S16.1,6.5,17.8,6.6L17.8,6.6z"/>
			<rect x="9.9" y="7.6" class="st13" width="0.2" height="1"/>
			<rect x="10.2" y="7.6" class="st13" width="0.7" height="0.2"/>
			<rect x="8.8" y="7.6" class="st13" width="0.1" height="1"/>
			<rect x="8.9" y="7.6" class="st13" width="0.5" height="0.2"/>
			<rect x="11.2" y="7.6" class="st13" width="0.2" height="1"/>
			<rect x="11.4" y="7.6" class="st13" width="0.7" height="0.2"/>
			<rect x="12.5" y="7.6" class="st13" width="0.2" height="1"/>
			<rect x="12.7" y="7.6" class="st13" width="0.7" height="0.2"/>
			<rect x="13.8" y="7.6" class="st13" width="0.2" height="1"/>
			<rect x="14" y="7.6" class="st13" width="0.7" height="0.2"/>
			<rect x="15" y="7.6" class="st13" width="0.2" height="1"/>
			<rect x="15.2" y="7.6" class="st13" width="0.7" height="0.2"/>
			<rect x="16.3" y="7.6" class="st13" width="0.2" height="1"/>
			<rect x="16.5" y="7.6" class="st13" width="0.7" height="0.2"/>
			<rect x="17.7" y="7.6" class="st13" width="0.1" height="1"/>
			<rect x="17.9" y="7.6" class="st13" width="0.5" height="0.2"/>
			<path class="st9" d="M18.8,7.6v1h-5.3V6.4c1.3,0,2.6,0.1,4.2,0.2h0.1C18.4,6.6,18.8,7.1,18.8,7.6z"/>
			<path class="st18" d="M13.6,58L13.6,58c6.5,0,11.7,5.2,11.7,11.7l0,0c0,6.5-5.2,11.7-11.7,11.7h0c-6.5,0-11.7-5.2-11.7-11.7l0,0
				C1.9,63.3,7.1,58,13.6,58z"/>
			<path class="st19" d="M13.6,59.1L13.6,59.1c5.9,0,10.7,4.8,10.7,10.7v0c0,5.9-4.8,10.7-10.7,10.7h0c-5.9,0-10.7-4.8-10.7-10.7v0
				C2.9,63.9,7.7,59.1,13.6,59.1z"/>
		</g>
	</g>
</g>
<g>
	<g>
		<path class="st20" d="M16.1,10c0,5.5,4.5,10,10,10V0C20.6,0,16.1,4.5,16.1,10z"/>
		<path class="st20" d="M40.1,10c0-5.5-4.5-10-10-10v20C35.6,20,40.1,15.5,40.1,10z"/>
		<rect x="26.1" class="st20" width="4" height="20"/>
	</g>
	<text transform="matrix(1.0293 0 0 1 17.8209 17.0323)" class="st21 st22 st23">1</text>
	<text transform="matrix(0.6001 0 0 0.583 26.7547 14.0667)" class="st21 st22 st23">½</text>
</g>
</svg>
