<svg xmlns="http://www.w3.org/2000/svg" viewBox="0 0 65.4 92.57"><defs><style>.cls-1{fill:#e4ebf1;}.cls-2{fill:#ccc;}.cls-3{fill:#ddcb45;}.cls-4{opacity:0.25;}.cls-5{fill:#fff;}</style></defs><g id="Layer_2" data-name="Layer 2"><g id="Layer_1-2" data-name="Layer 1"><path class="cls-1" d="M62.84,0C57.08,9.4,48,22.93,42,29.5c-2.51,2.71-6.43,3.28-9.27,3.28h-.24A18.92,18.92,0,0,1,29,32.47l-.63-.14a10.12,10.12,0,0,1-5.18-2.83C17.15,23,8.35,9.4,2.59,0Z"/><path class="cls-2" d="M62.84,0C57.08,9.4,48.05,22.93,42,29.5c-2.51,2.71-6.43,3.28-9.27,3.28h-.24c-2.85,0-6.76-.57-9.28-3.28C17.15,23,8.35,9.4,2.59,0H0A222.29,222.29,0,0,0,22.73,29.92c2.36,2.56,6,3.51,9.85,3.49s7.49-.93,9.85-3.49c6.3-6.8,17-20,23-29.92Z"/><path class="cls-3" d="M11.17,13.43a142,142,0,0,0,12,16.07c2.51,2.71,6.42,3.28,9.27,3.28h.24c2.84,0,6.76-.57,9.27-3.28A151,151,0,0,0,54.16,13.43Z"/><path class="cls-2" d="M37.27,36.41c.42-.44,2.89-3.69,4.72-6a17.64,17.64,0,0,1-18.82,0c1.78,2.29,4.31,5.61,4.72,6,1.71,1.82,1.87,4.78,1.87,7.28V82.35a3.73,3.73,0,0,1-.33,1.51h6.3a3.58,3.58,0,0,1-.34-1.51V43.69C35.39,41.19,35.56,38.23,37.27,36.41Zm-3.6,45a1,1,0,0,1-1,1h-.33a1,1,0,0,1-1-1V38.6a1,1,0,0,1,1-1h.33a1,1,0,0,1,1,1Zm1.11-45.8-.47.87a.78.78,0,0,1-.68.41H31.06a.78.78,0,0,1-.68-.41l-.48-.87a.37.37,0,0,1,.33-.54h4.23A.36.36,0,0,1,34.78,35.6Z"/><path class="cls-2" d="M51.37,91.48c-.46-.65-13.4-2.61-15.64-7.62h-6.3c-2.24,5-15.18,7-15.64,7.62-.3.42-.4,1.09,0,1.09H51.35C51.77,92.57,51.67,91.9,51.37,91.48Zm-21.2-6.62h5.17a.57.57,0,0,1,0,1.14H30.17a.57.57,0,0,1,0-1.14ZM14.24,91.94v0c.29-.13,1.23-.38,2.14-.63,3-.82,8-2.16,11.15-4.41H37.62c3.13,2.25,8.11,3.59,11.15,4.41.91.25,1.85.5,2.14.63v0Z"/><path class="cls-1" d="M32.85,82.43H32.1a.81.81,0,0,1-.82-.82V38.38a.82.82,0,0,1,.82-.82h.75a.82.82,0,0,1,.82.82V81.61A.81.81,0,0,1,32.85,82.43Zm1.46-46,.47-.87a.36.36,0,0,0-.32-.54H30.23a.37.37,0,0,0-.33.54l.48.87a.78.78,0,0,0,.68.41h2.57A.78.78,0,0,0,34.31,36.47Z"/><path class="cls-1" d="M50.92,91.94H14.24v0c.29-.13,1.23-.38,2.14-.63,3-.82,8-2.16,11.15-4.41H37.62c3.13,2.25,8.11,3.59,11.15,4.41.91.25,1.85.5,2.14.63Zm-15-6.51h0a.57.57,0,0,0-.56-.57H30.17a.57.57,0,0,0-.56.57h0a.57.57,0,0,0,.56.57h5.17A.57.57,0,0,0,35.9,85.43Z"/><g class="cls-4"><path class="cls-5" d="M55,0C50.74,9.4,44.06,22.93,39.57,29.5a8,8,0,0,1-6.87,3.28h-.17a8,8,0,0,1-6.87-3.28C21.2,23,14.68,9.4,10.42,0Z"/></g><g class="cls-4"><path class="cls-5" d="M45.47,0C43,9.4,39.2,22.93,36.63,29.5c-1.06,2.71-2.72,3.28-3.92,3.28h-.1c-1.21,0-2.87-.57-3.93-3.28C26.13,23,22.4,9.4,20,0Z"/></g><g class="cls-4"><path class="cls-5" d="M38.27,0c-1.06,9.4-2.73,22.93-3.85,29.5-.46,2.71-1.18,3.28-1.71,3.28h0c-.53,0-1.25-.57-1.71-3.28C29.84,23,28.22,9.4,27.16,0Z"/></g><path class="cls-5" d="M29.06,32.78h0S29.06,32.78,29.06,32.78Z"/></g></g></svg>