<?xml version="1.0" encoding="UTF-8" standalone="no"?>
<!-- Generator: Adobe Illustrator 24.1.1, SVG Export Plug-In . SVG Version: 6.00 Build 0)  -->

<svg
   xmlns:dc="http://purl.org/dc/elements/1.1/"
   xmlns:cc="http://creativecommons.org/ns#"
   xmlns:rdf="http://www.w3.org/1999/02/22-rdf-syntax-ns#"
   xmlns:svg="http://www.w3.org/2000/svg"
   xmlns="http://www.w3.org/2000/svg"
   xmlns:sodipodi="http://sodipodi.sourceforge.net/DTD/sodipodi-0.dtd"
   xmlns:inkscape="http://www.inkscape.org/namespaces/inkscape"
   version="1.1"
   id="Layer_1"
   x="0px"
   y="0px"
   viewBox="0 0 45 65.6"
   style="enable-background:new 0 0 45 65.6;"
   xml:space="preserve"
   sodipodi:docname="aperitif.svg"
   inkscape:version="0.92.4 (5da689c313, 2019-01-14)"><metadata
   id="metadata44"><rdf:RDF><cc:Work
       rdf:about=""><dc:format>image/svg+xml</dc:format><dc:type
         rdf:resource="http://purl.org/dc/dcmitype/StillImage" /><dc:title></dc:title></cc:Work></rdf:RDF></metadata><defs
   id="defs42" /><sodipodi:namedview
   pagecolor="#ffffff"
   bordercolor="#666666"
   borderopacity="1"
   objecttolerance="10"
   gridtolerance="10"
   guidetolerance="10"
   inkscape:pageopacity="0"
   inkscape:pageshadow="2"
   inkscape:window-width="1680"
   inkscape:window-height="966"
   id="namedview40"
   showgrid="false"
   inkscape:snap-bbox="true"
   inkscape:bbox-nodes="true"
   inkscape:snap-page="true"
   inkscape:zoom="7.1951221"
   inkscape:cx="15.07431"
   inkscape:cy="39.427465"
   inkscape:window-x="-8"
   inkscape:window-y="-8"
   inkscape:window-maximized="1"
   inkscape:current-layer="Layer_1" />
<style
   type="text/css"
   id="style2">
	.st0{fill:#E4EBF1;}
	.st1{fill:#CCCCCC;}
	.st2{fill:#DDCB45;}
	.st3{opacity:0.25;}
	.st4{fill:#FFFFFF;}
	.st5{fill:#0080FF;}
	.st6{fill:#EBEBEB;}
	.st7{font-family:'SegoeUI-Bold';}
	.st8{font-size:13.3354px;}
</style>
<g
   id="Layer_2_1_">
	<g
   id="Layer_1-2">
		<path
   class="st0"
   d="M41,9c-3.5,5.7-9.1,14-12.7,18c-1.5,1.7-3.9,2-5.7,2h-0.1c-0.7,0-1.4-0.1-2.1-0.2l-0.4-0.1    c-1.2-0.2-2.3-0.9-3.2-1.7C13,23.1,7.7,14.8,4.1,9H41z"
   id="path4" />
		<path
   class="st1"
   d="M41,9c-3.5,5.7-9,14-12.7,18c-1.5,1.7-3.9,2-5.7,2h-0.1c-1.7,0-4.1-0.3-5.7-2C13,23.1,7.7,14.8,4.1,9H2.5    c4.1,6.5,8.8,12.6,13.9,18.3c1.4,1.6,3.7,2.1,6,2.1c2.4,0,4.6-0.6,6-2.1C32.3,23.2,38.9,15.1,42.5,9H41z"
   id="path6" />
		<path
   class="st2"
   d="M9.4,17.2c2.2,3.4,4.7,6.7,7.3,9.8c1.5,1.7,3.9,2,5.7,2h0.1c1.7,0,4.1-0.3,5.7-2c2.7-3.1,5.2-6.4,7.5-9.8H9.4    z"
   id="path8" />
		<path
   class="st1"
   d="M25.3,31.3c0.3-0.3,1.8-2.3,2.9-3.7c-3.5,2.2-8,2.2-11.5,0c1.1,1.4,2.6,3.4,2.9,3.7c1,1.1,1.1,2.9,1.1,4.5    v23.6c0,0.3-0.1,0.6-0.2,0.9h3.9c-0.1-0.3-0.2-0.6-0.2-0.9V35.7C24.2,34.2,24.3,32.4,25.3,31.3z M23.1,58.8c0,0.3-0.3,0.6-0.6,0.6    h-0.2c-0.3,0-0.6-0.3-0.6-0.6V32.6c0-0.3,0.3-0.6,0.6-0.6h0.2c0.3,0,0.6,0.3,0.6,0.6V58.8z M23.8,30.8l-0.3,0.5    c-0.1,0.2-0.2,0.2-0.4,0.3h-1.6c-0.2,0-0.3-0.1-0.4-0.3l-0.3-0.5c-0.1-0.1,0-0.2,0.1-0.3c0,0,0.1,0,0.1,0h2.6    c0.1,0,0.2,0.1,0.2,0.2C23.8,30.7,23.8,30.7,23.8,30.8L23.8,30.8z"
   id="path10" />
		<path
   class="st1"
   d="M34,64.9c-0.3-0.4-8.2-1.6-9.6-4.7h-3.9c-1.4,3.1-9.3,4.3-9.6,4.7c-0.2,0.3-0.2,0.7,0,0.7h23    C34.2,65.6,34.1,65.2,34,64.9z M21,60.9h3.2c0.2,0,0.3,0.2,0.3,0.3c0,0.2-0.2,0.3-0.3,0.3H21c-0.2,0-0.3-0.2-0.3-0.3    C20.6,61.1,20.8,60.9,21,60.9z M11.3,65.2L11.3,65.2c0.2-0.1,0.8-0.2,1.3-0.4c1.8-0.5,4.9-1.3,6.8-2.7h6.2c1.9,1.4,5,2.2,6.8,2.7    c0.6,0.2,1.1,0.3,1.3,0.4l0,0H11.3z"
   id="path12" />
		<path
   class="st0"
   d="M22.6,59.4h-0.5c-0.3,0-0.5-0.2-0.5-0.5c0,0,0,0,0,0V32.5c0-0.3,0.2-0.5,0.5-0.5h0.5c0.3,0,0.5,0.2,0.5,0.5    v26.4C23.1,59.2,22.9,59.4,22.6,59.4C22.6,59.4,22.6,59.4,22.6,59.4z M23.5,31.3l0.3-0.5c0.1-0.1,0-0.2-0.1-0.3c0,0-0.1,0-0.1,0    H21c-0.1,0-0.2,0.1-0.2,0.2c0,0,0,0.1,0,0.1l0.3,0.5c0.1,0.2,0.2,0.2,0.4,0.3h1.6C23.3,31.5,23.4,31.5,23.5,31.3L23.5,31.3z"
   id="path14" />
		<path
   class="st0"
   d="M33.7,65.2H11.3l0,0c0.2-0.1,0.8-0.2,1.3-0.4c1.8-0.5,4.9-1.3,6.8-2.7h6.2c1.9,1.4,5,2.2,6.8,2.7    C32.9,65,33.5,65.1,33.7,65.2L33.7,65.2z M24.5,61.2L24.5,61.2c0-0.2-0.2-0.3-0.3-0.3H21c-0.2,0-0.3,0.2-0.3,0.3l0,0    c0,0.2,0.2,0.3,0.3,0.3h3.2C24.3,61.6,24.5,61.4,24.5,61.2L24.5,61.2z"
   id="path16" />
		<g
   class="st3"
   id="g20">
			<path
   class="st4"
   d="M36.2,9c-2.6,5.7-6.7,14-9.4,18c-1,1.3-2.6,2.1-4.2,2h-0.1c-1.6,0.1-3.2-0.7-4.2-2c-2.7-4-6.7-12.3-9.3-18     H36.2z"
   id="path18" />
		</g>
		<g
   class="st3"
   id="g24">
			<path
   class="st4"
   d="M30.3,9c-1.5,5.7-3.8,14-5.4,18c-0.6,1.7-1.7,2-2.4,2h-0.1c-0.7,0-1.8-0.3-2.4-2c-1.6-4-3.8-12.3-5.3-18     H30.3z"
   id="path22" />
		</g>
		<g
   class="st3"
   id="g28">
			<path
   class="st4"
   d="M25.9,9c-0.6,5.7-1.7,14-2.4,18c-0.3,1.7-0.7,2-1,2l0,0c-0.3,0-0.8-0.3-1-2c-0.7-4-1.7-12.3-2.3-18H25.9z"
   id="path26" />
		</g>
		<path
   class="st4"
   d="M20.3,29.1L20.3,29.1L20.3,29.1z"
   id="path30" />
	</g>
</g>

<g
   id="g1520"
   transform="matrix(0.75892857,0,0,0.75892857,-139.41964,-225.85713)"><circle
     style="fill:#0080ff"
     id="path1269"
     class="st0"
     cx="231.8"
     cy="308.79999"
     r="11.2" /><text
     style="font-size:20px;font-family:SegoeUI-Bold;opacity:1;fill:#ebebeb;"
     transform="translate(226.0586,315.959)"
     class="st1 st2 st3"
     id="text1518"><tspan
       style="font-style:normal;font-variant:normal;font-weight:bold;font-stretch:normal;font-family:'Segoe UI';-inkscape-font-specification:'Segoe UI Bold';"
       id="tspan1641">1</tspan></text>
</g></svg>