<?xml version="1.0" encoding="utf-8"?>
<!-- Generator: Adobe Illustrator 24.1.1, SVG Export Plug-In . SVG Version: 6.00 Build 0)  -->
<svg version="1.1" id="Layer_1" xmlns="http://www.w3.org/2000/svg" xmlns:xlink="http://www.w3.org/1999/xlink" x="0px" y="0px"
	 viewBox="0 0 40 82.6" style="enable-background:new 0 0 40 82.6;" xml:space="preserve">
<style type="text/css">
	.st0{fill:#F2F2F2;}
	.st1{fill:#F8F9E9;}
	.st2{fill:#CCCCCC;}
	.st3{opacity:0.5;fill:#F8F9E9;enable-background:new    ;}
	.st4{fill:#E4EBF1;}
	.st5{fill:#3E000D;}
	.st6{fill:#530016;}
	.st7{fill:#2B0009;}
	.st8{opacity:0.3;fill:#FFFFFF;enable-background:new    ;}
	.st9{fill:#7D2F47;}
	.st10{fill:#E5C720;}
	.st11{fill:#401A00;}
	.st12{font-family:'SegoeUI-Bold';}
	.st13{font-size:20px;}
</style>
<g id="Layer_2_1_">
	<g id="Layer_1-2">
		<path class="st0" d="M33,80.2c0,1.3-5.9,2.4-13.2,2.4S6.5,81.5,6.5,80.2c0-0.1,0-0.3,0-0.4c0.4-0.7,2-1.2,4.9-1.8
			c2.2-0.4,4.3-1.7,7.3-1.7c6.7,0,11,2.4,14.2,3.4C33,79.9,33,80,33,80.2z"/>
		<path class="st1" d="M25.4,76.9L25.4,76.9l-0.3-0.1l0,0c-1.6-0.7-3-1.6-3.5-2.6c-1.1-2.2-1.5-19.9,0.5-23.6h-4.6
			c2,3.7,1.6,21.4,0.5,23.6c-0.5,0.9-1.6,1.8-3,2.4c-0.4,0.2-0.8,0.4-1.2,0.5c-0.4,0.3-0.6,0.5-0.6,0.8c0,1.1,3,2,6.6,2
			s6.7-0.9,6.7-2C26.4,77.6,26,77.2,25.4,76.9z M18.6,51.9c-0.1-0.2-0.1-0.5,0-0.7c0.2-0.4,2.1-0.4,2.3,0c0.1,0.3,0,0.7-0.1,0.7
			c-0.1,0-0.4,0.1-0.4,0.3c-0.1,4.6-0.2,14.4,0,22.4c0,0.3-0.3,0.6-0.6,0.6h-0.2c-0.3,0-0.6-0.3-0.6-0.6c0.2-8,0.1-17.7,0-22.4
			C19,52.1,18.8,52.1,18.6,51.9z"/>
		<path class="st2" d="M32.2,9.3h-2.1c0.4,1.7,1.1,5.5,2.3,13.4c3,18.7-6.6,25.6-12.7,25.6S3.9,41.4,7.3,22.7
			C8,18.9,8.9,12.2,9.2,9.3H7.3c0,0-2.8,13.9-2.5,22.6c0.5,15.1,11.4,16.8,12.5,18.4c0.1,0.1,0.1,0.2,0.1,0.2h4.6
			c0-0.1,0.1-0.2,0.1-0.2c1.1-1.6,12-3.3,12.5-18.4C35,23.3,32.2,9.3,32.2,9.3z M19.7,50.6c-0.3,0-0.5,0-0.8-0.1
			c0.3-0.1,0.5-0.1,0.8,0c0.3,0,0.5,0,0.8,0C20.3,50.5,20,50.6,19.7,50.6z M19.7,50.1c-0.5,0-0.9,0-1.4-0.2c0.5-0.1,0.9-0.1,1.4-0.1
			c0.5,0,0.9,0,1.4,0.1C20.7,50.1,20.2,50.1,19.7,50.1L19.7,50.1z M19.7,49.6c-1.3,0-2.5-0.3-2.4-0.3c0.8-0.2,1.6-0.2,2.4-0.1
			c0.8-0.1,1.6,0,2.4,0.1C22.3,49.3,21,49.6,19.7,49.6z"/>
		<path class="st2" d="M32.4,79.1c-0.8-0.4-1.7-0.7-2.6-0.8l-0.2,0c-2.9-0.6-7-2-8-4c-1.1-2.2-1.4-19.8,0.6-23.6h-4.6
			c2,3.7,1.6,21.4,0.5,23.6c-0.8,1.7-4,3-6.8,3.8h0c-0.8,0.1-1.6,0.3-2.4,0.5l0,0c-0.6,0.1-1.1,0.3-1.6,0.6
			c-0.4,0.2-0.6,0.5-0.6,0.7c0,1.1,4.3,2.1,10,2.3c0.5,0,1,0,1.5,0.1c0.5,0,1.1,0,1.7,0h1.4h0.7c1.1,0,2.2-0.1,3.3-0.2
			c0.2,0,0.3,0,0.5,0c0.3,0,0.7-0.1,1-0.1c3.8-0.4,6.4-1.2,6.4-2C33,79.5,32.8,79.3,32.4,79.1z M18.6,51.9c-0.1-0.2-0.1-0.5,0-0.7
			c0.2-0.4,2.1-0.4,2.3,0c0.1,0.3,0,0.7-0.1,0.7c-0.1,0-0.4,0.1-0.4,0.3c-0.1,4.6-0.2,14.4,0,22.4c0,0.3-0.3,0.6-0.6,0.6h-0.2
			c-0.3,0-0.6-0.3-0.6-0.6c0.2-8,0.1-17.7,0-22.4C19,52.1,18.8,52.1,18.6,51.9z M19.7,81.6c-5.3,0-9.6-1.1-9.6-2.4
			c0-0.4,0.3-0.7,0.9-1c0.6-0.3,1.2-0.5,1.8-0.6c2.3-0.5,4.6-0.8,7-0.8c2.6-0.1,5.2,0.3,7.7,0.9l0,0c0.1,0.1,0.3,0.1,0.4,0.2l0,0
			c0.9,0.4,1.5,0.8,1.5,1.3C29.4,80.6,25.1,81.6,19.7,81.6z"/>
		<path class="st3" d="M22.1,49.2c0.2,0-1.1,0.3-2.4,0.3s-2.5-0.3-2.4-0.3c0.8-0.2,1.6-0.2,2.4-0.1C20.5,49,21.3,49.1,22.1,49.2z
			 M19.8,49.8c-0.5,0-0.9,0-1.4,0.1c0.4,0.2,0.9,0.2,1.4,0.2c0.5,0,0.9,0,1.4-0.2C20.7,49.8,20.2,49.8,19.8,49.8L19.8,49.8z
			 M19.8,50.4c-0.3,0-0.5,0-0.8,0c0.3,0.1,0.5,0.1,0.8,0.1c0.3,0,0.5,0,0.8-0.1C20.3,50.4,20,50.4,19.8,50.4L19.8,50.4z"/>
		<path class="st4" d="M6.6,29.2c-0.1,4.5,0.7,8.1,2,10.9C7.3,37.3,6.5,33.7,6.6,29.2z"/>
		<path class="st4" d="M9.8,42.3c-0.5-0.7-0.9-1.4-1.2-2.2C9,40.8,9.4,41.6,9.8,42.3z"/>
		<path class="st4" d="M9.8,42.3c0.6,0.8,1.2,1.6,1.9,2.3C11,43.9,10.4,43.1,9.8,42.3z"/>
		<path class="st4" d="M30.1,9.3c0.7,2.6,2.3,13.4,2.3,13.4c-0.1,0.4-6.4-0.7-12.2-0.7S7.3,23.1,7.3,22.7c0,0,1.8-12.9,1.9-13.4
			H30.1z"/>
		<path class="st0" d="M20.9,51.2c-0.2-0.4-2.2-0.4-2.3,0c-0.1,0.2-0.1,0.5,0,0.7c0.2,0.1,0.4,0.2,0.4,0.4c0.1,4.6,0.2,14.4,0,22.4
			c0,0.3,0.3,0.6,0.6,0.6h0.2c0.3,0,0.6-0.3,0.6-0.6c-0.1-8-0.1-17.8,0-22.4c0-0.2,0.2-0.3,0.4-0.3C21.1,51.9,21,51.5,20.9,51.2z"/>
		<path class="st2" d="M25.4,76.9L25.4,76.9l-0.3-0.1l0,0c-1.6-0.7-3-1.6-3.5-2.6c-1.1-2.2-1.5-19.9,0.5-23.6h-4.6
			c2,3.7,1.6,21.4,0.5,23.6c-0.5,0.9-1.6,1.8-3,2.4c-0.4,0.1-0.8,0.3-1.2,0.5c-0.4,0.3-0.6,0.5-0.6,0.8c0,1.1,3,2,6.6,2
			s6.7-0.9,6.7-2C26.4,77.6,26,77.2,25.4,76.9z M18.6,51.9c-0.1-0.2-0.1-0.5,0-0.7c0.2-0.4,2.1-0.4,2.3,0c0.1,0.3,0,0.7-0.1,0.7
			c-0.1,0-0.4,0.1-0.4,0.3c-0.1,4.6-0.2,14.4,0,22.4c0,0.3-0.3,0.6-0.6,0.6h-0.2c-0.3,0-0.6-0.3-0.6-0.6c0.2-8,0.1-17.7,0-22.4
			C19,52.1,18.8,52.1,18.6,51.9z"/>
		<path class="st5" d="M33,29.4c0.1,3.3-0.5,6.5-1.6,9.6c-0.2,0.6-0.5,1.1-0.7,1.6c-0.3,0.5-0.5,1-0.8,1.5s-0.6,0.9-0.9,1.3
			c-0.9,1.1-1.9,2.1-3.1,2.9c-0.4,0.2-0.7,0.5-1.1,0.7c-1.5,0.8-3.2,1.3-4.9,1.3c-3.1-0.1-5.9-1.4-8-3.7c-0.7-0.7-1.4-1.5-1.9-2.3
			l0,0c-0.5-0.7-0.9-1.4-1.2-2.2c-1.3-2.8-2.1-6.4-2-10.9c0-0.3,0-0.5,0-0.8c0-0.3,0-0.5,0-0.8s0-0.6,0.1-0.8c0.1-1.3,0.3-2.6,0.6-4
			c0,0,6.7-0.7,12.6-0.7s12.6,0.7,12.6,0.7c0.2,1.4,0.4,2.7,0.5,4l0,0v0.1c0,0.4,0.1,0.9,0.1,1.3C33,28.5,33,29,33,29.4z"/>
		<path class="st5" d="M24.6,47c0.4-0.2,0.7-0.4,1.1-0.7C25.4,46.6,25,46.8,24.6,47z"/>
		<path class="st5" d="M28.9,43.4c0.3-0.4,0.6-0.8,0.9-1.3C29.5,42.6,29.2,43,28.9,43.4z"/>
		<path class="st5" d="M31.4,39c-0.2,0.6-0.5,1.1-0.7,1.6C30.9,40.1,31.1,39.6,31.4,39z"/>
		<path class="st6" d="M19.8,47.7c-5.2,0-14.2-7.9-10.3-19.8c0.1-0.4,0.7-0.6,1.4-0.6c2,0.1,4.9,0.2,9.1,0.2s7.2,0,9.2-0.2
			c0.7,0,1.3,0.2,1.4,0.6C33.6,39.6,24.9,47.7,19.8,47.7z"/>
		<path class="st7" d="M23.7,47.4c-1.2,0.6-2.6,0.8-4,0.9c-1.4,0-2.7-0.3-4-0.9c1.2-0.6,2.6-0.8,4-0.7
			C21.1,46.6,22.5,46.9,23.7,47.4z"/>
		<path class="st8" d="M15.9,46.5l3-0.5c-4.6-3.3-8.4-10.6-6.1-23.3c0.7-3.8,1.5-10.5,1.9-13.4h-3.4c-0.4,2.9-1.2,9.6-1.9,13.4
			C7,35.5,10.9,43.3,15.9,46.5z"/>
		<path class="st8" d="M27.1,23.2l3.5-0.1c0-0.1-0.1-0.2-0.1-0.4c-0.1-4.5-0.8-9-1.9-13.4h-3.4C26.5,12.8,27.1,18.8,27.1,23.2z"/>
		<path class="st9" d="M32.4,22.8L32.4,22.8c-0.1,0.4-5.7,0.7-12.5,0.7c-6.9,0-12.6-0.3-12.6-0.7c0-0.4,5.7-0.7,12.6-0.7
			C26.7,22,32.2,22.3,32.4,22.8C32.4,22.8,32.4,22.8,32.4,22.8z"/>
	</g>
</g>
<circle id="path1269-7" class="st10" cx="29.8" cy="10" r="10"/>
<text transform="matrix(1.0293 0 0 1 24.6597 16.9664)" class="st11 st12 st13">3</text>
</svg>
