<svg xmlns="http://www.w3.org/2000/svg" viewBox="0 0 49.28 120.38"><defs><style>.cls-1{fill:#f2f2f2;}.cls-2,.cls-4{fill:#f8f9e9;}.cls-3{fill:#ccc;}.cls-4{opacity:0.5;}.cls-5{fill:#e4ebf1;}.cls-6{fill:#3e000d;}.cls-7{fill:#530016;}.cls-8{fill:#2b0009;}.cls-9{fill:#fff;opacity:0.3;}.cls-10{fill:#7d2f47;}.cls-11{fill:#e3c9d0;}</style></defs><g id="Layer_2" data-name="Layer 2"><g id="Layer_1-2" data-name="Layer 1"><path class="cls-1" d="M46.33,116.44c0,2.18-9.73,3.94-21.72,3.94s-21.72-1.76-21.72-3.94c0-.14,0-.43,0-.69.66-1.11,3.32-2,8.12-2.93,3.64-.7,7.13-2.74,12-2.74,11,0,18,3.94,23.3,5.59C46.34,116,46.33,116.26,46.33,116.44Z"/><path class="cls-2" d="M33.87,111.14h0l-.46-.2,0,0c-2.68-1.14-5-2.59-5.81-4.29C25.74,103,25.17,74,28.44,67.85h-7.6c3.26,6.13,2.7,35.18.9,38.77-.76,1.53-2.7,2.9-5,4-.64.31-1.32.6-2,.86-.66.42-1,.89-1,1.38,0,1.79,4.89,3.24,10.93,3.24s10.94-1.45,10.94-3.24C35.55,112.23,34.93,111.64,33.87,111.14ZM22.74,70.07a1.45,1.45,0,0,1,0-1.2c.26-.58,3.47-.62,3.82,0,.21.42.08,1.14-.15,1.2s-.58.2-.59.52c-.18,7.62-.29,23.67-.05,36.85a1,1,0,0,1-1,1h-.36a1,1,0,0,1-.95-1c.29-13.15.14-29.14-.06-36.76C23.39,70.36,23.08,70.3,22.74,70.07Z"/><path class="cls-3" d="M45.11,0H41.69c.59,2.84,1.74,9,3.81,22.06,4.87,30.72-10.81,42-20.86,42s-26.09-11.4-20.46-42C5.33,15.83,6.72,4.75,7.31,0H4.16S-.44,22.93,0,37.19C.86,62.08,18.78,64.78,20.6,67.46a3,3,0,0,1,.23.4h7.61c.08-.14.15-.29.23-.4,1.82-2.68,19.75-5.38,20.58-30.27C49.72,22.93,45.11,0,45.11,0ZM24.61,67.78a3,3,0,0,1-1.32-.2,5.08,5.08,0,0,1,1.33-.08,6.11,6.11,0,0,1,1.31.08A2.87,2.87,0,0,1,24.61,67.78Zm0-.75a5,5,0,0,1-2.24-.33,8.33,8.33,0,0,1,2.26-.14,8.59,8.59,0,0,1,2.22.14A5.21,5.21,0,0,1,24.61,67Zm0-.88c-2.15,0-4.19-.46-3.89-.56a14.14,14.14,0,0,1,3.92-.24,15.26,15.26,0,0,1,3.87.24C28.81,65.68,26.76,66.15,24.61,66.15Z"/><path class="cls-3" d="M45.35,114.65A16.3,16.3,0,0,0,41,113.26l-.37-.08c-4.76-1-11.53-3.34-13.14-6.56C25.74,103,25.17,74,28.44,67.85h-7.6c3.26,6.13,2.7,35.18.9,38.77-1.38,2.78-6.63,5-11.11,6.2h-.06a36.46,36.46,0,0,0-4,.81h0a11.23,11.23,0,0,0-2.7,1c-.64.37-1,.77-1,1.18,0,1.84,7,3.4,16.46,3.81.82,0,1.65.06,2.5.09s1.82,0,2.75,0l2.23,0,1.08,0c1.89-.06,3.69-.15,5.38-.29.29,0,.57,0,.84-.08.56,0,1.11-.1,1.65-.16,6.31-.68,10.54-1.92,10.54-3.36C46.34,115.42,46,115,45.35,114.65ZM22.74,70.07a1.45,1.45,0,0,1,0-1.2c.26-.58,3.47-.62,3.82,0,.21.42.08,1.14-.15,1.2s-.58.2-.59.52c-.18,7.62-.29,23.66-.05,36.84a1,1,0,0,1-1,1h-.36a1,1,0,0,1-.95-1c.29-13.13.14-29.13-.06-36.75C23.39,70.36,23.08,70.3,22.74,70.07Zm1.87,48.8c-8.75,0-15.83-1.75-15.83-3.92,0-.58.52-1.15,1.48-1.65a13,13,0,0,1,2.89-1A47.27,47.27,0,0,1,24.61,111a44.1,44.1,0,0,1,12.63,1.56h0c.21.09.44.17.67.25h0c1.54.61,2.43,1.32,2.43,2.08C40.44,117.12,33.35,118.87,24.61,118.87Z"/><path class="cls-4" d="M28.51,65.59c.3.08-1.75.56-3.9.56s-4.19-.46-3.9-.56a14.23,14.23,0,0,1,3.93-.24A15.26,15.26,0,0,1,28.51,65.59Zm-3.88,1a8.35,8.35,0,0,0-2.25.13,5.14,5.14,0,0,0,2.23.33,5.36,5.36,0,0,0,2.24-.33A9.28,9.28,0,0,0,24.63,66.57Zm0,.93a4.9,4.9,0,0,0-1.32.08,2.84,2.84,0,0,0,1.31.2,3.09,3.09,0,0,0,1.32-.2A5.44,5.44,0,0,0,24.62,67.5Z"/><path class="cls-5" d="M3,32.72C2.87,40.11,4.17,46,6.3,50.59,4.16,46,2.86,40.1,3,32.72Z"/><path class="cls-5" d="M8.29,54.17a26.08,26.08,0,0,1-2-3.58A30.32,30.32,0,0,0,8.29,54.17Z"/><path class="cls-5" d="M8.29,54.18A25,25,0,0,0,11.43,58,23.88,23.88,0,0,1,8.29,54.18Z"/><path class="cls-5" d="M41.68,0c1.13,4.3,3.83,22.05,3.82,22.06-.18.64-10.49-1.13-20.08-1.13S4.18,22.72,4.18,22.06c0,0,3-21.22,3.13-22.06Z"/><path class="cls-1" d="M26.51,68.9c-.34-.65-3.55-.61-3.81,0a1.48,1.48,0,0,0,.05,1.21c.33.22.64.28.65.64.2,7.62.35,23.62.05,36.76a1,1,0,0,0,1,1h.36a1,1,0,0,0,1-1c-.24-13.18-.13-29.23.05-36.85,0-.32.28-.46.6-.53S26.74,69.33,26.51,68.9Z"/><path class="cls-3" d="M33.87,111.14h0l-.46-.2,0,0c-2.68-1.14-5-2.59-5.81-4.29C25.74,103,25.17,74,28.44,67.85h-7.6c3.26,6.13,2.7,35.18.9,38.77-.76,1.53-2.7,2.9-5,4a8.66,8.66,0,0,0-2,.86c-.66.42-1,.89-1,1.38,0,1.79,4.89,3.24,10.93,3.24s10.94-1.45,10.94-3.24C35.55,112.23,34.93,111.64,33.87,111.14ZM22.74,70.07a1.45,1.45,0,0,1,0-1.2c.26-.58,3.47-.62,3.82,0,.21.42.08,1.14-.15,1.2s-.58.2-.59.52c-.18,7.62-.29,23.67-.05,36.85a1,1,0,0,1-1,1h-.36a1,1,0,0,1-.95-1c.29-13.15.14-29.14-.06-36.76C23.39,70.36,23.08,70.3,22.74,70.07Z"/><path class="cls-6" d="M46.41,33a42.85,42.85,0,0,1-2.7,15.79c-.38.94-.78,1.84-1.21,2.68s-.89,1.65-1.37,2.41-1,1.46-1.52,2.11a22.3,22.3,0,0,1-5.14,4.79,20.34,20.34,0,0,1-1.81,1.1,17.28,17.28,0,0,1-8,2.15,19.25,19.25,0,0,1-13.21-6,25,25,0,0,1-3.14-3.85s0,0,0,0a30.32,30.32,0,0,1-2-3.58C4.17,46,2.87,40.11,3,32.72c0-.43,0-.87,0-1.32s0-.9.08-1.36.07-.93.11-1.39c.19-2.09.49-4.28.91-6.59,0,0,11-1.13,20.74-1.13S45.5,22.06,45.5,22.06c.36,2.29.61,4.46.74,6.53,0,0,0,0,0,0v.13c.05.73.09,1.46.11,2.16S46.41,32.33,46.41,33Z"/><path class="cls-6" d="M32.66,61.9a20.34,20.34,0,0,0,1.81-1.1A15.92,15.92,0,0,1,32.66,61.9Z"/><path class="cls-6" d="M39.61,56c.52-.65,1-1.37,1.52-2.11C40.64,54.64,40.14,55.36,39.61,56Z"/><path class="cls-6" d="M43.71,48.81c-.38.94-.77,1.84-1.21,2.68C42.93,50.65,43.33,49.75,43.71,48.81Z"/><path class="cls-7" d="M24.65,63.13c-8.47,0-23.32-13-17-32.61.19-.58,1.12-1,2.25-.94,3.34.22,8,.29,15,.29s11.78-.07,15.2-.28c1.14-.07,2.08.36,2.24,1C47.44,49.78,33.11,63.13,24.65,63.13Z"/><path class="cls-8" d="M31.15,62.63a16.66,16.66,0,0,1-6.51,1.43,16.78,16.78,0,0,1-6.52-1.43,14.51,14.51,0,0,1,6.52-1.23A14.38,14.38,0,0,1,31.15,62.63Z"/><path class="cls-9" d="M18.32,61.16l4.94-.77c-7.57-5.46-13.85-17.4-10-38.33C14.4,15.83,15.79,4.75,16.38,0H10.71c-.59,4.75-2,15.83-3.13,22.06C3.74,43,10.16,55.88,18.32,61.16Z"/><path class="cls-9" d="M36.71,22.86l5.69-.18a3.34,3.34,0,0,1-.1-.62A102.46,102.46,0,0,0,39.17,0H33.5C35.65,5.78,36.72,15.54,36.71,22.86Z"/><path class="cls-10" d="M45.5,22.12l0,0c-.21.65-9.34,1.18-20.56,1.18-11.38,0-20.74-.53-20.74-1.19s9.36-1.2,20.74-1.2c11.14,0,20.23.51,20.56,1.16C45.5,22.1,45.5,22.11,45.5,22.12Z"/><path class="cls-11" d="M31.15,45.68a5.15,5.15,0,0,1-1.88,4.14,7.67,7.67,0,0,1-5.09,1.58,11.37,11.37,0,0,1-2.58-.31,5.78,5.78,0,0,1-1.91-.72v-3a7,7,0,0,0,2.07,1.11,7.39,7.39,0,0,0,2.39.42A4.33,4.33,0,0,0,27,48.06,2.8,2.8,0,0,0,28,45.77a2.62,2.62,0,0,0-1.22-2.34,6.42,6.42,0,0,0-3.53-.81H21.63V40.11h1.56a5.49,5.49,0,0,0,3.1-.75,2.5,2.5,0,0,0,1.09-2.2,2.54,2.54,0,0,0-.85-2,3.62,3.62,0,0,0-2.4-.72,6,6,0,0,0-3.74,1.35V33a8,8,0,0,1,2-.76,10.81,10.81,0,0,1,2.49-.29,7,7,0,0,1,3,.59,4.43,4.43,0,0,1,1.94,1.64,4.28,4.28,0,0,1,.67,2.37,4.55,4.55,0,0,1-1,3,5.2,5.2,0,0,1-2.76,1.67v.05A5.24,5.24,0,0,1,30,42.68,4.07,4.07,0,0,1,31.15,45.68Z"/></g></g></svg>