<?xml version="1.0" encoding="utf-8"?>
<!-- Generator: Adobe Illustrator 24.1.1, SVG Export Plug-In . SVG Version: 6.00 Build 0)  -->
<svg version="1.1" id="Layer_1" xmlns="http://www.w3.org/2000/svg" xmlns:xlink="http://www.w3.org/1999/xlink" x="0px" y="0px"
	 viewBox="0 0 40 84.5" style="enable-background:new 0 0 40 84.5;" xml:space="preserve">
<style type="text/css">
	.st0{fill:#E4EBF1;}
	.st1{fill:none;}
	.st2{fill:#F1B20F;}
	.st3{fill:#FFF1DA;}
	.st4{fill:#B2B2B2;}
	.st5{fill:#F2F2F2;}
	.st6{opacity:0.3;}
	.st7{fill:#FFFFFF;}
	.st8{fill:#CCCCCC;}
	.st9{opacity:0.8;fill:#FFFFFF;enable-background:new    ;}
	.st10{fill:#0080FF;}
	.st11{fill:#EBEBEB;}
	.st12{font-family:'SegoeUI-Bold';}
	.st13{font-size:13.3354px;}
</style>
<g>
	<g id="Layer_2_1_">
		<g id="Layer_1-2">
			<path class="st0" d="M35.9,10.2c-0.1-2.7-0.2-4.5-0.2-4.5H4.6c0,0-0.1,1.9-0.2,4.5C4.2,14,4,19.6,4.2,23.8
				c0.1,2.5,0.6,8,1.2,14.5c1.2,11.8,2.7,26.6,2.8,30.2c0,1,0,2,0,3.1c-0.1,5.2-0.6,11.2-0.6,11.2c0.7,1,8,1.7,12.5,1.7
				s11.8-0.8,12.5-1.7c0,0-0.5-6-0.6-11.2c0-1.1,0-2.2,0-3.1c0.1-3.6,1.7-18.4,2.8-30.2c0.6-6.4,1.1-12,1.2-14.5
				C36.2,19.6,36,14,35.9,10.2z M33.8,38.1c-0.3,2.6-0.6,5.6-0.9,9.2c-1.6,16.3-2,19.9-1.9,24.6c0,1.1,0.1,2.3,0.1,3.8l-0.4,0.1
				c-0.4-0.7-0.8-1.1-1-3.7c-6.3,1.4-12.9,1.4-19.2,0c-0.2,2.6-0.6,3-1,3.7l-0.4-0.1c0.1-1.5,0.1-2.7,0.1-3.8
				c0.1-4.7-0.3-8.2-1.9-24.6c-0.4-3.5-0.7-6.5-0.9-9.2C5.1,24.3,4.9,20.9,5.6,6.7H8C7,25.9,8,27.3,9,37.8c7.4-0.7,14.8-0.7,22.2,0
				c1.1-10.5,2-12,1-31.1h2.4C35.4,20.9,35.2,24.3,33.8,38.1z"/>
			<path class="st0" d="M33.8,38.1c-0.3,2.6-0.6,5.6-0.9,9.2c-1.6,16.3-2,19.9-1.9,24.6c0,1.1,0.1,2.3,0.1,3.8l-0.4,0.1
				c-0.4-0.7-0.8-1.1-1-3.7c-6.3,1.4-12.9,1.4-19.2,0c-0.2,2.6-0.6,3-1,3.7l-0.4-0.1c0.1-1.5,0.1-2.7,0.1-3.8
				c0.1-4.7-0.3-8.2-1.9-24.6c-0.4-3.5-0.7-6.5-0.9-9.2C5.1,24.3,4.9,20.9,5.6,6.7H8C7,25.9,8,27.3,9,37.8c7.4-0.7,14.8-0.7,22.2,0
				c1.1-10.5,2-12,1-31.1h2.4C35.4,20.9,35.2,24.3,33.8,38.1z"/>
			<path class="st1" d="M33.3,42.6c-8.8-1.3-17.7-1.3-26.4,0l0,0C5.1,25,4.8,22.3,5.6,6.7h29.1C35.5,22.3,35.1,24.9,33.3,42.6z"/>
			<path class="st2" d="M33.3,42.6c0,0.2,0,0.5-0.1,0.7c0,0.1,0,0.3,0,0.4c-0.1,0.7-0.1,1.5-0.2,2.2c0,0.4-0.1,0.9-0.1,1.3
				c-1.6,16.3-2,19.9-1.9,24.6c0,1.1,0.1,2.3,0.1,3.8c-8.6,2.5-14,2.3-22,0c0.3-7.6,0.2-8.2-1.8-28.4C7.2,45.6,7,44,6.9,42.6l0,0
				C15.7,41.3,24.6,41.3,33.3,42.6z"/>
			<path class="st2" d="M33,46c0.1-0.8,0.1-1.5,0.2-2.2C33.2,44.5,33.1,45.2,33,46z"/>
			<path class="st2" d="M33.3,42.6c0,0.2,0,0.5-0.1,0.7C33.3,43.1,33.3,42.8,33.3,42.6L33.3,42.6z"/>
			<path class="st3" d="M33.8,38.1c-0.1,1.4-0.3,2.9-0.4,4.5l0,0c-8.8-1.3-17.7-1.3-26.4,0c-0.2-1.6-0.3-3.1-0.5-4.5
				C7.3,38,8.2,37.9,9,37.8c7.4-0.7,14.8-0.7,22.2,0C32.1,37.9,32.9,38,33.8,38.1z"/>
			<path class="st4" d="M30.1,75.9c-7.7,2.1-12.9,1.9-19.9,0C14.1,74.4,26.1,74.4,30.1,75.9z"/>
			<g>
				<path class="st5" d="M28.4,76.3c0.4,3.4,1.2,5.2-0.1,5.5c-3,0.8-2.9-1.6-3.8-4.8c-0.5-18-1.6-41.6-1.8-70.3h7.6
					C30.9,35.7,27.7,51.4,28.4,76.3z"/>
			</g>
			<g class="st6">
				<path class="st7" d="M19.8,47.7c-1.6,25-1.4,22.2-1.2,29.6c0.1,3.6-0.9,4.9-3.5,4.9c-1.6,0-2.2-1.3-2.1-5.6
					c0.2-11.2-2.5-42.6-2.8-53.6c-0.1-5.1,0-12.2,0.2-16.3h10.8C21.5,22.2,21.4,23.2,19.8,47.7z"/>
			</g>
			<g>
				<path class="st8" d="M33.8,38.1c-0.3,2.6-0.6,5.6-0.9,9.2c-1.6,16.3-2,19.9-1.9,24.6c0,1.1,0.1,2.3,0.1,3.8l-0.4,0.1
					c-0.4-0.7-0.8-1.1-1-3.7c-0.2-3.2-0.1-9.9,0.8-24.8c0.2-3.9,0.5-6.9,0.7-9.4c1.1-10.5,2-12,1-31.1h2.4
					C35.4,20.9,35.2,24.3,33.8,38.1z"/>
			</g>
			<g>
				<path class="st8" d="M10.5,72.1c-0.2,2.5-0.6,3-1,3.6l-0.4-0.1c0.1-1.5,0.1-2.7,0.1-3.8c0.1-4.7-0.3-8.2-1.9-24.6
					c-0.4-3.5-0.7-6.5-0.9-9.2C5.1,24.3,4.9,20.9,5.6,6.7H8C7,25.9,8,27.3,9,37.8c0.2,2.5,0.5,5.5,0.7,9.4
					C10.7,62.2,10.8,68.9,10.5,72.1z"/>
			</g>
			<path class="st9" d="M9.3,78.2c1.7,3.8,0.6,3.5,5.6,3.6c5.5,0.1,6.3,0.1,8.2,0.1c-2.4,0.8-5.7,1-8.2,0.9
				C10.6,82.9,9.5,82.8,9.3,78.2z"/>
		</g>
	</g>
</g>
<g>
	<circle id="path1269" class="st10" cx="32.3" cy="7.5" r="7.5"/>
	<text transform="matrix(1 0 0 1 28.5018 12.2563)" class="st11 st12 st13">1</text>
</g>
</svg>
