<?xml version="1.0" encoding="utf-8"?>
<!-- Generator: Adobe Illustrator 24.1.1, SVG Export Plug-In . SVG Version: 6.00 Build 0)  -->
<svg version="1.1" id="Layer_1" xmlns="http://www.w3.org/2000/svg" xmlns:xlink="http://www.w3.org/1999/xlink" x="0px" y="0px"
	 viewBox="0 0 40 80.1" style="enable-background:new 0 0 40 80.1;" xml:space="preserve">
<style type="text/css">
	.st0{fill:#E4EBF1;}
	.st1{fill:#F8F9E9;}
	.st2{fill:#CCCCCC;}
	.st3{opacity:0.5;fill:#F8F9E9;enable-background:new    ;}
	.st4{fill:#3E000D;}
	.st5{fill:#530016;}
	.st6{fill:#2B0009;}
	.st7{opacity:0.3;fill:#FFFFFF;enable-background:new    ;}
	.st8{fill:#7D2F47;}
	.st9{fill:#0080FF;}
	.st10{fill:#EBEBEB;}
	.st11{font-family:'SegoeUI-Bold';}
	.st12{font-size:13.3354px;}
</style>
<g id="Layer_2_1_">
	<g id="Layer_1-2">
		<path class="st0" d="M33.1,77c0,1.3-5.9,2.4-13.1,2.4S6.9,78.3,6.9,77c0-0.1,0-0.3,0-0.4c0.4-0.7,2-1.2,4.9-1.8
			c2.2-0.4,4.3-1.7,7.2-1.7c6.6,0,10.8,2.4,14,3.4C33.1,76.7,33.1,76.9,33.1,77z"/>
		<path class="st1" d="M25.6,73.8L25.6,73.8l-0.3-0.1l0,0c-1.6-0.7-3-1.6-3.5-2.6c-1.1-2.2-1.4-19.7,0.5-23.4h-4.6
			c2,3.7,1.6,21.2,0.5,23.4c-0.5,0.9-1.6,1.8-3,2.4c-0.4,0.2-0.8,0.4-1.2,0.5c-0.4,0.2-0.6,0.5-0.6,0.8c0,1.1,2.9,2,6.6,2
			s6.6-0.9,6.6-2C26.6,74.4,26.2,74.1,25.6,73.8z M18.9,49c-0.1-0.2-0.1-0.5,0-0.7c0.2-0.3,2.1-0.4,2.3,0c0.1,0.3,0,0.7-0.1,0.7
			c-0.1,0-0.3,0.1-0.4,0.3c-0.1,4.6-0.2,14.3,0,22.2c0,0.3-0.2,0.6-0.6,0.6c0,0,0,0,0,0h-0.2c-0.3,0-0.6-0.3-0.6-0.6c0,0,0,0,0,0
			c0.2-7.9,0.1-17.6,0-22.2C19.3,49.2,19.1,49.2,18.9,49z"/>
		<path class="st2" d="M31.7,6.8h-1.4c0.4,1.7,1.1,5.5,2.3,13.3c3,18.5-6.5,25.3-12.5,25.3S4.3,38.5,7.7,20.1
			C8.4,16.3,9.2,9.6,9.6,6.8H8.2c0,0-3.5,13.7-3.2,22.3c0.5,15,11.4,16.8,12.5,18.4c0.1,0.1,0.1,0.2,0.1,0.2h4.6
			c0-0.1,0.1-0.2,0.1-0.2c1.1-1.6,12.1-3.3,12.6-18.3C35.3,20.5,31.7,6.8,31.7,6.8z M20,47.6c-0.3,0-0.5,0-0.8-0.1
			c0.3-0.1,0.6-0.1,0.8,0c0.3,0,0.5,0,0.8,0C20.6,47.6,20.3,47.7,20,47.6z M20,47.2c-0.5,0-0.9,0-1.4-0.2c0.4-0.1,0.9-0.1,1.4-0.1
			c0.5,0,0.9,0,1.4,0.1C20.9,47.1,20.5,47.2,20,47.2z M20,46.7c-1.3,0-2.5-0.3-2.3-0.3c0.8-0.2,1.6-0.2,2.4-0.2
			c0.8-0.1,1.6,0,2.3,0.2C22.5,46.4,21.3,46.7,20,46.7z"/>
		<path class="st2" d="M32.5,75.9c-0.8-0.4-1.7-0.7-2.6-0.9l-0.2,0c-2.9-0.6-7-2-7.9-4c-1.1-2.2-1.4-19.7,0.5-23.4h-4.6
			c2,3.7,1.6,21.2,0.5,23.4c-0.8,1.7-4,3-6.7,3.7l0,0c-0.8,0.1-1.6,0.3-2.4,0.5H9.1c-0.6,0.1-1.1,0.3-1.6,0.6
			c-0.4,0.2-0.6,0.5-0.6,0.7c0,1.1,4.2,2,9.9,2.3c0.5,0,1,0,1.5,0.1c0.5,0,1.1,0,1.7,0h1.4H22c1.1,0,2.2-0.1,3.2-0.2l0.5,0l1-0.1
			c3.8-0.4,6.4-1.2,6.4-2C33.1,76.4,32.9,76.1,32.5,75.9z M18.8,49c-0.1-0.2-0.1-0.5,0-0.7c0.2-0.3,2.1-0.4,2.3,0
			c0.1,0.3,0,0.7-0.1,0.7c-0.1,0-0.3,0.1-0.4,0.3c-0.1,4.6-0.2,14.3,0,22.2c0,0.3-0.2,0.6-0.6,0.6c0,0,0,0,0,0h-0.2
			c-0.3,0-0.6-0.3-0.6-0.6c0,0,0,0,0,0c0.2-7.9,0.1-17.6,0-22.2C19.3,49.2,19.1,49.2,18.8,49L18.8,49z M20,78.4
			c-5.3,0-9.6-1.1-9.6-2.4c0-0.4,0.3-0.7,0.9-1c0.6-0.3,1.1-0.5,1.7-0.6c2.3-0.5,4.6-0.8,6.9-0.7c2.6-0.1,5.1,0.3,7.6,0.9l0,0
			l0.4,0.1l0,0c0.9,0.4,1.5,0.8,1.5,1.2C29.5,77.4,25.3,78.4,20,78.4z"/>
		<path class="st3" d="M22.4,46.3c-0.8,0.3-1.6,0.4-2.3,0.3c-1.3,0-2.5-0.3-2.4-0.3c0.8-0.2,1.6-0.2,2.4-0.1
			C20.8,46.1,21.6,46.2,22.4,46.3z M20,46.9c-0.5,0-0.9,0-1.4,0.1c0.4,0.2,0.9,0.2,1.4,0.2c0.5,0,0.9,0,1.4-0.2
			C21,46.9,20.5,46.9,20,46.9z M20,47.5c-0.3,0-0.5,0-0.8,0c0.3,0.1,0.5,0.1,0.8,0.1c0.3,0,0.5,0,0.8-0.1
			C20.6,47.5,20.3,47.4,20,47.5z"/>
		<path class="st0" d="M20,45.4c-6.1,0-15.7-6.9-12.3-25.3C8.4,16.3,9.2,9.6,9.6,6.8h20.7c0.4,1.7,1.1,5.5,2.3,13.3
			C35.5,38.6,26.1,45.4,20,45.4z"/>
		<path class="st0" d="M21.1,48.3c-0.2-0.4-2.1-0.4-2.3,0c-0.1,0.2-0.1,0.5,0,0.7c0.2,0.1,0.4,0.2,0.4,0.4c0.1,4.6,0.2,14.2,0,22.2
			c0,0.3,0.3,0.6,0.6,0.6c0,0,0,0,0,0H20c0.3,0,0.6-0.3,0.6-0.6c0,0,0,0,0,0c-0.1-7.9-0.1-17.6,0-22.2c0-0.2,0.2-0.3,0.4-0.3
			C21.2,49,21.3,48.6,21.1,48.3z"/>
		<path class="st2" d="M25.6,73.8L25.6,73.8l-0.3-0.1l0,0c-1.6-0.7-3-1.6-3.5-2.6c-1.1-2.2-1.4-19.7,0.5-23.4h-4.6
			c2,3.7,1.6,21.2,0.5,23.4c-0.5,0.9-1.6,1.8-3,2.4c-0.4,0.1-0.8,0.3-1.2,0.5c-0.4,0.3-0.6,0.5-0.6,0.8c0,1.1,2.9,2,6.6,2
			s6.6-0.9,6.6-2C26.6,74.4,26.2,74.1,25.6,73.8z M18.9,49c-0.1-0.2-0.1-0.5,0-0.7c0.2-0.3,2.1-0.4,2.3,0c0.1,0.3,0,0.7-0.1,0.7
			c-0.1,0-0.3,0.1-0.4,0.3c-0.1,4.6-0.2,14.3,0,22.2c0,0.3-0.2,0.6-0.6,0.6c0,0,0,0,0,0h-0.2c-0.3,0-0.6-0.3-0.6-0.6c0,0,0,0,0,0
			c0.2-7.9,0.1-17.6,0-22.2C19.3,49.2,19.1,49.2,18.9,49z"/>
		<path class="st4" d="M20,45.4c-5.6,0-13-5.6-13-17.3c0-0.4,6.1-0.7,13.2-0.7c7,0,12.5,0.3,12.9,0.7C32.8,39.9,25.8,45.4,20,45.4z"
			/>
		<path class="st5" d="M20,44.4c-2.6-0.1-5.1-1-7-2.6c-2.1-1.8-4-5-3.2-10.7c0.1-0.4,0.7-0.7,1.4-0.7c2,0.2,4.8,0.2,9,0.2
			s7.1-0.1,9.2-0.2c0.7,0,1.3,0.3,1.4,0.7c0.6,5.8-1.6,9-3.7,10.8C25,43.4,22.6,44.3,20,44.4z"/>
		<path class="st6" d="M23.9,44.5c-1.2,0.5-2.6,0.8-3.9,0.9c-1.4,0-2.7-0.3-3.9-0.9c1.2-0.5,2.6-0.8,3.9-0.7
			C21.4,43.7,22.7,44,23.9,44.5z"/>
		<path class="st7" d="M16.2,43.6l3-0.5c-4.6-3.3-8.4-10.5-6-23.1c0.7-3.7,1.5-10.4,1.9-13.3h-3.4c-0.4,2.9-1.2,9.6-1.9,13.3
			C7.4,32.7,11.3,40.5,16.2,43.6z"/>
		<path class="st7" d="M27.3,20.8l3.4-0.4c0-0.1,0-0.2-0.1-0.4C30,16.3,29.1,9.6,28.8,6.8h-3.4C25.8,9.9,26.9,17,27.3,20.8z"/>
		<path class="st8" d="M33.1,28.1c0.2,0.3-5.9,0.7-13,0.7S7,28.5,7,28.1s6-0.8,13.2-0.8C27.1,27.3,32.9,27.7,33.1,28.1z"/>
	</g>
</g>
<g>
	<circle id="path1269" class="st9" cx="32.2" cy="7.5" r="7.5"/>
	<text transform="matrix(1 0 0 1 28.3077 12.2563)" class="st10 st11 st12">1</text>
</g>
</svg>
