<svg xmlns="http://www.w3.org/2000/svg" viewBox="0 0 47.95 118.18"><defs><style>.cls-1{isolation:isolate;}.cls-2{fill:#e4ebf1;}.cls-3{fill:none;}.cls-4{fill:#f1b20f;}.cls-5{fill:#fff1da;}.cls-6{fill:#b2b2b2;}.cls-7{mix-blend-mode:multiply;}.cls-8{fill:#f2f2f2;}.cls-9{opacity:0.3;}.cls-10,.cls-12{fill:#fff;}.cls-11{fill:#ccc;}.cls-12{opacity:0.8;}</style></defs><g class="cls-1"><g id="Layer_2" data-name="Layer 2"><g id="Layer_1-2" data-name="Layer 1"><path class="cls-2" d="M47.6,6.78c-.17-4-.32-6.78-.32-6.78H.67S.51,2.78.35,6.79C.11,12.56-.13,20.87.08,27.12.21,30.84,1,39.18,1.9,48.8,3.63,66.54,6,88.62,6.11,94.07c0,1.46,0,3.06,0,4.7-.14,7.86-.87,16.83-.87,16.83,1.11,1.45,11.94,2.58,18.73,2.58s17.62-1.13,18.72-2.58c0,0-.73-9-.87-16.84,0-1.64,0-3.24,0-4.69.14-5.45,2.48-27.53,4.21-45.27.94-9.62,1.69-18,1.82-21.68C48.08,20.87,47.84,12.55,47.6,6.78ZM44.46,48.62c-.39,3.94-.85,8.44-1.38,13.72-2.44,24.47-3,29.79-2.87,36.79,0,1.7.11,3.51.21,5.71l-.55.15c-.58-1-1.19-1.64-1.48-5.47a66.14,66.14,0,0,1-28.8,0C9.31,103.35,8.7,104,8.12,105l-.55-.15c.09-2.19.17-4,.2-5.69.14-7-.42-12.31-2.87-36.81-.53-5.29-1-9.79-1.38-13.73-2.09-20.72-2.37-25.82-1.28-47H5.79C4.31,30.3,5.76,32.44,7.34,48.2a178.1,178.1,0,0,1,33.3,0c1.58-15.78,3-17.91,1.55-46.61h3.56C46.83,22.8,46.56,27.89,44.46,48.62Z"/><path class="cls-2" d="M44.46,48.62c-.39,3.94-.85,8.44-1.38,13.72-2.44,24.47-3,29.79-2.87,36.79,0,1.7.11,3.51.21,5.71l-.55.15c-.58-1-1.19-1.64-1.48-5.47a66.14,66.14,0,0,1-28.8,0C9.31,103.35,8.7,104,8.12,105l-.55-.15c.09-2.19.17-4,.2-5.69.14-7-.42-12.31-2.87-36.81-.53-5.29-1-9.79-1.38-13.73-2.09-20.72-2.37-25.82-1.28-47H5.79C4.31,30.3,5.76,32.44,7.34,48.2a178.1,178.1,0,0,1,33.3,0c1.58-15.78,3-17.91,1.55-46.61h3.56C46.83,22.8,46.56,27.89,44.46,48.62Z"/><path class="cls-3" d="M43.79,55.34a131,131,0,0,0-39.59,0h0C1.48,28.93,1,25,2.2,1.61H45.75C47,24.94,46.48,28.84,43.79,55.34Z"/><path class="cls-4" d="M43.78,55.34c0,.36-.07.73-.1,1.1,0,.21,0,.42-.07.63q-.16,1.6-.33,3.33c-.07.63-.13,1.28-.2,1.94-2.44,24.47-3,29.79-2.87,36.79,0,1.71.11,3.51.21,5.71-12.86,3.7-21,3.46-32.89,0,.51-11.39.35-12.32-2.66-42.5q-.37-3.75-.71-7h0A131,131,0,0,1,43.78,55.34Z"/><path class="cls-4" d="M43.28,60.4q.16-1.73.33-3.33C43.51,58.14,43.39,59.25,43.28,60.4Z"/><path class="cls-4" d="M43.79,55.34c0,.36-.07.73-.11,1.1,0-.37.07-.74.1-1.1Z"/><path class="cls-5" d="M44.46,48.62c-.21,2.07-.43,4.3-.67,6.72h0a131,131,0,0,0-39.58,0c-.25-2.42-.47-4.65-.68-6.73,1.27-.15,2.55-.29,3.82-.41a178.1,178.1,0,0,1,33.3,0C41.91,48.33,43.18,48.46,44.46,48.62Z"/><path class="cls-6" d="M38.86,105.27c-11.52,3.11-19.38,2.9-29.79,0C15,103,32.89,103,38.86,105.27Z"/><g class="cls-7"><path class="cls-8" d="M36.35,105.9c.63,5.07,1.82,7.78-.1,8.28-4.55,1.2-4.32-2.4-5.73-7.15-.7-26.94-2.45-62.36-2.68-105.39H39.26C40.07,45.08,35.31,68.53,36.35,105.9Z"/></g><g class="cls-9"><path class="cls-10" d="M23.5,63.05c-2.38,37.39-2.07,33.29-1.83,44.42.11,5.33-1.38,7.31-5.18,7.31-2.41,0-3.33-2-3.21-8.46C13.56,89.56,9.51,42.54,9.13,26,9,18.35,9.2,7.77,9.38,1.61H25.49C26.12,24.77,25.84,26.32,23.5,63.05Z"/></g><g class="cls-7"><path class="cls-11" d="M44.46,48.62c-.39,3.94-.85,8.44-1.38,13.72-2.44,24.47-3,29.79-2.87,36.79,0,1.7.11,3.51.21,5.71l-.55.15c-.58-1-1.19-1.64-1.48-5.47-.36-4.84-.21-14.8,1.14-37.18.35-5.84.74-10.37,1.11-14.12,1.58-15.78,3-17.91,1.55-46.61h3.56C46.83,22.8,46.56,27.89,44.46,48.62Z"/></g><g class="cls-7"><path class="cls-11" d="M9.59,99.54C9.31,103.35,8.7,104,8.12,105l-.55-.15c.09-2.19.17-4,.2-5.69.14-7-.42-12.31-2.87-36.81-.53-5.29-1-9.79-1.38-13.73-2.09-20.72-2.37-25.82-1.28-47H5.79C4.31,30.3,5.76,32.44,7.34,48.2c.37,3.75.76,8.29,1.11,14.14C9.8,84.75,10,94.71,9.59,99.54Z"/></g><path class="cls-12" d="M7.79,108.75c2.54,5.75.85,5.23,8.43,5.41,8.17.17,9.39.21,12.34.21C25,115.52,20,115.8,16.2,115.77,9.76,115.7,8,115.65,7.79,108.75Z"/></g></g></g></svg>