<?xml version="1.0" encoding="utf-8"?>
<!-- Generator: Adobe Illustrator 24.1.1, SVG Export Plug-In . SVG Version: 6.00 Build 0)  -->
<svg version="1.1" id="Layer_1" xmlns="http://www.w3.org/2000/svg" xmlns:xlink="http://www.w3.org/1999/xlink" x="0px" y="0px"
	 viewBox="0 0 70.1 129.4" style="enable-background:new 0 0 70.1 129.4;" xml:space="preserve">
<style type="text/css">
	.st0{fill:#E4EBF1;}
	.st1{fill:none;}
	.st2{fill:#F1B20F;}
	.st3{fill:#FFF1DA;}
	.st4{fill:#B2B2B2;}
	.st5{fill:#F2F2F2;}
	.st6{opacity:0.3;}
	.st7{fill:#FFFFFF;}
	.st8{fill:#CCCCCC;}
	.st9{opacity:0.8;fill:#FFFFFF;enable-background:new    ;}
	.st10{fill:#0080FF;}
	.st11{fill:#EBEBEB;}
	.st12{font-family:'SegoeUI-Bold';}
	.st13{font-size:20px;}
</style>
<g>
	<g id="Layer_2_1_">
		<g id="Layer_1-2">
			<path class="st0" d="M58.5,18c-0.2-4-0.3-6.8-0.3-6.8H11.6c0,0-0.2,2.8-0.3,6.8C11,23.8,10.8,32.1,11,38.4
				c0.1,3.7,0.9,12.1,1.8,21.7c1.7,17.7,4.1,39.8,4.2,45.3c0,1.5,0,3.1,0,4.7c-0.1,7.9-0.9,16.8-0.9,16.8c1.1,1.4,11.9,2.6,18.7,2.6
				s17.6-1.1,18.7-2.6c0,0-0.7-9-0.9-16.8c0-1.6,0-3.2,0-4.7c0.1-5.4,2.5-27.5,4.2-45.3c0.9-9.6,1.7-18,1.8-21.7
				C59,32.1,58.7,23.8,58.5,18z M55.4,59.9c-0.4,3.9-0.8,8.4-1.4,13.7c-2.4,24.5-3,29.8-2.9,36.8c0,1.7,0.1,3.5,0.2,5.7l-0.5,0.2
				c-0.6-1-1.2-1.6-1.5-5.5c-9.5,2.1-19.3,2.1-28.8,0c-0.3,3.8-0.9,4.5-1.5,5.5l-0.5-0.2c0.1-2.2,0.2-4,0.2-5.7
				c0.1-7-0.4-12.3-2.9-36.8c-0.5-5.3-1-9.8-1.4-13.7c-2.1-20.7-2.4-25.8-1.3-47h3.6c-1.5,28.7,0,30.8,1.6,46.6
				c11.1-1,22.2-1,33.3,0c1.6-15.8,3-17.9,1.5-46.6h3.6C57.7,34,57.5,39.1,55.4,59.9z"/>
			<path class="st0" d="M55.4,59.9c-0.4,3.9-0.8,8.4-1.4,13.7c-2.4,24.5-3,29.8-2.9,36.8c0,1.7,0.1,3.5,0.2,5.7l-0.5,0.2
				c-0.6-1-1.2-1.6-1.5-5.5c-9.5,2.1-19.3,2.1-28.8,0c-0.3,3.8-0.9,4.5-1.5,5.5l-0.5-0.2c0.1-2.2,0.2-4,0.2-5.7
				c0.1-7-0.4-12.3-2.9-36.8c-0.5-5.3-1-9.8-1.4-13.7c-2.1-20.7-2.4-25.8-1.3-47h3.6c-1.5,28.7,0,30.8,1.6,46.6
				c11.1-1,22.2-1,33.3,0c1.6-15.8,3-17.9,1.5-46.6h3.6C57.7,34,57.5,39.1,55.4,59.9z"/>
			<path class="st1" d="M54.7,66.6c-13.1-2-26.5-2-39.6,0l0,0c-2.7-26.4-3.2-30.3-2-53.7h43.6C57.9,36.2,57.4,40.1,54.7,66.6z"/>
			<path class="st2" d="M54.7,66.6c0,0.4-0.1,0.7-0.1,1.1c0,0.2,0,0.4-0.1,0.6c-0.1,1.1-0.2,2.2-0.3,3.3c-0.1,0.6-0.1,1.3-0.2,1.9
				c-2.4,24.5-3,29.8-2.9,36.8c0,1.7,0.1,3.5,0.2,5.7c-12.9,3.7-21,3.5-32.9,0c0.5-11.4,0.3-12.3-2.7-42.5c-0.2-2.5-0.5-4.8-0.7-7
				l0,0C28.2,64.6,41.6,64.6,54.7,66.6z"/>
			<path class="st2" d="M54.2,71.7c0.1-1.2,0.2-2.3,0.3-3.3C54.4,69.4,54.3,70.5,54.2,71.7z"/>
			<path class="st2" d="M54.7,66.6c0,0.4-0.1,0.7-0.1,1.1C54.6,67.3,54.7,66.9,54.7,66.6L54.7,66.6z"/>
			<path class="st3" d="M55.4,59.9c-0.2,2.1-0.4,4.3-0.7,6.7l0,0c-13.1-2-26.5-2-39.6,0c-0.3-2.4-0.5-4.6-0.7-6.7
				c1.3-0.2,2.6-0.3,3.8-0.4c11.1-1,22.2-1,33.3,0C52.8,59.6,54.1,59.7,55.4,59.9z"/>
			<path class="st4" d="M49.8,116.5c-11.5,3.1-19.4,2.9-29.8,0C25.9,114.3,43.8,114.3,49.8,116.5z"/>
			<g>
				<path class="st5" d="M47.3,117.2c0.6,5.1,1.8,7.8-0.1,8.3c-4.5,1.2-4.3-2.4-5.7-7.2C40.7,91.3,39,55.9,38.7,12.9h11.4
					C51,56.3,46.2,79.8,47.3,117.2z"/>
			</g>
			<g class="st6">
				<path class="st7" d="M34.4,74.3c-2.4,37.4-2.1,33.3-1.8,44.4c0.1,5.3-1.4,7.3-5.2,7.3c-2.4,0-3.3-2-3.2-8.5
					c0.3-16.8-3.8-63.8-4.1-80.3c-0.1-7.6,0.1-18.2,0.3-24.4h16.1C37,36,36.7,37.6,34.4,74.3z"/>
			</g>
			<g>
				<path class="st8" d="M55.4,59.9c-0.4,3.9-0.8,8.4-1.4,13.7c-2.4,24.5-3,29.8-2.9,36.8c0,1.7,0.1,3.5,0.2,5.7l-0.5,0.2
					c-0.6-1-1.2-1.6-1.5-5.5c-0.4-4.8-0.2-14.8,1.1-37.2c0.3-5.8,0.7-10.4,1.1-14.1c1.6-15.8,3-17.9,1.5-46.6h3.6
					C57.7,34,57.5,39.1,55.4,59.9z"/>
			</g>
			<g>
				<path class="st8" d="M20.5,110.8c-0.3,3.8-0.9,4.5-1.5,5.5l-0.5-0.2c0.1-2.2,0.2-4,0.2-5.7c0.1-7-0.4-12.3-2.9-36.8
					c-0.5-5.3-1-9.8-1.4-13.7c-2.1-20.7-2.4-25.8-1.3-47h3.6c-1.5,28.7,0,30.8,1.6,46.6c0.4,3.8,0.8,8.3,1.1,14.1
					C20.7,96,20.9,106,20.5,110.8z"/>
			</g>
			<path class="st9" d="M18.7,120c2.5,5.8,0.9,5.2,8.4,5.4c8.2,0.2,9.4,0.2,12.3,0.2c-3.6,1.1-8.6,1.4-12.4,1.4
				C20.7,126.9,18.9,126.9,18.7,120z"/>
		</g>
	</g>
</g>
<g>
	<circle id="path1269" class="st10" cx="58.8" cy="11.2" r="11.2"/>
	<text transform="matrix(1 0 0 1 53.0772 18.3819)" class="st11 st12 st13">1</text>
</g>
</svg>
