<?xml version="1.0" encoding="utf-8"?>
<!-- Generator: Adobe Illustrator 24.1.1, SVG Export Plug-In . SVG Version: 6.00 Build 0)  -->
<svg version="1.1" id="Layer_1" xmlns="http://www.w3.org/2000/svg" xmlns:xlink="http://www.w3.org/1999/xlink" x="0px" y="0px"
	 viewBox="0 0 55.9 111.6" style="enable-background:new 0 0 55.9 111.6;" xml:space="preserve">
<style type="text/css">
	.st0{fill:#E4EBF1;}
	.st1{fill:#F8F9E9;}
	.st2{fill:#CCCCCC;}
	.st3{opacity:0.5;fill:#F8F9E9;enable-background:new    ;}
	.st4{fill:#3E000D;}
	.st5{fill:#530016;}
	.st6{fill:#2B0009;}
	.st7{opacity:0.3;fill:#FFFFFF;enable-background:new    ;}
	.st8{fill:#7D2F47;}
	.st9{fill:#0080FF;}
	.st10{fill:#EBEBEB;}
	.st11{font-family:'SegoeUI-Bold';}
	.st12{font-size:20px;}
</style>
<g id="Layer_2_1_">
	<g id="Layer_1-2">
		<path class="st0" d="M47.6,108.1c0,1.9-8.6,3.5-19.2,3.5S9.2,110,9.2,108.1c0-0.1,0-0.4,0-0.6c0.6-1,2.9-1.8,7.2-2.6
			c3.2-0.6,6.3-2.4,10.6-2.4c9.7,0,15.9,3.5,20.6,4.9C47.6,107.7,47.6,107.9,47.6,108.1z"/>
		<path class="st1" d="M36.6,103.4L36.6,103.4l-0.4-0.2l0,0c-2.4-1-4.4-2.3-5.1-3.8c-1.6-3.2-2.1-28.8,0.8-34.2h-6.7
			c2.9,5.4,2.4,31,0.8,34.2c-0.7,1.3-2.4,2.6-4.4,3.5c-0.6,0.3-1.2,0.5-1.8,0.8s-0.9,0.8-0.9,1.2c0,1.6,4.3,2.9,9.7,2.9
			s9.6-1.3,9.6-2.9C38.1,104.4,37.5,103.8,36.6,103.4z M26.8,67.1c-0.2-0.3-0.2-0.7,0-1.1c0.2-0.5,3.1-0.5,3.4,0
			c0.2,0.4,0.1,1-0.1,1.1c-0.2,0.1-0.5,0.2-0.5,0.5c-0.2,6.7-0.3,20.9,0,32.5c0,0.5-0.4,0.8-0.8,0.8c0,0,0,0,0,0h-0.3
			c-0.5,0-0.8-0.4-0.8-0.8c0,0,0,0,0,0c0.3-11.6,0.1-25.7,0-32.5C27.3,67.4,27.1,67.3,26.8,67.1z"/>
		<path class="st2" d="M45.6,5.2h-2.1c0.5,2.5,1.5,8,3.4,19.5c4.3,27.1-9.5,37.1-18.4,37.1S5.4,51.8,10.4,24.7
			c1-5.5,2.3-15.3,2.8-19.5h-2c0,0-5.1,20-4.7,32.6c0.7,22,16.8,24.6,18.4,27c0.1,0.1,0.1,0.2,0.2,0.3h6.7c0.1-0.1,0.1-0.3,0.2-0.3
			C33.6,62.5,49.6,60,50.4,38C50.8,25.4,45.6,5.2,45.6,5.2z M28.4,65.1c-0.4,0-0.8,0-1.2-0.2c0.4-0.1,0.8-0.1,1.2-0.1
			c0.4,0,0.8,0,1.2,0.1C29.2,65.1,28.8,65.1,28.4,65.1z M28.4,64.4c-0.7,0.1-1.4,0-2-0.3c0.7-0.1,1.3-0.2,2-0.1c0.7,0,1.3,0,2,0.1
			C29.8,64.4,29.1,64.5,28.4,64.4z M28.4,63.7c-1.9,0-3.7-0.4-3.4-0.5c1.1-0.2,2.3-0.3,3.5-0.2c1.1-0.1,2.3,0,3.4,0.2
			C32.1,63.3,30.3,63.7,28.4,63.7z"/>
		<path class="st2" d="M46.7,106.5c-1.2-0.6-2.5-1-3.8-1.3l-0.3-0.1c-4.2-0.9-10.2-2.9-11.6-5.8c-1.6-3.2-2.1-28.8,0.8-34.2h-6.7
			c2.9,5.4,2.4,31.1,0.8,34.3c-1.2,2.4-5.9,4.4-9.8,5.5l0,0c-1.2,0.2-2.3,0.4-3.5,0.7h-0.1c-0.8,0.2-1.6,0.5-2.4,0.9
			c-0.6,0.3-0.9,0.7-0.9,1c0,1.6,6.2,3,14.5,3.4c0.7,0,1.5,0.1,2.2,0.1s1.6,0,2.4,0h2h1c1.7,0,3.3-0.1,4.8-0.3l0.7-0.1l1.5-0.1
			c5.6-0.6,9.3-1.7,9.3-3C47.6,107.2,47.3,106.8,46.7,106.5z M26.7,67.1c-0.2-0.3-0.2-0.7,0-1.1c0.2-0.5,3.1-0.5,3.4,0
			c0.2,0.4,0.1,1-0.1,1.1c-0.2,0.1-0.5,0.2-0.5,0.5c-0.2,6.7-0.3,20.9,0,32.5c0,0.5-0.4,0.8-0.8,0.9c0,0,0,0,0,0h-0.3
			c-0.5,0-0.8-0.4-0.8-0.8c0,0,0,0,0,0c0.3-11.6,0.1-25.7,0-32.5C27.3,67.4,27.1,67.3,26.7,67.1L26.7,67.1z M28.5,110.3
			c-7.7,0-14-1.6-14-3.5c0-0.5,0.5-1,1.3-1.5c0.8-0.4,1.7-0.7,2.5-0.9c3.3-0.8,6.7-1.1,10.1-1.1c3.7-0.1,7.5,0.4,11.1,1.4l0,0
			l0.6,0.2l0,0c1.4,0.5,2.2,1.2,2.2,1.8C42.4,108.7,36.1,110.3,28.5,110.3z"/>
		<path class="st3" d="M31.9,63.2c-1.1,0.4-2.3,0.6-3.4,0.5c-1.9,0-3.7-0.4-3.5-0.5c1.2-0.2,2.3-0.3,3.5-0.2
			C29.6,62.9,30.7,63,31.9,63.2z M28.5,64c-0.7,0-1.3,0-2,0.1c0.6,0.2,1.3,0.3,2,0.3c0.7,0,1.4-0.1,2-0.3C29.8,64,29.1,64,28.5,64z
			 M28.5,64.9c-0.4,0-0.8,0-1.2,0.1c0.4,0.1,0.8,0.2,1.2,0.2c0.4,0,0.8,0,1.2-0.2C29.3,64.9,28.9,64.8,28.5,64.9z"/>
		<path class="st0" d="M28.5,61.8c-8.9,0-23-10.1-18.1-37.1c1-5.5,2.2-15.3,2.7-19.5h30.3c0.5,2.5,1.5,8,3.4,19.5
			C51.2,51.9,37.3,61.8,28.5,61.8z"/>
		<path class="st0" d="M30.1,66.1c-0.3-0.6-3.1-0.5-3.4,0c-0.2,0.3-0.2,0.7,0,1.1c0.3,0.2,0.6,0.3,0.6,0.6c0.2,6.7,0.3,20.9,0,32.5
			c0,0.5,0.4,0.9,0.8,0.9c0,0,0,0,0,0h0.3c0.5,0,0.8-0.4,0.8-0.8c0,0,0,0,0,0c-0.2-11.6-0.1-25.8,0-32.5c0-0.3,0.3-0.4,0.5-0.5
			C30.2,67.1,30.3,66.5,30.1,66.1z"/>
		<path class="st2" d="M36.6,103.4L36.6,103.4l-0.4-0.2l0,0c-2.4-1-4.4-2.3-5.1-3.8c-1.6-3.2-2.1-28.8,0.8-34.2h-6.7
			c2.9,5.4,2.4,31,0.8,34.2c-0.7,1.3-2.4,2.6-4.4,3.5c-0.6,0.2-1.2,0.4-1.8,0.8c-0.6,0.4-0.9,0.8-0.9,1.2c0,1.6,4.3,2.9,9.7,2.9
			s9.6-1.3,9.6-2.9C38.1,104.4,37.5,103.8,36.6,103.4z M26.8,67.1c-0.2-0.3-0.2-0.7,0-1.1c0.2-0.5,3.1-0.5,3.4,0
			c0.2,0.4,0.1,1-0.1,1.1c-0.2,0.1-0.5,0.2-0.5,0.5c-0.2,6.7-0.3,20.9,0,32.5c0,0.5-0.4,0.8-0.8,0.8c0,0,0,0,0,0h-0.3
			c-0.5,0-0.8-0.4-0.8-0.8c0,0,0,0,0,0c0.3-11.6,0.1-25.7,0-32.5C27.3,67.4,27.1,67.3,26.8,67.1z"/>
		<path class="st4" d="M28.5,61.8c-8.2,0-19.1-8.2-19.1-25.3c0-0.6,8.9-1.1,19.4-1.1c10.2,0,18.2,0.4,18.9,1
			C47.2,53.7,37,61.8,28.5,61.8z"/>
		<path class="st5" d="M28.5,60.3c-3.8-0.1-7.4-1.5-10.3-3.9c-3.1-2.6-5.9-7.4-4.7-15.7c0.1-0.6,1-1,2-1c2.9,0.2,7,0.3,13.2,0.3
			s10.4-0.1,13.4-0.3c1-0.1,1.9,0.4,2,1c0.9,8.4-2.3,13.2-5.5,15.8C35.8,59,32.2,60.3,28.5,60.3z"/>
		<path class="st6" d="M34.2,60.6c-1.8,0.8-3.7,1.2-5.7,1.3c-2,0-3.9-0.5-5.8-1.3c1.8-0.8,3.8-1.2,5.8-1.1
			C30.4,59.4,32.4,59.8,34.2,60.6z"/>
		<path class="st7" d="M22.9,59.3l4.4-0.7c-6.7-4.8-12.2-15.3-8.8-33.8c1-5.5,2.3-15.3,2.8-19.5h-5c-0.5,4.2-1.8,14-2.8,19.5
			C10,43.3,15.7,54.6,22.9,59.3z"/>
		<path class="st7" d="M39.2,25.9l5-0.6c0-0.2-0.1-0.4-0.1-0.5c-1-5.5-2.3-15.3-2.8-19.5h-5C36.8,9.9,38.5,20.3,39.2,25.9z"/>
		<path class="st8" d="M47.6,36.5c0.2,0.4-8.7,1-19,1S9.4,37,9.4,36.5c0-0.6,8.8-1.1,19.3-1.1C38.9,35.4,47.3,35.9,47.6,36.5z"/>
	</g>
</g>
<g>
	<circle id="path1269" class="st9" cx="44.6" cy="11.2" r="11.2"/>
	<text transform="matrix(1 0 0 1 38.8339 18.3819)" class="st10 st11 st12">1</text>
</g>
</svg>
