<?xml version="1.0" encoding="UTF-8" standalone="no"?>
<!-- Generator: Adobe Illustrator 24.1.1, SVG Export Plug-In . SVG Version: 6.00 Build 0)  -->

<svg
   xmlns:dc="http://purl.org/dc/elements/1.1/"
   xmlns:cc="http://creativecommons.org/ns#"
   xmlns:rdf="http://www.w3.org/1999/02/22-rdf-syntax-ns#"
   xmlns:svg="http://www.w3.org/2000/svg"
   xmlns="http://www.w3.org/2000/svg"
   xmlns:sodipodi="http://sodipodi.sourceforge.net/DTD/sodipodi-0.dtd"
   xmlns:inkscape="http://www.inkscape.org/namespaces/inkscape"
   version="1.1"
   id="Layer_1"
   x="0px"
   y="0px"
   viewBox="0 0 40 80.000002"
   xml:space="preserve"
   sodipodi:docname="Halfglasswine.svg"
   width="40"
   height="80"
   inkscape:version="0.92.4 (5da689c313, 2019-01-14)"><metadata
   id="metadata44"><rdf:RDF><cc:Work
       rdf:about=""><dc:format>image/svg+xml</dc:format><dc:type
         rdf:resource="http://purl.org/dc/dcmitype/StillImage" /><dc:title /></cc:Work></rdf:RDF></metadata><defs
   id="defs42" /><sodipodi:namedview
   pagecolor="#ffffff"
   bordercolor="#666666"
   borderopacity="1"
   objecttolerance="10"
   gridtolerance="10"
   guidetolerance="10"
   inkscape:pageopacity="0"
   inkscape:pageshadow="2"
   inkscape:window-width="1680"
   inkscape:window-height="966"
   id="namedview40"
   showgrid="false"
   inkscape:snap-bbox="true"
   inkscape:snap-bbox-edge-midpoints="false"
   inkscape:bbox-nodes="true"
   inkscape:snap-page="true"
   inkscape:zoom="6.5013775"
   inkscape:cx="-22.387894"
   inkscape:cy="39.565852"
   inkscape:window-x="-8"
   inkscape:window-y="-8"
   inkscape:window-maximized="1"
   inkscape:current-layer="Layer_1" />
<style
   type="text/css"
   id="style2">
	.st0{fill:#E4EBF1;}
	.st1{fill:#F8F9E9;}
	.st2{fill:#CCCCCC;}
	.st3{opacity:0.5;fill:#F8F9E9;enable-background:new    ;}
	.st4{fill:#3E000D;}
	.st5{fill:#530016;}
	.st6{fill:#2B0009;}
	.st7{opacity:0.3;fill:#FFFFFF;enable-background:new    ;}
	.st8{fill:#7D2F47;}
	.st9{fill:#0080FF;}
	.st10{fill:#EBEBEB;}
	.st11{font-family:'SegoeUI-Bold';}
	.st12{font-size:13.3354px;}
</style>
<g
   id="Layer_2_1_"
   transform="translate(4.9220338,7.4)">
	<g
   id="Layer_1-2">
		<path
   class="st0"
   d="m 28.1,70.2 c 0,1.3 -5.9,2.4 -13.1,2.4 -7.2,0 -13.1,-1.1 -13.1,-2.4 0,-0.1 0,-0.3 0,-0.4 0.4,-0.7 2,-1.2 4.9,-1.8 2.2,-0.4 4.3,-1.7 7.2,-1.7 6.6,0 10.8,2.4 14,3.4 0.1,0.2 0.1,0.4 0.1,0.5 z"
   id="path4"
   inkscape:connector-curvature="0"
   style="fill:#e4ebf1" />
		<path
   class="st1"
   d="m 20.6,67 v 0 l -0.3,-0.1 v 0 c -1.6,-0.7 -3,-1.6 -3.5,-2.6 -1.1,-2.2 -1.4,-19.7 0.5,-23.4 h -4.6 c 2,3.7 1.6,21.2 0.5,23.4 -0.5,0.9 -1.6,1.8 -3,2.4 -0.4,0.2 -0.8,0.4 -1.2,0.5 -0.4,0.2 -0.6,0.5 -0.6,0.8 0,1.1 2.9,2 6.6,2 3.7,0 6.6,-0.9 6.6,-2 0,-0.3 -0.4,-0.7 -1,-1 z M 13.9,42.3 c -0.1,-0.2 -0.1,-0.5 0,-0.7 0.2,-0.3 2.1,-0.4 2.3,0 0.1,0.3 0,0.7 -0.1,0.7 -0.1,0 -0.3,0.1 -0.4,0.3 -0.1,4.6 -0.2,14.3 0,22.2 0,0.3 -0.2,0.6 -0.6,0.6 0,0 0,0 0,0 h -0.2 c -0.3,0 -0.6,-0.3 -0.6,-0.6 0,0 0,0 0,0 0.2,-7.9 0.1,-17.6 0,-22.2 0,-0.2 -0.2,-0.2 -0.4,-0.3 z"
   id="path6"
   inkscape:connector-curvature="0"
   style="fill:#f8f9e9" />
		<path
   class="st2"
   d="m 26.7,0 h -1.4 c 0.4,1.7 1.1,5.5 2.3,13.3 3,18.5 -6.5,25.3 -12.5,25.3 C 9.1,38.6 -0.7,31.8 2.7,13.3 3.4,9.6 4.2,2.9 4.6,0 H 3.2 c 0,0 -3.5,13.7 -3.2,22.3 0.5,15 11.4,16.8 12.5,18.4 0.1,0.1 0.1,0.2 0.1,0.2 h 4.6 c 0,-0.1 0.1,-0.2 0.1,-0.2 C 18.4,39.1 29.4,37.4 29.9,22.4 30.3,13.7 26.7,0 26.7,0 Z M 15,40.9 c -0.3,0 -0.5,0 -0.8,-0.1 0.3,-0.1 0.6,-0.1 0.8,0 0.3,0 0.5,0 0.8,0 -0.2,0.1 -0.5,0.1 -0.8,0.1 z m 0,-0.5 c -0.5,0 -0.9,0 -1.4,-0.2 0.4,-0.1 0.9,-0.1 1.4,-0.1 0.5,0 0.9,0 1.4,0.1 -0.5,0.2 -0.9,0.3 -1.4,0.2 z m 0,-0.5 c -1.3,0 -2.5,-0.3 -2.3,-0.3 0.8,-0.2 1.6,-0.2 2.4,-0.2 0.8,-0.1 1.6,0 2.3,0.2 0.1,0 -1.1,0.3 -2.4,0.3 z"
   id="path8"
   inkscape:connector-curvature="0"
   style="fill:#cccccc" />
		<path
   class="st2"
   d="m 27.5,69.1 c -0.8,-0.4 -1.7,-0.7 -2.6,-0.9 h -0.2 c -2.9,-0.6 -7,-2 -7.9,-4 C 15.7,62 15.4,44.5 17.3,40.8 h -4.6 c 2,3.7 1.6,21.2 0.5,23.4 -0.8,1.7 -4,3 -6.7,3.7 v 0 C 5.7,68 4.9,68.2 4.1,68.4 v 0 C 3.5,68.5 3,68.7 2.5,69 c -0.4,0.2 -0.6,0.5 -0.6,0.7 0,1.1 4.2,2 9.9,2.3 0.5,0 1,0 1.5,0.1 0.5,0 1.1,0 1.7,0 h 1.4 0.6 c 1.1,0 2.2,-0.1 3.2,-0.2 h 0.5 l 1,-0.1 c 3.8,-0.4 6.4,-1.2 6.4,-2 0,-0.2 -0.2,-0.4 -0.6,-0.7 z M 13.8,42.3 c -0.1,-0.2 -0.1,-0.5 0,-0.7 0.2,-0.3 2.1,-0.4 2.3,0 0.1,0.3 0,0.7 -0.1,0.7 -0.1,0 -0.3,0.1 -0.4,0.3 -0.1,4.6 -0.2,14.3 0,22.2 0,0.3 -0.2,0.6 -0.6,0.6 0,0 0,0 0,0 h -0.2 c -0.3,0 -0.6,-0.3 -0.6,-0.6 0,0 0,0 0,0 0.2,-7.9 0.1,-17.6 0,-22.2 0.1,-0.2 -0.1,-0.2 -0.4,-0.3 z M 15,71.7 c -5.3,0 -9.6,-1.1 -9.6,-2.4 0,-0.4 0.3,-0.7 0.9,-1 0.6,-0.3 1.1,-0.5 1.7,-0.6 2.3,-0.5 4.6,-0.8 6.9,-0.7 2.6,-0.1 5.1,0.3 7.6,0.9 v 0 L 23,68 v 0 c 0.9,0.4 1.5,0.8 1.5,1.2 0,1.4 -4.2,2.5 -9.5,2.5 z"
   id="path10"
   inkscape:connector-curvature="0"
   style="fill:#cccccc" />
		<path
   class="st3"
   d="m 17.4,39.6 c -0.8,0.3 -1.6,0.4 -2.3,0.3 -1.3,0 -2.5,-0.3 -2.4,-0.3 0.8,-0.2 1.6,-0.2 2.4,-0.1 0.7,-0.1 1.5,-0.1 2.3,0.1 z M 15,40.1 c -0.5,0 -0.9,0 -1.4,0.1 0.4,0.2 0.9,0.2 1.4,0.2 0.5,0 0.9,0 1.4,-0.2 C 16,40.1 15.5,40.1 15,40.1 Z m 0,0.6 c -0.3,0 -0.5,0 -0.8,0 0.3,0.1 0.5,0.1 0.8,0.1 0.3,0 0.5,0 0.8,-0.1 -0.2,0 -0.5,0 -0.8,0 z"
   id="path12"
   inkscape:connector-curvature="0"
   style="opacity:0.5;fill:#f8f9e9;enable-background:new" />
		<path
   class="st0"
   d="M 15,38.6 C 9,38.6 -0.7,31.8 2.7,13.3 3.4,9.6 4.2,2.9 4.6,0 h 20.7 c 0.4,1.7 1.1,5.5 2.3,13.3 2.9,18.5 -6.5,25.3 -12.6,25.3 z"
   id="path14"
   inkscape:connector-curvature="0"
   style="fill:#e4ebf1" />
		<path
   class="st0"
   d="m 16.1,41.5 c -0.2,-0.4 -2.1,-0.4 -2.3,0 -0.1,0.2 -0.1,0.5 0,0.7 0.2,0.1 0.4,0.2 0.4,0.4 0.1,4.6 0.2,14.2 0,22.2 0,0.3 0.3,0.6 0.6,0.6 0,0 0,0 0,0 H 15 c 0.3,0 0.6,-0.3 0.6,-0.6 0,0 0,0 0,0 -0.1,-7.9 -0.1,-17.6 0,-22.2 0,-0.2 0.2,-0.3 0.4,-0.3 0.2,-0.1 0.3,-0.5 0.1,-0.8 z"
   id="path16"
   inkscape:connector-curvature="0"
   style="fill:#e4ebf1" />
		<path
   class="st2"
   d="m 20.6,67 v 0 l -0.3,-0.1 v 0 c -1.6,-0.7 -3,-1.6 -3.5,-2.6 -1.1,-2.2 -1.4,-19.7 0.5,-23.4 h -4.6 c 2,3.7 1.6,21.2 0.5,23.4 -0.5,0.9 -1.6,1.8 -3,2.4 C 9.8,66.8 9.4,67 9,67.2 8.6,67.5 8.4,67.7 8.4,68 c 0,1.1 2.9,2 6.6,2 3.7,0 6.6,-0.9 6.6,-2 0,-0.3 -0.4,-0.7 -1,-1 z M 13.9,42.3 c -0.1,-0.2 -0.1,-0.5 0,-0.7 0.2,-0.3 2.1,-0.4 2.3,0 0.1,0.3 0,0.7 -0.1,0.7 -0.1,0 -0.3,0.1 -0.4,0.3 -0.1,4.6 -0.2,14.3 0,22.2 0,0.3 -0.2,0.6 -0.6,0.6 0,0 0,0 0,0 h -0.2 c -0.3,0 -0.6,-0.3 -0.6,-0.6 0,0 0,0 0,0 0.2,-7.9 0.1,-17.6 0,-22.2 0,-0.2 -0.2,-0.2 -0.4,-0.3 z"
   id="path18"
   inkscape:connector-curvature="0"
   style="fill:#cccccc" />
		<path
   class="st4"
   d="M 15,38.6 C 9.4,38.6 2,33 2,21.3 c 0,-0.4 6.1,-0.7 13.2,-0.7 7,0 12.5,0.3 12.9,0.7 C 27.8,33.1 20.8,38.6 15,38.6 Z"
   id="path20"
   inkscape:connector-curvature="0"
   style="fill:#3e000d" />
		<path
   class="st5"
   d="M 15,37.6 C 12.4,37.5 9.9,36.6 8,35 5.9,33.2 4,30 4.8,24.3 c 0.1,-0.4 0.7,-0.7 1.4,-0.7 2,0.2 4.8,0.2 9,0.2 4.2,0 7.1,-0.1 9.2,-0.2 0.7,0 1.3,0.3 1.4,0.7 0.6,5.8 -1.6,9 -3.7,10.8 -2.1,1.6 -4.5,2.5 -7.1,2.5 z"
   id="path22"
   inkscape:connector-curvature="0"
   style="fill:#530016" />
		<path
   class="st6"
   d="m 18.9,37.8 c -1.2,0.5 -2.6,0.8 -3.9,0.9 -1.4,0 -2.7,-0.3 -3.9,-0.9 1.2,-0.5 2.6,-0.8 3.9,-0.7 1.4,-0.1 2.7,0.1 3.9,0.7 z"
   id="path24"
   inkscape:connector-curvature="0"
   style="fill:#2b0009" />
		<path
   class="st7"
   d="m 11.2,36.9 3,-0.5 C 9.6,33.1 5.8,25.9 8.2,13.3 8.8,9.6 9.7,2.9 10,0 H 6.6 C 6.3,2.9 5.4,9.6 4.7,13.3 2.4,25.9 6.3,33.7 11.2,36.9 Z"
   id="path26"
   inkscape:connector-curvature="0"
   style="opacity:0.3;fill:#ffffff;enable-background:new" />
		<path
   class="st7"
   d="m 22.3,14.1 3.4,-0.4 c 0,-0.1 0,-0.2 -0.1,-0.4 C 25,9.6 24.1,2.9 23.8,0 h -3.4 c 0.4,3.2 1.5,10.2 1.9,14.1 z"
   id="path28"
   inkscape:connector-curvature="0"
   style="opacity:0.3;fill:#ffffff;enable-background:new" />
		<path
   class="st8"
   d="M 28.1,21.3 C 28.3,21.6 22.2,22 15.1,22 8,22 2,21.7 2,21.3 c 0,-0.4 6,-0.8 13.2,-0.8 6.9,0.1 12.7,0.4 12.9,0.8 z"
   id="path30"
   inkscape:connector-curvature="0"
   style="fill:#7d2f47" />
	</g>
</g>

<g
   id="g1520"
   transform="matrix(0.75892857,0,0,0.75892857,-144.41964,-225.85713)"><circle
   style="fill:#0080ff"
   id="path1269"
   class="st0"
   cx="231.8"
   cy="308.79999"
   r="11.2" /><g
   aria-label="1"
   transform="translate(226.0586,315.959)"
   style="font-size:20px;font-family:SegoeUI-Bold;opacity:1;fill:#ebebeb;enable-background:new"
   id="text1518"><path
     d="M 8.125,-14.316406 V 0 H 5.0488281 v -10.839844 q -0.2539062,0.22461 -0.6054687,0.429688 -0.3417969,0.195312 -0.7324219,0.361328 -0.390625,0.1562499 -0.8105469,0.2734374 -0.4199218,0.1074218 -0.8300781,0.15625 v -2.5976564 q 1.2011719,-0.351562 2.265625,-0.898437 1.0644531,-0.546875 1.9238281,-1.201172 z"
     style="font-style:normal;font-variant:normal;font-weight:bold;font-stretch:normal;font-family:'Segoe UI';-inkscape-font-specification:'Segoe UI Bold'"
     id="path832" /></g>
</g></svg>