<svg xmlns="http://www.w3.org/2000/svg" viewBox="0 0 43.94 106.31"><defs><style>.cls-1{fill:#e4ebf1;}.cls-2,.cls-4{fill:#f8f9e9;}.cls-3{fill:#ccc;}.cls-4{opacity:0.5;}.cls-5{fill:#3e000d;}.cls-6{fill:#530016;}.cls-7{fill:#2b0009;}.cls-8{fill:#fff;opacity:0.3;}.cls-9{fill:#7d2f47;}</style></defs><g id="Layer_2" data-name="Layer 2"><g id="Layer_1-2" data-name="Layer 1"><path class="cls-1" d="M41.12,102.84c0,1.92-8.58,3.47-19.17,3.47s-19.18-1.55-19.18-3.47c0-.13,0-.38,0-.61.58-1,2.93-1.78,7.17-2.59,3.22-.62,6.3-2.42,10.6-2.42,9.68,0,15.86,3.48,20.57,4.94C41.14,102.43,41.12,102.68,41.12,102.84Z"/><path class="cls-2" d="M30.12,98.16h0L29.68,98h0c-2.36-1-4.38-2.3-5.13-3.8-1.58-3.16-2.08-28.83.8-34.24H18.61C21.5,65.33,21,91,19.41,94.16,18.74,95.51,17,96.73,15,97.71c-.56.27-1.17.53-1.77.76s-.9.78-.9,1.21c0,1.58,4.32,2.86,9.66,2.86s9.65-1.28,9.65-2.86C31.6,99.12,31.06,98.6,30.12,98.16ZM20.3,61.89a1.25,1.25,0,0,1,0-1.06c.23-.51,3.06-.55,3.37,0,.19.37.07,1-.13,1.06s-.51.18-.52.46c-.16,6.73-.26,20.9-.05,32.54a.83.83,0,0,1-.84.85h-.32a.84.84,0,0,1-.84-.85c.26-11.61.13-25.73-.05-32.46C20.87,62.14,20.6,62.09,20.3,61.89Z"/><path class="cls-3" d="M39.09,0H37c.52,2.5,1.54,8,3.36,19.48C44.7,46.62,30.85,56.57,22,56.57S-1.07,46.51,3.9,19.48C4.91,14,6.15,4.2,6.67,0h-2S-.4,20,0,32.6c.73,22,16.76,24.61,18.38,27a2.91,2.91,0,0,1,.2.35h6.72c.07-.12.13-.25.2-.35,1.61-2.37,17.66-4.88,18.39-26.87C44.33,20.12,39.09,0,39.09,0ZM21.94,59.86a2.75,2.75,0,0,1-1.16-.17A4.5,4.5,0,0,1,22,59.62a5,5,0,0,1,1.16.07A2.73,2.73,0,0,1,21.94,59.86Zm0-.66a4.46,4.46,0,0,1-2-.29,7.53,7.53,0,0,1,2-.12,7.87,7.87,0,0,1,2,.12A4.67,4.67,0,0,1,21.94,59.2Zm0-.77c-1.89,0-3.69-.41-3.43-.5A12,12,0,0,1,22,57.71a13.08,13.08,0,0,1,3.42.22C25.66,58,23.84,58.43,21.94,58.43Z"/><path class="cls-3" d="M40.26,101.25A14.28,14.28,0,0,0,36.45,100l-.32-.07c-4.21-.88-10.19-2.95-11.61-5.8-1.58-3.16-2.08-28.83.8-34.24H18.61C21.5,65.33,21,91,19.41,94.16c-1.22,2.45-5.86,4.43-9.81,5.48h0a32.47,32.47,0,0,0-3.5.71H6a10.24,10.24,0,0,0-2.38.89c-.57.33-.88.68-.88,1,0,1.64,6.19,3,14.54,3.37.72,0,1.45.06,2.2.08s1.62,0,2.44,0l2,0,.95,0c1.68,0,3.27-.13,4.76-.25l.74-.07,1.45-.14c5.58-.6,9.32-1.7,9.32-3C41.14,101.93,40.83,101.58,40.26,101.25Zm-20-39.36a1.25,1.25,0,0,1,0-1.06c.23-.51,3.06-.55,3.37,0,.19.37.07,1-.13,1.06s-.51.18-.52.46c-.16,6.73-.26,20.9-.05,32.54a.84.84,0,0,1-.84.86h-.32a.84.84,0,0,1-.84-.86c.26-11.6.13-25.73-.05-32.46C20.87,62.14,20.6,62.09,20.3,61.89ZM22,105c-7.74,0-14-1.55-14-3.46,0-.52.47-1,1.31-1.46a12.07,12.07,0,0,1,2.55-.92A42.49,42.49,0,0,1,22,98.07,38.58,38.58,0,0,1,33.1,99.45h0l.6.21,0,0c1.36.53,2.15,1.16,2.15,1.83C35.93,103.43,29.66,105,22,105Z"/><path class="cls-4" d="M25.39,57.93a8.48,8.48,0,0,1-3.44.5c-1.91,0-3.71-.41-3.45-.5A12.66,12.66,0,0,1,22,57.72,13.28,13.28,0,0,1,25.39,57.93ZM22,58.79a7.53,7.53,0,0,0-2,.12,4.67,4.67,0,0,0,2,.29,4.8,4.8,0,0,0,2-.29A7.82,7.82,0,0,0,22,58.79Zm0,.83a4.5,4.5,0,0,0-1.17.07,2.78,2.78,0,0,0,1.17.17,2.91,2.91,0,0,0,1.16-.17A4.41,4.41,0,0,0,22,59.62Z"/><path class="cls-1" d="M22,56.57c-8.88,0-23-10.06-18.07-37.09C4.91,14,6.15,4.2,6.67,0H37c.52,2.5,1.54,8,3.36,19.48C44.7,46.62,30.85,56.57,22,56.57Z"/><path class="cls-1" d="M23.63,60.85c-.31-.58-3.14-.53-3.37,0a1.3,1.3,0,0,0,0,1.06c.3.2.57.25.58.56.17,6.74.31,20.87,0,32.47a.85.85,0,0,0,.85.86h.32a.84.84,0,0,0,.84-.86c-.21-11.64-.11-25.81.05-32.54,0-.28.25-.41.52-.47S23.83,61.23,23.63,60.85Z"/><path class="cls-3" d="M30.12,98.16h0L29.68,98h0c-2.36-1-4.38-2.3-5.13-3.8-1.58-3.16-2.08-28.83.8-34.24H18.61C21.5,65.33,21,91,19.41,94.16,18.74,95.51,17,96.73,15,97.71a7.44,7.44,0,0,0-1.77.76c-.58.37-.9.78-.9,1.21,0,1.58,4.32,2.86,9.66,2.86s9.65-1.28,9.65-2.86C31.6,99.12,31.06,98.6,30.12,98.16ZM20.3,61.89a1.25,1.25,0,0,1,0-1.06c.23-.51,3.06-.55,3.37,0,.19.37.07,1-.13,1.06s-.51.18-.52.46c-.16,6.73-.26,20.9-.05,32.54a.83.83,0,0,1-.84.85h-.32a.84.84,0,0,1-.84-.85c.26-11.61.13-25.73-.05-32.46C20.87,62.14,20.6,62.09,20.3,61.89Z"/><path class="cls-5" d="M22,56.57c-8.21,0-19.09-8.23-19.08-25.31,0-.59,8.91-1.06,19.37-1.06,10.25,0,18.24.41,18.91,1C40.73,48.49,30.48,56.57,22,56.57Z"/><path class="cls-6" d="M22,55.1a16.66,16.66,0,0,1-10.32-3.88C8.6,48.6,5.75,43.83,7,35.52c.09-.61,1-1.05,2-1,2.94.22,7,.3,13.21.3s10.4-.08,13.42-.3c1-.07,1.91.39,2,1,.91,8.43-2.35,13.21-5.47,15.81A16.32,16.32,0,0,1,22,55.1Z"/><path class="cls-7" d="M27.72,55.31A14.64,14.64,0,0,1,22,56.57a14.8,14.8,0,0,1-5.76-1.26A12.9,12.9,0,0,1,22,54.23,12.75,12.75,0,0,1,27.72,55.31Z"/><path class="cls-8" d="M16.39,54l4.36-.68C14.06,48.51,8.52,38,11.91,19.48,12.93,14,14.16,4.2,14.68,0h-5C9.15,4.2,7.92,14,6.91,19.48,3.51,38,9.19,49.35,16.39,54Z"/><path class="cls-8" d="M32.69,20.6l5-.57c0-.19-.06-.36-.09-.55C36.56,14,35.33,4.2,34.81,0h-5C30.37,4.62,32,15,32.69,20.6Z"/><path class="cls-9" d="M41.17,31.22c.22.37-8.7,1-19,1s-19.26-.42-19.26-1,8.8-1.11,19.26-1.11C32.4,30.15,40.82,30.66,41.17,31.22Z"/></g></g></svg>