<?xml version="1.0" encoding="utf-8"?>
<!-- Generator: Adobe Illustrator 24.1.1, SVG Export Plug-In . SVG Version: 6.00 Build 0)  -->
<svg version="1.1" id="Layer_1" xmlns="http://www.w3.org/2000/svg" xmlns:xlink="http://www.w3.org/1999/xlink" x="0px" y="0px"
	 viewBox="0 0 30 72.6" style="enable-background:new 0 0 30 72.6;" xml:space="preserve">
<style type="text/css">
	.st0{fill:#E4EBF1;}
	.st1{fill:#F8F9E9;}
	.st2{fill:#CCCCCC;}
	.st3{opacity:0.5;fill:#F8F9E9;enable-background:new    ;}
	.st4{fill:#3E000D;}
	.st5{fill:#530016;}
	.st6{fill:#2B0009;}
	.st7{opacity:0.3;fill:#FFFFFF;enable-background:new    ;}
	.st8{fill:#7D2F47;}
	.st9{fill:#0080FF;}
	.st10{fill:#EBEBEB;}
	.st11{font-family:'SegoeUI-Bold';}
	.st12{font-size:13.3354px;}
</style>
<g id="Layer_2_1_">
	<g id="Layer_1-2">
		<path class="st0" d="M28.1,70.2c0,1.3-5.9,2.4-13.1,2.4S1.9,71.5,1.9,70.2c0-0.1,0-0.3,0-0.4c0.4-0.7,2-1.2,4.9-1.8
			c2.2-0.4,4.3-1.7,7.2-1.7c6.6,0,10.8,2.4,14,3.4C28.1,69.9,28.1,70.1,28.1,70.2z"/>
		<path class="st1" d="M20.6,67L20.6,67l-0.3-0.1l0,0c-1.6-0.7-3-1.6-3.5-2.6c-1.1-2.2-1.4-19.7,0.5-23.4h-4.6
			c2,3.7,1.6,21.2,0.5,23.4c-0.5,0.9-1.6,1.8-3,2.4c-0.4,0.2-0.8,0.4-1.2,0.5c-0.4,0.2-0.6,0.5-0.6,0.8c0,1.1,2.9,2,6.6,2
			s6.6-0.9,6.6-2C21.6,67.7,21.2,67.3,20.6,67z M13.9,42.3c-0.1-0.2-0.1-0.5,0-0.7c0.2-0.3,2.1-0.4,2.3,0c0.1,0.3,0,0.7-0.1,0.7
			s-0.3,0.1-0.4,0.3c-0.1,4.6-0.2,14.3,0,22.2c0,0.3-0.2,0.6-0.6,0.6c0,0,0,0,0,0h-0.2c-0.3,0-0.6-0.3-0.6-0.6c0,0,0,0,0,0
			c0.2-7.9,0.1-17.6,0-22.2C14.3,42.4,14.1,42.4,13.9,42.3z"/>
		<path class="st2" d="M26.7,0h-1.4c0.4,1.7,1.1,5.5,2.3,13.3c3,18.5-6.5,25.3-12.5,25.3S-0.7,31.8,2.7,13.3C3.4,9.6,4.2,2.9,4.6,0
			H3.2c0,0-3.5,13.7-3.2,22.3c0.5,15,11.4,16.8,12.5,18.4c0.1,0.1,0.1,0.2,0.1,0.2h4.6c0-0.1,0.1-0.2,0.1-0.2
			c1.1-1.6,12.1-3.3,12.6-18.3C30.3,13.7,26.7,0,26.7,0z M15,40.9c-0.3,0-0.5,0-0.8-0.1c0.3-0.1,0.6-0.1,0.8,0c0.3,0,0.5,0,0.8,0
			C15.6,40.9,15.3,40.9,15,40.9z M15,40.4c-0.5,0-0.9,0-1.4-0.2c0.4-0.1,0.9-0.1,1.4-0.1c0.5,0,0.9,0,1.4,0.1
			C15.9,40.4,15.5,40.5,15,40.4z M15,39.9c-1.3,0-2.5-0.3-2.3-0.3c0.8-0.2,1.6-0.2,2.4-0.2c0.8-0.1,1.6,0,2.3,0.2
			C17.5,39.6,16.3,39.9,15,39.9z"/>
		<path class="st2" d="M27.5,69.1c-0.8-0.4-1.7-0.7-2.6-0.9l-0.2,0c-2.9-0.6-7-2-7.9-4c-1.1-2.2-1.4-19.7,0.5-23.4h-4.6
			c2,3.7,1.6,21.2,0.5,23.4c-0.8,1.7-4,3-6.7,3.7l0,0c-0.8,0.1-1.6,0.3-2.4,0.5H4.1c-0.6,0.1-1.1,0.3-1.6,0.6
			c-0.4,0.2-0.6,0.5-0.6,0.7c0,1.1,4.2,2,9.9,2.3c0.5,0,1,0,1.5,0.1c0.5,0,1.1,0,1.7,0h1.4H17c1.1,0,2.2-0.1,3.2-0.2l0.5,0l1-0.1
			c3.8-0.4,6.4-1.2,6.4-2C28.1,69.6,27.9,69.4,27.5,69.1z M13.8,42.3c-0.1-0.2-0.1-0.5,0-0.7c0.2-0.3,2.1-0.4,2.3,0
			c0.1,0.3,0,0.7-0.1,0.7s-0.3,0.1-0.4,0.3c-0.1,4.6-0.2,14.3,0,22.2c0,0.3-0.2,0.6-0.6,0.6c0,0,0,0,0,0h-0.2
			c-0.3,0-0.6-0.3-0.6-0.6c0,0,0,0,0,0c0.2-7.9,0.1-17.6,0-22.2C14.3,42.4,14.1,42.4,13.8,42.3L13.8,42.3z M15,71.7
			c-5.3,0-9.6-1.1-9.6-2.4c0-0.4,0.3-0.7,0.9-1c0.6-0.3,1.1-0.5,1.7-0.6c2.3-0.5,4.6-0.8,6.9-0.7c2.6-0.1,5.1,0.3,7.6,0.9l0,0L23,68
			l0,0c0.9,0.4,1.5,0.8,1.5,1.2C24.5,70.6,20.3,71.7,15,71.7z"/>
		<path class="st3" d="M17.4,39.6c-0.8,0.3-1.6,0.4-2.3,0.3c-1.3,0-2.5-0.3-2.4-0.3c0.8-0.2,1.6-0.2,2.4-0.1
			C15.8,39.4,16.6,39.4,17.4,39.6z M15,40.1c-0.5,0-0.9,0-1.4,0.1c0.4,0.2,0.9,0.2,1.4,0.2c0.5,0,0.9,0,1.4-0.2
			C16,40.1,15.5,40.1,15,40.1z M15,40.7c-0.3,0-0.5,0-0.8,0c0.3,0.1,0.5,0.1,0.8,0.1c0.3,0,0.5,0,0.8-0.1
			C15.6,40.7,15.3,40.7,15,40.7z"/>
		<path class="st0" d="M15,38.6C9,38.6-0.7,31.8,2.7,13.3C3.4,9.6,4.2,2.9,4.6,0h20.7c0.4,1.7,1.1,5.5,2.3,13.3
			C30.5,31.8,21.1,38.6,15,38.6z"/>
		<path class="st0" d="M16.1,41.5c-0.2-0.4-2.1-0.4-2.3,0c-0.1,0.2-0.1,0.5,0,0.7c0.2,0.1,0.4,0.2,0.4,0.4c0.1,4.6,0.2,14.2,0,22.2
			c0,0.3,0.3,0.6,0.6,0.6c0,0,0,0,0,0H15c0.3,0,0.6-0.3,0.6-0.6c0,0,0,0,0,0c-0.1-7.9-0.1-17.6,0-22.2c0-0.2,0.2-0.3,0.4-0.3
			C16.2,42.2,16.3,41.8,16.1,41.5z"/>
		<path class="st2" d="M20.6,67L20.6,67l-0.3-0.1l0,0c-1.6-0.7-3-1.6-3.5-2.6c-1.1-2.2-1.4-19.7,0.5-23.4h-4.6
			c2,3.7,1.6,21.2,0.5,23.4c-0.5,0.9-1.6,1.8-3,2.4C9.8,66.8,9.4,67,9,67.2c-0.4,0.3-0.6,0.5-0.6,0.8c0,1.1,2.9,2,6.6,2
			s6.6-0.9,6.6-2C21.6,67.7,21.2,67.3,20.6,67z M13.9,42.3c-0.1-0.2-0.1-0.5,0-0.7c0.2-0.3,2.1-0.4,2.3,0c0.1,0.3,0,0.7-0.1,0.7
			s-0.3,0.1-0.4,0.3c-0.1,4.6-0.2,14.3,0,22.2c0,0.3-0.2,0.6-0.6,0.6c0,0,0,0,0,0h-0.2c-0.3,0-0.6-0.3-0.6-0.6c0,0,0,0,0,0
			c0.2-7.9,0.1-17.6,0-22.2C14.3,42.4,14.1,42.4,13.9,42.3z"/>
		<path class="st4" d="M15,38.6C9.4,38.6,2,33,2,21.3c0-0.4,6.1-0.7,13.2-0.7c7,0,12.5,0.3,12.9,0.7C27.8,33.1,20.8,38.6,15,38.6z"
			/>
		<path class="st5" d="M15,37.6c-2.6-0.1-5.1-1-7-2.6c-2.1-1.8-4-5-3.2-10.7c0.1-0.4,0.7-0.7,1.4-0.7c2,0.2,4.8,0.2,9,0.2
			s7.1-0.1,9.2-0.2c0.7,0,1.3,0.3,1.4,0.7c0.6,5.8-1.6,9-3.7,10.8C20,36.7,17.6,37.6,15,37.6z"/>
		<path class="st6" d="M18.9,37.8c-1.2,0.5-2.6,0.8-3.9,0.9c-1.4,0-2.7-0.3-3.9-0.9c1.2-0.5,2.6-0.8,3.9-0.7
			C16.4,37,17.7,37.2,18.9,37.8z"/>
		<path class="st7" d="M11.2,36.9l3-0.5c-4.6-3.3-8.4-10.5-6-23.1C8.8,9.6,9.7,2.9,10,0H6.6C6.3,2.9,5.4,9.6,4.7,13.3
			C2.4,25.9,6.3,33.7,11.2,36.9z"/>
		<path class="st7" d="M22.3,14.1l3.4-0.4c0-0.1,0-0.2-0.1-0.4C25,9.6,24.1,2.9,23.8,0h-3.4C20.8,3.2,21.9,10.2,22.3,14.1z"/>
		<path class="st8" d="M28.1,21.3c0.2,0.3-5.9,0.7-13,0.7S2,21.7,2,21.3c0-0.4,6-0.8,13.2-0.8C22.1,20.6,27.9,20.9,28.1,21.3z"/>
	</g>
</g>
<g>
	<circle id="path1269" class="st9" cx="27.2" cy="0.7" r="7.5"/>
	<text transform="matrix(1 0 0 1 23.3093 5.4972)" class="st10 st11 st12">1</text>
</g>
</svg>
