<?xml version="1.0" encoding="utf-8"?>
<!-- Generator: Adobe Illustrator 24.1.1, SVG Export Plug-In . SVG Version: 6.00 Build 0)  -->
<svg version="1.1"
	 id="svg1380" xmlns:cc="http://creativecommons.org/ns#" xmlns:dc="http://purl.org/dc/elements/1.1/" xmlns:inkscape="http://www.inkscape.org/namespaces/inkscape" xmlns:rdf="http://www.w3.org/1999/02/22-rdf-syntax-ns#" xmlns:sodipodi="http://sodipodi.sourceforge.net/DTD/sodipodi-0.dtd" xmlns:svg="http://www.w3.org/2000/svg"
	 xmlns="http://www.w3.org/2000/svg" xmlns:xlink="http://www.w3.org/1999/xlink" x="0px" y="0px" viewBox="0 0 595.3 841.9"
	 style="enable-background:new 0 0 595.3 841.9;" xml:space="preserve">
<style type="text/css">
	.st0{fill:#0080FF;}
	.st1{fill:#EBEBEB;}
	.st2{font-family:'SegoeUI-Bold';}
	.st3{font-size:20px;}
	.st4{fill:#E5C720;}
	.st5{fill:#401A00;}
	.st6{font-size:13.3354px;}
</style>
<sodipodi:namedview  bordercolor="#666666" borderopacity="1.0" id="base" inkscape:current-layer="layer1" inkscape:cx="329.74494" inkscape:cy="634.17059" inkscape:document-units="mm" inkscape:pageopacity="0.0" inkscape:pageshadow="2" inkscape:window-height="966" inkscape:window-maximized="1" inkscape:window-width="1680" inkscape:window-x="-8" inkscape:window-y="-8" inkscape:zoom="2.8" pagecolor="#ffffff" showgrid="false">
	</sodipodi:namedview>
<g>
	<circle id="path1269" class="st0" cx="231.8" cy="308.8" r="11.2"/>
	<text transform="matrix(1 0 0 1 226.0586 315.959)" class="st1 st2 st3">1</text>
</g>
<circle id="path1269-7" class="st4" cx="306.3" cy="312.2" r="10"/>
<text transform="matrix(1.0293 0 0 1 300.6392 318.8733)" class="st5 st2 st3">2</text>
<path id="path1956" inkscape:flatsided="false" inkscape:randomized="0" inkscape:rounded="0" inkscape:transform-center-x="-0.062113284" inkscape:transform-center-y="0.010679207" sodipodi:arg1="0.50101339" sodipodi:arg2="0.59077318" sodipodi:cx="65.547852" sodipodi:cy="112.18312" sodipodi:r1="5.5672503" sodipodi:r2="6.399138" sodipodi:sides="35" sodipodi:type="star" class="st4" d="
	M192.7,316.5l1,2l-2.2-0.1l0.6,2.1l-2.1-0.5l0.2,2.2l-2-0.9l-0.2,2.2l-1.8-1.2l-0.6,2.1l-1.6-1.5l-0.9,2l-1.3-1.8l-1.3,1.8l-0.9-2
	l-1.6,1.5l-0.5-2.1l-1.8,1.2l-0.2-2.2l-2,0.9l0.2-2.2l-2.1,0.5l0.6-2.1l-2.2,0.1l1-2l-2.2-0.3l1.3-1.8l-2.1-0.7l1.6-1.5l-1.9-1
	l1.9-1.2l-1.7-1.4l2-0.8l-1.4-1.6l2.1-0.5l-1.1-1.9l2.2-0.1l-0.8-2.1l2.2,0.3l-0.4-2.2l2.1,0.7l0-2.2l1.9,1.1l0.4-2.2l1.7,1.4
	l0.8-2.1l1.4,1.7l1.1-1.9l1.1,1.9l1.4-1.7l0.7,2.1l1.7-1.4l0.4,2.2l1.9-1l0,2.2l2.1-0.7l-0.4,2.2l2.2-0.3l-0.8,2l2.2,0.1l-1.2,1.9
	l2.1,0.5l-1.5,1.6l2,0.9l-1.7,1.3l1.8,1.2l-1.9,1l1.6,1.5l-2.1,0.6l1.3,1.8L192.7,316.5z"/>
<text transform="matrix(1 0 0 1 176.71 317.7998)" class="st5 st2 st3">2</text>
<g>
	<circle id="path1269_1_" class="st0" cx="256.2" cy="335.8" r="7.5"/>
	<text transform="matrix(1 0 0 1 252.3275 340.5623)" class="st1 st2 st6">1</text>
</g>
<g>
	<circle id="path1269_2_" class="st0" cx="280.6" cy="338.8" r="7.5"/>
	<text transform="matrix(1 0 0 1 276.7065 343.5925)" class="st1 st2 st6">1</text>
</g>
<circle id="path1269-7_1_" class="st4" cx="330.4" cy="312.2" r="10"/>
<text transform="matrix(1.0293 0 0 1 325.176 318.8734)" class="st5 st2 st3">3</text>
<circle id="path1269-7_5_" class="st4" cx="305.5" cy="360.4" r="10"/>
<text transform="matrix(1.0293 0 0 1 299.0709 367.1619)" class="st5 st2 st3">4</text>
<circle id="path1269-7_4_" class="st4" cx="329.6" cy="360.4" r="10"/>
<text transform="matrix(1.0293 0 0 1 323.9758 367.6357)" class="st5 st2 st3">9</text>
<g>
	<path class="st4" d="M298.5,335.3c0,5.5,4.5,10,10,10v-20C302.9,325.3,298.5,329.8,298.5,335.3z"/>
	<path class="st4" d="M336.5,335.3c0-5.5-4.5-10-10-10v20C332,345.3,336.5,340.9,336.5,335.3z"/>
	<rect x="308.5" y="325.3" class="st4" width="18.3" height="20"/>
	<text transform="matrix(1.0293 0 0 1 301.1723 342.4282)" class="st5 st2 st3">1½</text>
</g>
<g>
	<g>
		<path class="st4" d="M251.1,361.6c0,5.5,4.5,10,10,10v-20C255.6,351.6,251.1,356,251.1,361.6z"/>
		<path class="st4" d="M275.1,361.6c0-5.5-4.5-10-10-10v20C270.6,371.6,275.1,367.1,275.1,361.6z"/>
		<rect x="261.1" y="351.6" class="st4" width="4" height="20"/>
	</g>
	<text transform="matrix(1.0293 0 0 1 252.7745 368.602)" class="st5 st2 st3">1</text>
	<text transform="matrix(0.6001 0 0 0.583 261.7083 365.6364)" class="st5 st2 st3">½</text>
</g>
</svg>
