<?xml version="1.0" encoding="UTF-8" standalone="no"?>
<!-- Created with Inkscape (http://www.inkscape.org/) -->

<svg
   xmlns:dc="http://purl.org/dc/elements/1.1/"
   xmlns:cc="http://creativecommons.org/ns#"
   xmlns:rdf="http://www.w3.org/1999/02/22-rdf-syntax-ns#"
   xmlns:svg="http://www.w3.org/2000/svg"
   xmlns="http://www.w3.org/2000/svg"
   xmlns:sodipodi="http://sodipodi.sourceforge.net/DTD/sodipodi-0.dtd"
   xmlns:inkscape="http://www.inkscape.org/namespaces/inkscape"
   width="210mm"
   height="297mm"
   viewBox="0 0 210 297"
   version="1.1"
   id="svg1380"
   inkscape:version="0.92.4 (5da689c313, 2019-01-14)"
   sodipodi:docname="number_stickers.svg">
  <defs
     id="defs1374" />
  <sodipodi:namedview
     id="base"
     pagecolor="#ffffff"
     bordercolor="#666666"
     borderopacity="1.0"
     inkscape:pageopacity="0.0"
     inkscape:pageshadow="2"
     inkscape:zoom="2.8"
     inkscape:cx="329.74494"
     inkscape:cy="634.17059"
     inkscape:document-units="mm"
     inkscape:current-layer="layer1"
     showgrid="false"
     inkscape:window-width="1680"
     inkscape:window-height="966"
     inkscape:window-x="-8"
     inkscape:window-y="-8"
     inkscape:window-maximized="1" />
  <metadata
     id="metadata1377">
    <rdf:RDF>
      <cc:Work
         rdf:about="">
        <dc:format>image/svg+xml</dc:format>
        <dc:type
           rdf:resource="http://purl.org/dc/dcmitype/StillImage" />
        <dc:title></dc:title>
      </cc:Work>
    </rdf:RDF>
  </metadata>
  <g
     inkscape:label="Layer 1"
     inkscape:groupmode="layer"
     id="layer1">
    <circle
       style="opacity:1;fill:#0080ff;fill-opacity:1;stroke:none;stroke-width:3.08659697;stroke-miterlimit:4;stroke-dasharray:none;stroke-dashoffset:0;stroke-opacity:1"
       id="path1269"
       cx="81.782677"
       cy="108.94734"
       r="3.96875" />
    <text
       xml:space="preserve"
       style="font-style:normal;font-variant:normal;font-weight:600;font-stretch:normal;font-size:7.05555534px;line-height:1.25;font-family:'Segoe UI';-inkscape-font-specification:'Segoe UI Semi-Bold';letter-spacing:0px;word-spacing:0px;fill:#ebebeb;fill-opacity:1;stroke:none;stroke-width:0.26458332"
       x="79.748375"
       y="111.46337"
       id="text1361"><tspan
         sodipodi:role="line"
         id="tspan1359"
         x="79.748375"
         y="111.46337"
         style="font-style:normal;font-variant:normal;font-weight:bold;font-stretch:normal;font-size:7.05555534px;font-family:'Segoe UI';-inkscape-font-specification:'Segoe UI Bold';fill:#ebebeb;fill-opacity:1;stroke-width:0.26458332">1</tspan></text>
    <circle
       style="opacity:1;fill:#e5c720;fill-opacity:1;stroke:none;stroke-width:3.08659697;stroke-miterlimit:4;stroke-dasharray:none;stroke-dashoffset:0;stroke-opacity:1"
       id="path1269-7"
       cx="98.555641"
       cy="109.91133"
       r="3.96875" />
    <text
       xml:space="preserve"
       style="font-style:normal;font-variant:normal;font-weight:normal;font-stretch:normal;font-size:7.05555534px;line-height:1.25;font-family:Arial;-inkscape-font-specification:Arial;letter-spacing:0px;word-spacing:0px;fill:#401a00;fill-opacity:1;stroke:none;stroke-width:0.26458332;"
       x="96.655243"
       y="112.31612"
       id="text1361-0"><tspan
         sodipodi:role="line"
         id="tspan1359-4"
         x="96.655243"
         y="112.31612"
         style="font-style:normal;font-variant:normal;font-weight:bold;font-stretch:normal;font-size:7.05555534px;font-family:Arial;-inkscape-font-specification:'Arial Bold';fill:#401a00;fill-opacity:1;stroke-width:0.26458332;">2</tspan></text>
    <path
       sodipodi:type="star"
       style="opacity:1;fill:#e5c720;fill-opacity:1;stroke:none;stroke-width:1.5;stroke-miterlimit:4;stroke-dasharray:none;stroke-dashoffset:0;stroke-opacity:1"
       id="path1956"
       sodipodi:sides="35"
       sodipodi:cx="65.547852"
       sodipodi:cy="112.18312"
       sodipodi:r1="5.5672503"
       sodipodi:r2="6.399138"
       sodipodi:arg1="0.50101339"
       sodipodi:arg2="0.59077318"
       inkscape:flatsided="false"
       inkscape:rounded="0"
       inkscape:randomized="0"
       d="m 70.430866,114.85715 0.431535,0.89031 -0.987474,-0.0614 0.26563,0.95305 -0.960644,-0.23672 0.09119,0.98517 -0.902939,-0.40445 -0.08619,0.98562 -0.816211,-0.55917 -0.260792,0.95439 -0.70325,-0.69592 -0.427014,0.89248 -0.567686,-0.81031 -0.579512,0.8019 -0.413876,-0.89866 -0.713383,0.68554 -0.246765,-0.95811 -0.824325,0.54714 -0.07172,-0.98678 -0.908774,0.39116 0.105627,-0.98373 -0.964013,0.2226 0.279581,-0.94905 -0.988268,0.0469 0.444548,-0.88388 -0.98076,-0.13032 0.595228,-0.7903 -0.941729,-0.30335 0.726777,-0.67132 -0.872431,-0.46663 0.834966,-0.53076 -0.775091,-0.6149 0.916318,-0.37314 -0.652839,-0.74343 0.968219,-0.20353 -0.509604,-0.84804 0.989001,-0.0274 -0.349991,-0.9254 0.977996,0.14965 -0.179129,-0.97303 0.935557,0.32188 -0.0025,-0.98938 0.863049,0.48376 0.174192,-0.97393 0.762801,0.63009 0.345293,-0.92717 0.638037,0.75616 0.505297,-0.85062 0.492765,0.85794 0.64906,-0.74672 0.331656,0.93214 0.771962,-0.61883 0.159886,0.97637 0.870052,-0.47104 -0.01702,0.98923 0.940178,-0.30812 -0.193383,0.9703 0.980087,-0.13529 -0.363529,0.92017 0.988494,0.0419 -0.52199,0.84048 0.96513,0.21771 -0.663674,0.73376 0.910746,0.38655 -0.784027,0.60347 0.82709,0.54295 -0.879181,0.45377 0.716851,0.68191 -0.946077,0.2895 0.583571,0.79895 z"
       inkscape:transform-center-x="-0.062113284"
       inkscape:transform-center-y="0.010679207"
       transform="matrix(0.78216385,0,0,0.78269441,12.88571,21.754824)" />
    <text
       xml:space="preserve"
       style="font-style:normal;font-variant:normal;font-weight:normal;font-stretch:normal;font-size:7.05555534px;line-height:1.25;font-family:Arial;-inkscape-font-specification:Arial;letter-spacing:0px;word-spacing:0px;fill:#401a00;fill-opacity:1;stroke:none;stroke-width:0.26458332;"
       x="62.339096"
       y="112.11283"
       id="text1361-2"><tspan
         sodipodi:role="line"
         id="tspan1359-8"
         x="62.339096"
         y="112.11283"
         style="font-style:normal;font-variant:normal;font-weight:bold;font-stretch:normal;font-size:7.05555534px;font-family:'Segoe UI';-inkscape-font-specification:'Segoe UI Bold';fill:#401a00;fill-opacity:1;stroke-width:0.26458332">2</tspan></text>
  </g>
</svg>
