<svg xmlns="http://www.w3.org/2000/svg" viewBox="0 0 47.95 118.18"><defs><style>.cls-1{isolation:isolate;}.cls-2{fill:#e4ebf1;}.cls-3{fill:#c99628;}.cls-4{fill:#b2b2b2;}.cls-11,.cls-5{fill:#fff;}.cls-5{opacity:0.8;}.cls-6{fill:none;}.cls-7{fill:#fff1da;}.cls-8{mix-blend-mode:multiply;}.cls-9{fill:#f2f2f2;}.cls-10{opacity:0.3;}.cls-12{fill:#ccc;}.cls-13{fill:#432100;}</style></defs><g class="cls-1"><g id="Layer_2" data-name="Layer 2"><g id="Layer_1-2" data-name="Layer 1"><path class="cls-2" d="M41.84,94.07c-.21,8.41.86,21.53.86,21.53-1.1,1.46-11.94,2.58-18.72,2.58S6.36,117.06,5.25,115.6c0,0,1.07-13.12.86-21.53S.44,37.71.08,27.12c-.21-6.24,0-14.56.27-20.33C.51,2.78.67,0,.67,0H47.28s.16,2.77.32,6.78c.24,5.77.48,14.09.27,20.34C47.51,37.71,42.05,85.66,41.84,94.07Z"/><path class="cls-3" d="M46.31,24.9c.17-6.38,0-12.91-.56-23.29H2.2c-.54,10.52-.74,17.1-.55,23.56,0,1.32.07,2.57.13,3.68h0c.4,8,1.4,16.85,3.07,33.5,3,30.17,3.17,31.1,2.66,42.49,11.87,3.46,20,3.7,32.89,0-.51-11.22-.38-12,2.66-42.5,1.67-16.65,2.66-25.53,3.07-33.49h0C46.24,27.66,46.28,26.33,46.31,24.9Z"/><path class="cls-4" d="M38.86,105.27c-11.52,3.11-19.38,2.9-29.79,0C15,103,32.89,103,38.86,105.27Z"/><path class="cls-5" d="M7.79,108.75c2.54,5.75.85,5.24,8.43,5.41,8.17.17,9.39.21,12.34.21C25,115.52,20,115.8,16.2,115.77,9.76,115.7,8,115.65,7.79,108.75Z"/><line class="cls-6" x1="1.81" y1="10.93" x2="1.78" y2="10.93"/><path class="cls-7" d="M46.14,10.93H1.81c.11-3.47.26-6.73.39-9.32H45.75C45.88,4.21,46,7.48,46.14,10.93Z"/><g class="cls-8"><path class="cls-9" d="M36.35,105.9c.63,5.07,1.82,7.78-.1,8.28-4.55,1.2-4.32-2.4-5.73-7.15-.7-26.94-2.45-62.36-2.68-105.39H39.26C40.07,45.08,35.31,68.53,36.35,105.9Z"/></g><g class="cls-10"><path class="cls-11" d="M23.5,63.05c-2.38,37.39-2.07,33.29-1.83,44.42.11,5.33-1.38,7.31-5.18,7.31-2.41,0-3.33-2-3.21-8.46C13.56,89.56,9.51,42.54,9.13,26,9,18.35,9.2,7.77,9.38,1.61H25.49C26.12,24.77,25.84,26.32,23.5,63.05Z"/></g><g class="cls-8"><path class="cls-12" d="M45.75,1.61H42.19C44,37.14,41.36,32,39.53,62.34c-2.42,40.09-1,40.34.34,42.65l.55-.15c-.51-11.26-.38-12.07,2.66-42.5C46.4,29.25,47,26.82,45.75,1.61Z"/></g><g class="cls-8"><path class="cls-12" d="M2.24,1.61H5.79C4,37.14,6.62,32,8.45,62.34c2.42,40.09,1,40.34-.33,42.65l-.55-.15c.5-11.26.37-12.07-2.67-42.5C1.59,29.25.94,26.82,2.24,1.61Z"/></g><path class="cls-13" d="M32,41.85a5.73,5.73,0,0,1-2.09,4.61,8.58,8.58,0,0,1-5.68,1.76,12.85,12.85,0,0,1-2.87-.34,6.53,6.53,0,0,1-2.13-.81V43.74A7.68,7.68,0,0,0,21.54,45a8.35,8.35,0,0,0,2.67.47,4.86,4.86,0,0,0,3.14-1A3.1,3.1,0,0,0,28.52,42a2.94,2.94,0,0,0-1.37-2.61,7.13,7.13,0,0,0-3.92-.9H21.4v-2.8h1.74a6,6,0,0,0,3.44-.84,2.76,2.76,0,0,0,1.22-2.45,2.81,2.81,0,0,0-.95-2.28,4,4,0,0,0-2.67-.8A6.65,6.65,0,0,0,20,30.78V27.7a9,9,0,0,1,2.26-.85,12.13,12.13,0,0,1,2.77-.32,7.71,7.71,0,0,1,3.3.66A5,5,0,0,1,30.51,29a4.75,4.75,0,0,1,.74,2.63A5.07,5.07,0,0,1,30.16,35a5.86,5.86,0,0,1-3.07,1.85v.06a5.87,5.87,0,0,1,3.59,1.6A4.54,4.54,0,0,1,32,41.85Z"/></g></g></g></svg>