<?xml version="1.0" encoding="UTF-8" standalone="no"?>
<svg
   xmlns:dc="http://purl.org/dc/elements/1.1/"
   xmlns:cc="http://creativecommons.org/ns#"
   xmlns:rdf="http://www.w3.org/1999/02/22-rdf-syntax-ns#"
   xmlns:svg="http://www.w3.org/2000/svg"
   xmlns="http://www.w3.org/2000/svg"
   xmlns:sodipodi="http://sodipodi.sourceforge.net/DTD/sodipodi-0.dtd"
   xmlns:inkscape="http://www.inkscape.org/namespaces/inkscape"
   viewBox="0 0 40.000001 91.946274"
   version="1.1"
   id="svg40"
   sodipodi:docname="Pintstronglager.svg"
   width="40"
   height="91.946274"
   inkscape:version="0.92.4 (5da689c313, 2019-01-14)">
  <metadata
     id="metadata44">
    <rdf:RDF>
      <cc:Work
         rdf:about="">
        <dc:format>image/svg+xml</dc:format>
        <dc:type
           rdf:resource="http://purl.org/dc/dcmitype/StillImage" />
        <dc:title />
      </cc:Work>
    </rdf:RDF>
  </metadata>
  <sodipodi:namedview
     pagecolor="#ffffff"
     bordercolor="#666666"
     borderopacity="1"
     objecttolerance="10"
     gridtolerance="10"
     guidetolerance="10"
     inkscape:pageopacity="0"
     inkscape:pageshadow="2"
     inkscape:window-width="1680"
     inkscape:window-height="966"
     id="namedview42"
     showgrid="false"
     inkscape:snap-page="true"
     inkscape:snap-bbox="true"
     fit-margin-top="0"
     fit-margin-left="0"
     fit-margin-right="0"
     fit-margin-bottom="0"
     inkscape:snap-nodes="false"
     inkscape:bbox-paths="false"
     inkscape:bbox-nodes="true"
     inkscape:zoom="5.6482383"
     inkscape:cx="-4.6470672"
     inkscape:cy="122.90008"
     inkscape:window-x="-8"
     inkscape:window-y="-8"
     inkscape:window-maximized="1"
     inkscape:current-layer="svg40" />
  <defs
     id="defs4">
    <style
       id="style2">.cls-1{isolation:isolate;}.cls-2{fill:#e4ebf1;}.cls-3{fill:#c99628;}.cls-4{fill:#b2b2b2;}.cls-11,.cls-5{fill:#fff;}.cls-5{opacity:0.8;}.cls-6{fill:none;}.cls-7{fill:#fff1da;}.cls-8{mix-blend-mode:multiply;}.cls-9{fill:#f2f2f2;}.cls-10{opacity:0.3;}.cls-12{fill:#ccc;}.cls-13{fill:#432100;}</style>
  </defs>
  <g
     class="cls-1"
     id="g38"
     transform="matrix(0.66727719,0,0,0.66727719,4.0036969,13.087457)"
     style="isolation:isolate">
    <g
       id="Layer_2"
       data-name="Layer 2">
      <g
         id="Layer_1-2"
         data-name="Layer 1">
        <path
           class="cls-2"
           d="m 41.84,94.07 c -0.21,8.41 0.86,21.53 0.86,21.53 -1.1,1.46 -11.94,2.58 -18.72,2.58 -6.78,0 -17.62,-1.12 -18.73,-2.58 0,0 1.07,-13.12 0.86,-21.53 C 5.9,85.66 0.44,37.71 0.08,27.12 -0.13,20.88 0.08,12.56 0.35,6.79 0.51,2.78 0.67,0 0.67,0 h 46.61 c 0,0 0.16,2.77 0.32,6.78 0.24,5.77 0.48,14.09 0.27,20.34 -0.36,10.59 -5.82,58.54 -6.03,66.95 z"
           id="path6"
           inkscape:connector-curvature="0"
           style="fill:#e4ebf1" />
        <path
           class="cls-3"
           d="m 46.31,24.9 c 0.17,-6.38 0,-12.91 -0.56,-23.29 H 2.2 c -0.54,10.52 -0.74,17.1 -0.55,23.56 0,1.32 0.07,2.57 0.13,3.68 v 0 c 0.4,8 1.4,16.85 3.07,33.5 3,30.17 3.17,31.1 2.66,42.49 11.87,3.46 20,3.7 32.89,0 -0.51,-11.22 -0.38,-12 2.66,-42.5 1.67,-16.65 2.66,-25.53 3.07,-33.49 v 0 c 0.11,-1.19 0.15,-2.52 0.18,-3.95 z"
           id="path8"
           inkscape:connector-curvature="0"
           style="fill:#c99628" />
        <path
           class="cls-4"
           d="m 38.86,105.27 c -11.52,3.11 -19.38,2.9 -29.79,0 5.93,-2.27 23.82,-2.27 29.79,0 z"
           id="path10"
           inkscape:connector-curvature="0"
           style="fill:#b2b2b2" />
        <path
           class="cls-5"
           d="m 7.79,108.75 c 2.54,5.75 0.85,5.24 8.43,5.41 8.17,0.17 9.39,0.21 12.34,0.21 C 25,115.52 20,115.8 16.2,115.77 9.76,115.7 8,115.65 7.79,108.75 Z"
           id="path12"
           inkscape:connector-curvature="0"
           style="opacity:0.8;fill:#ffffff" />
        <line
           class="cls-6"
           x1="1.8099999"
           y1="10.93"
           x2="1.78"
           y2="10.93"
           id="line14"
           style="fill:none" />
        <path
           class="cls-7"
           d="M 46.14,10.93 H 1.81 C 1.92,7.46 2.07,4.2 2.2,1.61 h 43.55 c 0.13,2.6 0.25,5.87 0.39,9.32 z"
           id="path16"
           inkscape:connector-curvature="0"
           style="fill:#fff1da" />
        <g
           class="cls-8"
           id="g20"
           style="mix-blend-mode:multiply">
          <path
             class="cls-9"
             d="m 36.35,105.9 c 0.63,5.07 1.82,7.78 -0.1,8.28 -4.55,1.2 -4.32,-2.4 -5.73,-7.15 C 29.82,80.09 28.07,44.67 27.84,1.64 h 11.42 c 0.81,43.44 -3.95,66.89 -2.91,104.26 z"
             id="path18"
             inkscape:connector-curvature="0"
             style="fill:#f2f2f2" />
        </g>
        <g
           class="cls-10"
           id="g24"
           style="opacity:0.3">
          <path
             class="cls-11"
             d="m 23.5,63.05 c -2.38,37.39 -2.07,33.29 -1.83,44.42 0.11,5.33 -1.38,7.31 -5.18,7.31 -2.41,0 -3.33,-2 -3.21,-8.46 C 13.56,89.56 9.51,42.54 9.13,26 9,18.35 9.2,7.77 9.38,1.61 h 16.11 c 0.63,23.16 0.35,24.71 -1.99,61.44 z"
             id="path22"
             inkscape:connector-curvature="0"
             style="fill:#ffffff" />
        </g>
        <g
           class="cls-8"
           id="g28"
           style="mix-blend-mode:multiply">
          <path
             class="cls-12"
             d="M 45.75,1.61 H 42.19 C 44,37.14 41.36,32 39.53,62.34 c -2.42,40.09 -1,40.34 0.34,42.65 l 0.55,-0.15 C 39.91,93.58 40.04,92.77 43.08,62.34 46.4,29.25 47,26.82 45.75,1.61 Z"
             id="path26"
             inkscape:connector-curvature="0"
             style="fill:#cccccc" />
        </g>
        <g
           class="cls-8"
           id="g32"
           style="mix-blend-mode:multiply">
          <path
             class="cls-12"
             d="M 2.24,1.61 H 5.79 C 4,37.14 6.62,32 8.45,62.34 c 2.42,40.09 1,40.34 -0.33,42.65 L 7.57,104.84 C 8.07,93.58 7.94,92.77 4.9,62.34 1.59,29.25 0.94,26.82 2.24,1.61 Z"
             id="path30"
             inkscape:connector-curvature="0"
             style="fill:#cccccc" />
        </g>
      </g>
    </g>
  </g>
  <circle
     style="fill:#e5c720;stroke-width:1.14999998"
     id="path1269-7_1_"
     class="st4"
     cx="28.499998"
     cy="11.500001"
     r="11.5" />
  <g
     aria-label="3"
     transform="scale(1.0145442,0.98566428)"
     style="font-style:normal;font-variant:normal;font-weight:bold;font-stretch:normal;font-size:20.29088402px;font-family:'Segoe UI';-inkscape-font-specification:'Segoe UI Bold';fill:#401a00;stroke-width:1.01454413"
     id="text1539">
    <path
       d="m 24.101497,17.972038 v -2.724606 q 1.426703,1.040305 3.328973,1.040305 1.198827,0 1.86264,-0.515199 0.67372,-0.515198 0.67372,-1.43661 0,-0.951135 -0.832243,-1.466334 -0.822335,-0.515198 -2.268854,-0.515198 H 25.548015 V 9.9567429 h 1.218642 q 2.774144,0 2.774144,-1.8428244 0,-1.7338402 -2.130146,-1.7338402 -1.426703,0 -2.774145,0.9214122 V 4.7453147 q 1.496057,-0.752982 3.487496,-0.752982 2.179685,0 3.388419,0.9808582 1.218642,0.9808581 1.218642,2.5462681 0,2.784052 -2.823682,3.487496 v 0.04954 q 1.505964,0.188246 2.377837,1.09975 0.871874,0.901597 0.871874,2.219315 0,1.99144 -1.456425,3.150636 -1.456426,1.159196 -4.02251,1.159196 -2.1995,0 -3.576664,-0.713352 z"
       style="font-style:normal;font-variant:normal;font-weight:bold;font-stretch:normal;font-size:20.29088402px;font-family:'Segoe UI';-inkscape-font-specification:'Segoe UI Bold';fill:#401a00;stroke-width:1.01454413"
       id="path834" />
  </g>
</svg>
