<?xml version="1.0" encoding="utf-8"?>
<!-- Generator: Adobe Illustrator 24.1.1, SVG Export Plug-In . SVG Version: 6.00 Build 0)  -->
<svg version="1.1" id="Layer_1" xmlns="http://www.w3.org/2000/svg" xmlns:xlink="http://www.w3.org/1999/xlink" x="0px" y="0px"
	 viewBox="0 0 40 87.8" style="enable-background:new 0 0 40 87.8;" xml:space="preserve">
<style type="text/css">
	.st0{fill:#E4EBF1;}
	.st1{fill:#C99628;}
	.st2{fill:#B2B2B2;}
	.st3{opacity:0.8;fill:#FFFFFF;enable-background:new    ;}
	.st4{fill:none;}
	.st5{fill:#FFF1DA;}
	.st6{fill:#F2F2F2;}
	.st7{opacity:0.3;}
	.st8{fill:#FFFFFF;}
	.st9{fill:#CCCCCC;}
	.st10{fill:#E5C720;}
	.st11{fill:#401A00;}
	.st12{font-family:'SegoeUI-Bold';}
	.st13{font-size:20px;}
</style>
<g>
	<g id="Layer_2_1_">
		<g id="Layer_1-2">
			<path class="st0" d="M31.9,71c-0.1,5.6,0.6,14.4,0.6,14.4c-0.7,1-8,1.7-12.5,1.7S8.2,86.4,7.5,85.4c0,0,0.7-8.8,0.6-14.4
				c-0.1-5.6-3.8-37.6-4-44.7c-0.1-4.2,0-9.7,0.2-13.6c0.1-2.7,0.2-4.5,0.2-4.5h31.1c0,0,0.1,1.8,0.2,4.5c0.2,3.9,0.3,9.4,0.2,13.6
				C35.7,33.4,32.1,65.4,31.9,71z"/>
			<path class="st1" d="M34.9,24.9c0.1-4.3,0-8.6-0.4-15.5H5.5c-0.4,7-0.5,11.4-0.4,15.7c0,0.9,0,1.7,0.1,2.5l0,0
				c0.3,5.3,0.9,11.2,2,22.4C9.2,70,9.3,70.6,9,78.2c7.9,2.3,13.3,2.5,21.9,0c-0.3-7.5-0.3-8,1.8-28.4c1.1-11.1,1.8-17,2-22.3l0,0
				C34.8,26.7,34.9,25.8,34.9,24.9z"/>
			<path class="st2" d="M29.9,78.5c-7.7,2.1-12.9,1.9-19.9,0C14,77,25.9,77,29.9,78.5z"/>
			<path class="st3" d="M9.2,80.8c1.7,3.8,0.6,3.5,5.6,3.6c5.5,0.1,6.3,0.1,8.2,0.1c-2.4,0.8-5.7,1-8.2,0.9
				C10.5,85.5,9.3,85.4,9.2,80.8z"/>
			<line class="st4" x1="5.2" y1="15.6" x2="5.2" y2="15.6"/>
			<path class="st5" d="M34.8,15.6H5.2c0.1-2.3,0.2-4.5,0.3-6.2h29.1C34.6,11.1,34.7,13.3,34.8,15.6z"/>
			<g>
				<path class="st6" d="M28.2,78.9c0.4,3.4,1.2,5.2-0.1,5.5c-3,0.8-2.9-1.6-3.8-4.8c-0.5-18-1.6-41.6-1.8-70.3h7.6
					C30.7,38.4,27.6,54,28.2,78.9z"/>
			</g>
			<g class="st7">
				<path class="st8" d="M19.7,50.3c-1.6,24.9-1.4,22.2-1.2,29.6c0.1,3.6-0.9,4.9-3.5,4.9c-1.6,0-2.2-1.3-2.1-5.6
					C13,68,10.3,36.7,10.1,25.6c-0.1-5.1,0-12.2,0.2-16.3H21C21.4,24.8,21.2,25.8,19.7,50.3z"/>
			</g>
			<g>
				<path class="st9" d="M34.5,9.3h-2.4c1.2,23.7-0.6,20.3-1.8,40.5c-1.6,26.8-0.7,26.9,0.2,28.5l0.4-0.1c-0.3-7.5-0.3-8.1,1.8-28.4
					C35,27.8,35.4,26.2,34.5,9.3z"/>
			</g>
			<g>
				<path class="st9" d="M5.5,9.3h2.4C6.7,33.1,8.4,29.6,9.6,49.9c1.6,26.8,0.7,26.9-0.2,28.5L9,78.2c0.3-7.5,0.2-8.1-1.8-28.4
					C5.1,27.8,4.6,26.2,5.5,9.3z"/>
			</g>
		</g>
	</g>
</g>
<circle id="path1269-7" class="st10" cx="29.9" cy="10" r="10"/>
<text transform="matrix(1.0293 0 0 1 24.7915 16.9664)" class="st11 st12 st13">3</text>
</svg>
