<svg xmlns="http://www.w3.org/2000/svg" viewBox="0 0 47.95 118.18"><defs><style>.cls-1{isolation:isolate;}.cls-2{fill:#e4ebf1;}.cls-3{fill:#f1b20f;}.cls-4{fill:#fff1da;}.cls-5{fill:#b2b2b2;}.cls-6{mix-blend-mode:multiply;}.cls-7{fill:#f2f2f2;}.cls-8{opacity:0.3;}.cls-11,.cls-9{fill:#fff;}.cls-10{fill:#ccc;}.cls-11{opacity:0.8;}.cls-12{fill:none;}.cls-13{fill:#674019;}</style></defs><g class="cls-1"><g id="Layer_2" data-name="Layer 2"><g id="Layer_1-2" data-name="Layer 1"><path class="cls-2" d="M41.84,94.07c-.21,8.41.86,21.53.86,21.53-1.1,1.46-11.94,2.58-18.72,2.58S6.36,117.06,5.25,115.6c0,0,1.07-13.12.86-21.53S.44,37.71.08,27.12c-.21-6.24,0-14.56.27-20.33C.51,2.78.67,0,.67,0H47.28s.16,2.77.32,6.78c.24,5.77.48,14.09.27,20.34C47.51,37.71,42.05,85.66,41.84,94.07Z"/><path class="cls-3" d="M43.08,62.34c-3,30.49-3.17,31.28-2.66,42.5-12.86,3.7-21,3.46-32.89,0C8,93.45,7.88,92.52,4.87,62.35,1.57,29.44.9,26.93,2.2,1.61H45.75C47.05,26.85,46.39,29.35,43.08,62.34Z"/><path class="cls-4" d="M46.14,10.93H1.81c.11-3.47.26-6.73.39-9.32H45.75C45.88,4.21,46,7.48,46.14,10.93Z"/><path class="cls-3" d="M46.17,28.85c-17.29-1.87-27-1.87-44.39,0-.27-4.7-.17-11.63,0-17.92H46.14C46.34,17.2,46.44,24.12,46.17,28.85Z"/><path class="cls-5" d="M38.86,105.27c-11.52,3.11-19.38,2.9-29.79,0C15,103,32.89,103,38.86,105.27Z"/><g class="cls-6"><path class="cls-7" d="M36.35,105.9c.63,5.07,1.82,7.78-.1,8.28-4.55,1.2-4.32-2.4-5.73-7.15-.7-26.94-2.45-62.36-2.68-105.39H39.26C40.07,45.08,35.31,68.53,36.35,105.9Z"/></g><g class="cls-8"><path class="cls-9" d="M23.5,63.05c-2.38,37.39-2.07,33.29-1.83,44.42.11,5.33-1.38,7.31-5.18,7.31-2.41,0-3.33-2-3.21-8.46C13.56,89.56,9.51,42.54,9.13,26,9,18.35,9.2,7.77,9.38,1.61H25.49C26.12,24.77,25.84,26.32,23.5,63.05Z"/></g><g class="cls-6"><path class="cls-10" d="M45.75,1.61H42.19C44,37.14,41.36,32,39.53,62.34c-2.42,40.09-1,40.34.34,42.65l.55-.15c-.51-11.26-.38-12.07,2.66-42.5C46.4,29.25,47,26.82,45.75,1.61Z"/></g><g class="cls-6"><path class="cls-10" d="M2.24,1.61H5.79C4,37.14,6.62,32,8.45,62.34c2.42,40.09,1,40.34-.33,42.65l-.55-.15c.5-11.26.37-12.07-2.67-42.5C1.59,29.25.94,26.82,2.24,1.61Z"/></g><path class="cls-11" d="M7.79,108.75c2.54,5.75.85,5.24,8.43,5.41,8.17.17,9.39.21,12.34.21C25,115.52,20,115.8,16.2,115.77,9.76,115.7,8,115.65,7.79,108.75Z"/><line class="cls-12" x1="1.81" y1="10.93" x2="1.78" y2="10.93"/><path class="cls-13" d="M30.91,47.85H17.75V46.23a6.61,6.61,0,0,1,1.06-3.55,17,17,0,0,1,3.87-4c1.21-1,2.11-1.73,2.71-2.32a6.76,6.76,0,0,0,1.33-1.82,4.51,4.51,0,0,0,.43-2,3.19,3.19,0,0,0-.92-2.45,3.49,3.49,0,0,0-2.51-.88,6.35,6.35,0,0,0-2.62.6,8.94,8.94,0,0,0-2.56,1.8V28.44a9,9,0,0,1,5.79-1.91A6.57,6.57,0,0,1,28.93,28a5.46,5.46,0,0,1,1.66,4.25,7.81,7.81,0,0,1-.53,2.91,8.38,8.38,0,0,1-1.65,2.51,36.75,36.75,0,0,1-3.93,3.38,14.35,14.35,0,0,0-2.33,2.15,2.69,2.69,0,0,0-.7,1.63v.07h9.46Z"/></g></g></g></svg>