<?xml version="1.0" encoding="utf-8"?>
<!-- Generator: Adobe Illustrator 24.1.1, SVG Export Plug-In . SVG Version: 6.00 Build 0)  -->
<svg version="1.1" id="Layer_1" xmlns="http://www.w3.org/2000/svg" xmlns:xlink="http://www.w3.org/1999/xlink" x="0px" y="0px"
	 viewBox="0 0 48 87.8" style="enable-background:new 0 0 48 87.8;" xml:space="preserve">
<style type="text/css">
	.st0{fill:#E4EBF1;}
	.st1{fill:#F1B20F;}
	.st2{fill:#FFF1DA;}
	.st3{fill:#B2B2B2;}
	.st4{fill:#F2F2F2;}
	.st5{opacity:0.3;}
	.st6{fill:#FFFFFF;}
	.st7{fill:#CCCCCC;}
	.st8{opacity:0.8;fill:#FFFFFF;enable-background:new    ;}
	.st9{fill:none;}
	.st10{fill:#E5C720;}
	.st11{fill:#401A00;}
	.st12{font-family:'SegoeUI-Bold';}
	.st13{font-size:20px;}
</style>
<g>
	<g id="Layer_2_1_">
		<g id="Layer_1-2">
			<path class="st0" d="M35.8,71.7C35.7,77.3,36.4,86,36.4,86c-0.7,1-8,1.7-12.5,1.7S12.1,87,11.4,86c0,0,0.7-8.8,0.6-14.4
				C11.8,66.1,8.2,34.1,8,27c-0.1-4.2,0-9.7,0.2-13.6c0.1-2.7,0.2-4.5,0.2-4.5h31.1c0,0,0.1,1.8,0.2,4.5c0.2,3.9,0.3,9.4,0.2,13.6
				C39.6,34.1,36,66.1,35.8,71.7z"/>
			<path class="st1" d="M36.6,50.5c-2,20.3-2.1,20.9-1.8,28.4c-8.6,2.5-14,2.3-21.9,0c0.3-7.6,0.2-8.2-1.8-28.4
				C8.9,28.6,8.5,26.9,9.4,10h29.1C39.3,26.8,38.9,28.5,36.6,50.5z"/>
			<path class="st2" d="M38.7,16.2H9.1c0.1-2.3,0.2-4.5,0.3-6.2h29.1C38.5,11.7,38.6,13.9,38.7,16.2z"/>
			<path class="st1" d="M38.7,28.2c-11.5-1.2-18-1.2-29.6,0c-0.2-3.1-0.1-7.8,0-12h29.6C38.8,20.4,38.9,25,38.7,28.2z"/>
			<path class="st3" d="M33.8,79.1c-7.7,2.1-12.9,1.9-19.9,0C17.9,77.6,29.8,77.6,33.8,79.1z"/>
			<g>
				<path class="st4" d="M32.2,79.6c0.4,3.4,1.2,5.2-0.1,5.5c-3,0.8-2.9-1.6-3.8-4.8c-0.5-18-1.6-41.6-1.8-70.3h7.6
					C34.6,39,31.5,54.6,32.2,79.6z"/>
			</g>
			<g class="st5">
				<path class="st6" d="M23.6,51c-1.6,24.9-1.4,22.2-1.2,29.6c0.1,3.6-0.9,4.9-3.5,4.9c-1.6,0-2.2-1.3-2.1-5.6
					c0.2-11.2-2.5-42.6-2.8-53.6c-0.1-5.1,0-12.2,0.2-16.3h10.7C25.3,25.4,25.1,26.5,23.6,51z"/>
			</g>
			<g>
				<path class="st7" d="M38.4,10h-2.4c1.2,23.7-0.6,20.3-1.8,40.5c-1.6,26.8-0.7,26.9,0.2,28.5l0.4-0.1c-0.3-7.5-0.3-8.1,1.8-28.4
					C38.9,28.4,39.3,26.8,38.4,10z"/>
			</g>
			<g>
				<path class="st7" d="M9.4,10h2.4c-1.2,23.7,0.6,20.3,1.8,40.5c1.6,26.8,0.7,26.9-0.2,28.5l-0.4-0.1c0.3-7.5,0.2-8.1-1.8-28.4
					C9,28.4,8.5,26.8,9.4,10z"/>
			</g>
			<path class="st8" d="M13.1,81.5c1.7,3.8,0.6,3.5,5.6,3.6c5.5,0.1,6.3,0.1,8.2,0.1c-2.4,0.8-5.7,1-8.2,0.9
				C14.4,86.1,13.2,86.1,13.1,81.5z"/>
			<line class="st9" x1="9.1" y1="16.2" x2="9.1" y2="16.2"/>
		</g>
	</g>
</g>
<circle id="path1269-7" class="st10" cx="37.5" cy="10" r="10"/>
<text transform="matrix(1.0293 0 0 1 31.8901 16.7128)" class="st11 st12 st13">2</text>
</svg>
