<svg xmlns="http://www.w3.org/2000/svg" viewBox="0 0 48.01 116.65"><defs><style>.cls-1{isolation:isolate;}.cls-2{fill:#eaeaea;}.cls-3{fill:#d3d3d3;}.cls-4,.cls-9{fill:#d1d1d1;}.cls-4,.cls-8{mix-blend-mode:multiply;}.cls-5{fill:#60a467;}.cls-10,.cls-6{fill:#fff;}.cls-7{fill:#fa364d;}.cls-10{opacity:0.2;}.cls-11{fill:#1b5d22;}</style></defs><g class="cls-1"><g id="Layer_2" data-name="Layer 2"><g id="Layer_1-2" data-name="Layer 1"><path class="cls-2" d="M9.22,112.91a13.88,13.88,0,0,1-5.75-1.12c2.21,2.29,2.16,4.85,4.85,4.85H39.58c2.69,0,2.66-2.58,4.85-4.85a13.88,13.88,0,0,1-5.75,1.12Z"/><path class="cls-3" d="M13.85,8.84h3a1.75,1.75,0,0,1,.9-.7l1.3-.47a1.85,1.85,0,0,1,2.36,1.12v.05h.91L21,2.28A3.42,3.42,0,0,0,16.59.2l-2.42.86a3.43,3.43,0,0,0-2.08,4.39Zm1.83-6,1.54-.55A2.17,2.17,0,0,1,20,3.58l.38,1.88a4.72,4.72,0,0,0-2.77.31,5.28,5.28,0,0,0-2.35,1.59L14.35,5.6A2.18,2.18,0,0,1,15.68,2.81Z"/><path class="cls-3" d="M19.09,8.17l-1,.35a1.34,1.34,0,0,0-.51.32H20.8A1.4,1.4,0,0,0,19.09,8.17Z"/><path class="cls-4" d="M13.62,8.39l.23.45h3a1.83,1.83,0,0,1,.43-.45Z"/><path class="cls-4" d="M21,2.28A3.42,3.42,0,0,0,17.9,0a5.63,5.63,0,0,1,2.4,4.9.17.17,0,0,1,0,.07l.1.48-.13,0a3,3,0,0,1-.78,2.15,1.83,1.83,0,0,1,1.95,1.21v.05h.91Z"/><path class="cls-4" d="M19.09,8.17l-1,.35a1.34,1.34,0,0,0-.51.32H20.8A1.4,1.4,0,0,0,19.09,8.17Z"/><path class="cls-2" d="M42.44,10.09a1.13,1.13,0,0,0-1-1.25H6.54a1.13,1.13,0,0,0-1,1.25,1.14,1.14,0,0,0,1,1.26H41.47A1.14,1.14,0,0,0,42.44,10.09Z"/><path class="cls-3" d="M0,65.66v39.55c0,5.91,3.53,8.91,10.49,8.91h27c7,0,10.49-3,10.49-8.91V65.66Z"/><path class="cls-3" d="M48,47.38V24.06c0-3.15-1.87-5.24-3.68-7.27-1.53-1.7-3-3.32-3.2-5.44H6.93c-.24,1.91-1.63,3.49-3.1,5.15C2,18.63,0,20.84,0,24.06V47.38Z"/><path class="cls-4" d="M41.25,12a4,4,0,0,1-.12-.69H6.93a5.27,5.27,0,0,1-.14.69Z"/><path class="cls-5" d="M48,47.38V24.06a8.24,8.24,0,0,0-1.78-5H1.73a8.47,8.47,0,0,0-1.73,5V47.38Z"/><path class="cls-5" d="M0,45.32v59.89a8.49,8.49,0,0,0,2.25,6.32H45.76A8.49,8.49,0,0,0,48,105.21V44.62Z"/><ellipse class="cls-6" cx="24.01" cy="56.72" rx="21.49" ry="23.7"/><ellipse class="cls-7" cx="24.01" cy="56.91" rx="19.78" ry="21.82"/><ellipse class="cls-6" cx="24.01" cy="56.72" rx="16.5" ry="18.2"/><g class="cls-8"><path class="cls-9" d="M34.39,11.35l1,0a8.59,8.59,0,0,1,.07,2.22,8.74,8.74,0,0,0-.1,1.84c0-.14.29,1.06.14.74a14.78,14.78,0,0,0,1.26,2.1,2.65,2.65,0,0,1,1.09,2.23V47.38H48V24.06c0-.18,0-.35,0-.52a.41.41,0,0,0,0-.11c0-.17,0-.33,0-.49a.17.17,0,0,1,0-.07c0-.14-.05-.28-.08-.41l0-.11c0-.15-.07-.29-.11-.43a.56.56,0,0,0,0-.12c0-.11-.07-.23-.11-.34a.36.36,0,0,1,0-.11c0-.13-.11-.25-.16-.38l-.07-.15c0-.09-.09-.19-.14-.28a1.74,1.74,0,0,0-.1-.19l-.14-.26-.11-.17c0-.08-.09-.15-.14-.23l-.17-.27-.11-.15-.14-.2h0c-.58-.8-1.25-1.54-1.9-2.28-1.53-1.7-3-3.32-3.2-5.44h.34a1.14,1.14,0,0,0,1-1.26,1.13,1.13,0,0,0-1-1.25H34.22A2.85,2.85,0,0,1,34.39,11.35Z"/><path class="cls-9" d="M37.81,47.38v62.35c0,.13,0,.25,0,.37a7,7,0,0,1-1.39,4,6.46,6.46,0,0,1-1.31,0,7.52,7.52,0,0,1-.07,2.57h4.83c2.24,0,3.19-3.4,3.54-3.55a7.09,7.09,0,0,0,3.71-3.45.43.43,0,0,0,0-.07l.12-.28a1.17,1.17,0,0,0,.05-.11c0-.09.07-.18.1-.26l.06-.15c0-.08.05-.17.08-.26s0-.11.05-.17,0-.16.07-.25,0-.13,0-.19,0-.16.05-.24a2.07,2.07,0,0,0,0-.22c0-.08,0-.16,0-.24l0-.25,0-.23,0-.27a1.5,1.5,0,0,0,0-.22c0-.11,0-.22,0-.33s0-.11,0-.17,0-.35,0-.53V47.38Z"/></g><path class="cls-10" d="M4.41,47.38c0,42.64.9,59.69,1.88,59.69S8.18,90.76,8.18,47.38Z"/><path class="cls-10" d="M8.18,47.38v-4c0-11.5-.09-19-.26-23.83.08-2.33,1.55-3.64,2.27-5.71.29-.85-.45-.8-.69-.8-.9,0-4.4,4.25-4.74,5.9a4.35,4.35,0,0,0-.06.61c-.19,4.86-.3,12.33-.3,23.83v4Z"/><path class="cls-11" d="M29.85,65.66H18.37V64.24a5.87,5.87,0,0,1,.92-3.1,15,15,0,0,1,3.38-3.45,27.23,27.23,0,0,0,2.36-2,5.47,5.47,0,0,0,1.16-1.58,3.88,3.88,0,0,0,.39-1.7,2.82,2.82,0,0,0-.81-2.15,3.07,3.07,0,0,0-2.19-.76,5.55,5.55,0,0,0-2.29.52,7.78,7.78,0,0,0-2.23,1.57V48.72a8.31,8.31,0,0,1,2.33-1.26,8.41,8.41,0,0,1,2.72-.41,5.76,5.76,0,0,1,4,1.32,4.78,4.78,0,0,1,1.44,3.71,6.72,6.72,0,0,1-.46,2.54,7.27,7.27,0,0,1-1.44,2.19,32.17,32.17,0,0,1-3.43,2.95,12.2,12.2,0,0,0-2,1.88,2.32,2.32,0,0,0-.61,1.41v.07h8.25Z"/></g></g></g></svg>