<?xml version="1.0" encoding="UTF-8" standalone="no"?>
<svg
   xmlns:dc="http://purl.org/dc/elements/1.1/"
   xmlns:cc="http://creativecommons.org/ns#"
   xmlns:rdf="http://www.w3.org/1999/02/22-rdf-syntax-ns#"
   xmlns:svg="http://www.w3.org/2000/svg"
   xmlns="http://www.w3.org/2000/svg"
   xmlns:sodipodi="http://sodipodi.sourceforge.net/DTD/sodipodi-0.dtd"
   xmlns:inkscape="http://www.inkscape.org/namespaces/inkscape"
   viewBox="0 0 50.000001 100"
   version="1.1"
   id="svg52"
   sodipodi:docname="Regularcanlager.svg"
   width="50"
   height="100"
   inkscape:version="0.92.4 (5da689c313, 2019-01-14)">
  <metadata
     id="metadata56">
    <rdf:RDF>
      <cc:Work
         rdf:about="">
        <dc:format>image/svg+xml</dc:format>
        <dc:type
           rdf:resource="http://purl.org/dc/dcmitype/StillImage" />
        <dc:title></dc:title>
      </cc:Work>
    </rdf:RDF>
  </metadata>
  <sodipodi:namedview
     pagecolor="#ffffff"
     bordercolor="#666666"
     borderopacity="1"
     objecttolerance="10"
     gridtolerance="10"
     guidetolerance="10"
     inkscape:pageopacity="0"
     inkscape:pageshadow="2"
     inkscape:window-width="1680"
     inkscape:window-height="966"
     id="namedview54"
     showgrid="false"
     inkscape:snap-nodes="false"
     inkscape:snap-bbox="true"
     inkscape:bbox-paths="false"
     inkscape:snap-bbox-edge-midpoints="false"
     inkscape:bbox-nodes="true"
     inkscape:snap-page="true"
     inkscape:zoom="5.7223214"
     inkscape:cx="49.601284"
     inkscape:cy="51.197076"
     inkscape:window-x="-8"
     inkscape:window-y="-8"
     inkscape:window-maximized="1"
     inkscape:current-layer="svg52" />
  <defs
     id="defs4">
    <style
       id="style2">.cls-1{isolation:isolate;}.cls-2{fill:#eaeaea;}.cls-3{fill:#d3d3d3;}.cls-4,.cls-9{fill:#d1d1d1;}.cls-4,.cls-8{mix-blend-mode:multiply;}.cls-5{fill:#60a467;}.cls-10,.cls-6{fill:#fff;}.cls-7{fill:#fa364d;}.cls-10{opacity:0.2;}.cls-11{fill:#1b5d22;}</style>
  </defs>
  <g
     class="cls-1"
     id="g50"
     style="isolation:isolate"
     transform="matrix(0.83271626,0,0,0.83271626,4.8586528,2.673669)">
    <g
       id="Layer_2"
       data-name="Layer 2">
      <g
         id="Layer_1-2"
         data-name="Layer 1">
        <path
           class="cls-2"
           d="m 9.22,112.91 a 13.88,13.88 0 0 1 -5.75,-1.12 c 2.21,2.29 2.16,4.85 4.85,4.85 h 31.26 c 2.69,0 2.66,-2.58 4.85,-4.85 a 13.88,13.88 0 0 1 -5.75,1.12 z"
           id="path6"
           inkscape:connector-curvature="0"
           style="fill:#eaeaea" />
        <path
           class="cls-3"
           d="m 13.85,8.84 h 3 a 1.75,1.75 0 0 1 0.9,-0.7 l 1.3,-0.47 a 1.85,1.85 0 0 1 2.36,1.12 v 0.05 h 0.91 L 21,2.28 A 3.42,3.42 0 0 0 16.59,0.2 l -2.42,0.86 a 3.43,3.43 0 0 0 -2.08,4.39 z m 1.83,-6 1.54,-0.55 A 2.17,2.17 0 0 1 20,3.58 l 0.38,1.88 A 4.72,4.72 0 0 0 17.61,5.77 5.28,5.28 0 0 0 15.26,7.36 L 14.35,5.6 a 2.18,2.18 0 0 1 1.33,-2.79 z"
           id="path8"
           inkscape:connector-curvature="0"
           style="fill:#d3d3d3" />
        <path
           class="cls-3"
           d="m 19.09,8.17 -1,0.35 A 1.34,1.34 0 0 0 17.58,8.84 H 20.8 A 1.4,1.4 0 0 0 19.09,8.17 Z"
           id="path10"
           inkscape:connector-curvature="0"
           style="fill:#d3d3d3" />
        <path
           class="cls-4"
           d="m 13.62,8.39 0.23,0.45 h 3 a 1.83,1.83 0 0 1 0.43,-0.45 z"
           id="path12"
           inkscape:connector-curvature="0"
           style="mix-blend-mode:multiply;fill:#d1d1d1" />
        <path
           class="cls-4"
           d="M 21,2.28 A 3.42,3.42 0 0 0 17.9,0 a 5.63,5.63 0 0 1 2.4,4.9 0.17,0.17 0 0 1 0,0.07 l 0.1,0.48 h -0.13 a 3,3 0 0 1 -0.78,2.15 1.83,1.83 0 0 1 1.95,1.21 v 0.05 h 0.91 z"
           id="path14"
           inkscape:connector-curvature="0"
           style="mix-blend-mode:multiply;fill:#d1d1d1" />
        <path
           class="cls-4"
           d="m 19.09,8.17 -1,0.35 A 1.34,1.34 0 0 0 17.58,8.84 H 20.8 A 1.4,1.4 0 0 0 19.09,8.17 Z"
           id="path16"
           inkscape:connector-curvature="0"
           style="mix-blend-mode:multiply;fill:#d1d1d1" />
        <path
           class="cls-2"
           d="m 42.44,10.09 a 1.13,1.13 0 0 0 -1,-1.25 H 6.54 a 1.13,1.13 0 0 0 -1,1.25 1.14,1.14 0 0 0 1,1.26 h 34.93 a 1.14,1.14 0 0 0 0.97,-1.26 z"
           id="path18"
           inkscape:connector-curvature="0"
           style="fill:#eaeaea" />
        <path
           class="cls-3"
           d="m 0,65.66 v 39.55 c 0,5.91 3.53,8.91 10.49,8.91 h 27 c 7,0 10.49,-3 10.49,-8.91 V 65.66 Z"
           id="path20"
           inkscape:connector-curvature="0"
           style="fill:#d3d3d3" />
        <path
           class="cls-3"
           d="M 48,47.38 V 24.06 c 0,-3.15 -1.87,-5.24 -3.68,-7.27 -1.53,-1.7 -3,-3.32 -3.2,-5.44 H 6.93 C 6.69,13.26 5.3,14.84 3.83,16.5 2,18.63 0,20.84 0,24.06 v 23.32 z"
           id="path22"
           inkscape:connector-curvature="0"
           style="fill:#d3d3d3" />
        <path
           class="cls-4"
           d="M 41.25,12 A 4,4 0 0 1 41.13,11.31 H 6.93 A 5.27,5.27 0 0 1 6.79,12 Z"
           id="path24"
           inkscape:connector-curvature="0"
           style="mix-blend-mode:multiply;fill:#d1d1d1" />
        <path
           class="cls-5"
           d="M 48,47.38 V 24.06 a 8.24,8.24 0 0 0 -1.78,-5 H 1.73 a 8.47,8.47 0 0 0 -1.73,5 v 23.32 z"
           id="path26"
           inkscape:connector-curvature="0"
           style="fill:#60a467" />
        <path
           class="cls-5"
           d="m 0,45.32 v 59.89 a 8.49,8.49 0 0 0 2.25,6.32 H 45.76 A 8.49,8.49 0 0 0 48,105.21 V 44.62 Z"
           id="path28"
           inkscape:connector-curvature="0"
           style="fill:#60a467" />
        <ellipse
           class="cls-7"
           cx="24.01"
           cy="56.91"
           rx="19.780001"
           ry="21.82"
           id="ellipse32"
           style="fill:#fa364d" />
        <ellipse
           class="cls-6"
           cx="24.01"
           cy="56.720001"
           rx="16.5"
           ry="18.200001"
           id="ellipse34"
           style="fill:#ffffff" />
        <g
           class="cls-8"
           id="g40"
           style="mix-blend-mode:multiply">
          <path
             class="cls-9"
             d="m 34.39,11.35 h 1 a 8.59,8.59 0 0 1 0.07,2.22 8.74,8.74 0 0 0 -0.1,1.84 c 0,-0.14 0.29,1.06 0.14,0.74 a 14.78,14.78 0 0 0 1.26,2.1 2.65,2.65 0 0 1 1.09,2.23 v 26.9 H 48 V 24.06 c 0,-0.18 0,-0.35 0,-0.52 a 0.41,0.41 0 0 0 0,-0.11 c 0,-0.17 0,-0.33 0,-0.49 a 0.17,0.17 0 0 1 0,-0.07 c 0,-0.14 -0.05,-0.28 -0.08,-0.41 v -0.11 c 0,-0.15 -0.07,-0.29 -0.11,-0.43 a 0.56,0.56 0 0 0 0,-0.12 c 0,-0.11 -0.07,-0.23 -0.11,-0.34 a 0.36,0.36 0 0 1 0,-0.11 c 0,-0.13 -0.11,-0.25 -0.16,-0.38 l -0.07,-0.15 c 0,-0.09 -0.09,-0.19 -0.14,-0.28 a 1.74,1.74 0 0 0 -0.1,-0.19 l -0.14,-0.26 -0.11,-0.17 c 0,-0.08 -0.09,-0.15 -0.14,-0.23 l -0.17,-0.27 -0.11,-0.15 -0.14,-0.2 v 0 c -0.58,-0.8 -1.25,-1.54 -1.9,-2.28 -1.53,-1.7 -3,-3.32 -3.2,-5.44 h 0.34 a 1.14,1.14 0 0 0 1,-1.26 1.13,1.13 0 0 0 -1,-1.25 h -7.44 a 2.85,2.85 0 0 1 0.17,2.51 z"
             id="path36"
             inkscape:connector-curvature="0"
             style="fill:#d1d1d1" />
          <path
             class="cls-9"
             d="m 37.81,47.38 v 62.35 c 0,0.13 0,0.25 0,0.37 a 7,7 0 0 1 -1.39,4 6.46,6.46 0 0 1 -1.31,0 7.52,7.52 0 0 1 -0.07,2.57 h 4.83 c 2.24,0 3.19,-3.4 3.54,-3.55 a 7.09,7.09 0 0 0 3.71,-3.45 0.43,0.43 0 0 0 0,-0.07 l 0.12,-0.28 a 1.17,1.17 0 0 0 0.05,-0.11 c 0,-0.09 0.07,-0.18 0.1,-0.26 l 0.06,-0.15 c 0,-0.08 0.05,-0.17 0.08,-0.26 0.03,-0.09 0,-0.11 0.05,-0.17 0.05,-0.06 0,-0.16 0.07,-0.25 0.07,-0.09 0,-0.13 0,-0.19 0,-0.06 0,-0.16 0.05,-0.24 a 2.07,2.07 0 0 0 0,-0.22 c 0,-0.08 0,-0.16 0,-0.24 v -0.25 -0.23 -0.27 a 1.5,1.5 0 0 0 0,-0.22 c 0,-0.11 0,-0.22 0,-0.33 0,-0.11 0,-0.11 0,-0.17 0,-0.06 0,-0.35 0,-0.53 V 47.38 Z"
             id="path38"
             inkscape:connector-curvature="0"
             style="fill:#d1d1d1" />
        </g>
        <path
           class="cls-10"
           d="m 4.41,47.38 c 0,42.64 0.9,59.69 1.88,59.69 0.98,0 1.89,-16.31 1.89,-59.69 z"
           id="path42"
           inkscape:connector-curvature="0"
           style="opacity:0.2;fill:#ffffff" />
        <path
           class="cls-10"
           d="m 8.18,47.38 v -4 c 0,-11.5 -0.09,-19 -0.26,-23.83 0.08,-2.33 1.55,-3.64 2.27,-5.71 0.29,-0.85 -0.45,-0.8 -0.69,-0.8 -0.9,0 -4.4,4.25 -4.74,5.9 A 4.35,4.35 0 0 0 4.7,19.55 C 4.51,24.41 4.4,31.88 4.4,43.38 v 4 z"
           id="path44"
           inkscape:connector-curvature="0"
           style="opacity:0.2;fill:#ffffff" />
      </g>
    </g>
  </g>
  <g
     transform="matrix(3.7795276,0,0,3.7795276,-430.88052,-793.09906)"
     id="g1732">
    <circle
       r="3.0427084"
       cy="212.8835"
       cx="124.19026"
       class="st4"
       id="path1269-7"
       style="fill:#e5c720;stroke-width:0.3042708" />
    <text
       y="217.77104"
       x="120.93362"
       id="text1523"
       class="st5 st2 st3"
       transform="scale(1.0145442,0.98566427)"
       style="font-style:normal;font-variant:normal;font-weight:bold;font-stretch:normal;font-size:5.36862993px;font-family:'Segoe UI';-inkscape-font-specification:'Segoe UI Bold';fill:#401a00;stroke-width:0.26843148">2</text>
  </g>
</svg>
