<?xml version="1.0" encoding="utf-8"?>
<!-- Generator: Adobe Illustrator 24.1.1, SVG Export Plug-In . SVG Version: 6.00 Build 0)  -->
<svg version="1.1" id="Layer_1" xmlns="http://www.w3.org/2000/svg" xmlns:xlink="http://www.w3.org/1999/xlink" x="0px" y="0px"
	 viewBox="0 0 40 79.9" style="enable-background:new 0 0 40 79.9;" xml:space="preserve">
<style type="text/css">
	.st0{fill:#F2F2F2;}
	.st1{fill:#CCCCCC;}
	.st2{opacity:0.5;fill:#F8F9E9;enable-background:new    ;}
	.st3{fill:#E4EBF1;}
	.st4{fill:#84200C;}
	.st5{fill:#9B2310;}
	.st6{fill:#9B2815;}
	.st7{opacity:0.3;fill:#FFFFFF;enable-background:new    ;}
	.st8{fill:#F8F9E9;}
	.st9{fill:#0080FF;}
	.st10{fill:#EBEBEB;}
	.st11{font-family:'SegoeUI-Bold';}
	.st12{font-size:13.3354px;}
</style>
<g id="Layer_2_1_">
	<g id="Layer_1-2">
		<path class="st0" d="M33.6,77c0,1.4-6.3,2.5-14,2.5s-14-1.1-14-2.5c0-0.1,0-0.3,0-0.4c0.4-0.7,2.1-1.3,5.2-1.9
			c2.4-0.5,4.6-1.8,7.7-1.8c7,0,11.5,2.5,15,3.6C33.6,76.7,33.6,76.9,33.6,77z"/>
		<path class="st1" d="M25.6,73.6L25.6,73.6l-0.3-0.1l0,0c-1.7-0.7-3.2-1.7-3.7-2.8c-1.2-2.3-1.5-15.6,0.6-19.6h-4.9
			c2.1,4,1.7,17.3,0.6,19.6c-0.5,1-1.7,1.9-3.2,2.6c-0.4,0.2-0.8,0.4-1.3,0.5c-0.4,0.2-0.7,0.6-0.7,0.9c0,1.2,3.2,2.1,7,2.1
			s7-0.9,7-2.1C26.7,74.3,26.3,73.9,25.6,73.6z M18.5,52.5c-0.1-0.3-0.1-0.5,0-0.8c0.2-0.4,2.2-0.4,2.5,0c0.1,0.3,0,0.7-0.1,0.8
			c-0.1,0.1-0.4,0.1-0.4,0.3c-0.1,4.9-0.2,9.9,0,18.3c0,0.3-0.3,0.6-0.6,0.6c0,0,0,0,0,0h-0.2c-0.3,0-0.6-0.3-0.6-0.6
			c0.2-8.5,0.1-13.4,0-18.3C18.9,52.7,18.7,52.7,18.5,52.5z"/>
		<path class="st1" d="M33,75.9c-0.9-0.4-1.8-0.7-2.8-0.9L30,74.9c-3.1-0.6-7.4-2.2-8.5-4.2c-1.2-2.3-1.5-15.6,0.6-19.6h-4.9
			c2.1,4,1.7,17.3,0.6,19.6c-0.9,1.8-4.3,3.2-7.1,4l0,0C9.8,74.8,9,75,8.1,75.2l0,0c-0.6,0.2-1.2,0.4-1.8,0.7
			c-0.4,0.2-0.6,0.5-0.6,0.8c0,1.2,4.5,2.2,10.6,2.4c0.5,0,1.1,0,1.6,0.1h1.8h1.4h0.7c1.2,0,2.4-0.1,3.5-0.2l0.5-0.1
			c0.4,0,0.7-0.1,1.1-0.1c4.1-0.4,6.8-1.2,6.8-2.2C33.6,76.4,33.4,76.1,33,75.9z M18.5,52.5c-0.1-0.3-0.1-0.5,0-0.8
			c0.2-0.4,2.2-0.4,2.5,0c0.1,0.3,0,0.7-0.1,0.8c-0.1,0.1-0.4,0.1-0.4,0.3c-0.1,4.9-0.2,9.8,0,18.3c0,0.3-0.3,0.6-0.6,0.6
			c0,0,0,0,0,0h-0.2c-0.3,0-0.6-0.3-0.6-0.6c0,0,0,0,0,0c0.2-8.5,0.1-13.4,0-18.3C18.9,52.8,18.7,52.7,18.5,52.5z M19.7,78.6
			c-5.6,0-10.2-1.1-10.2-2.5c0-0.4,0.3-0.7,1-1.1c0.6-0.3,1.2-0.5,1.9-0.7c2.4-0.6,4.9-0.8,7.4-0.8c2.7-0.1,5.4,0.3,8.1,1l0,0
			l0.4,0.2l0,0c1,0.4,1.6,0.8,1.6,1.3C29.8,77.4,25.3,78.6,19.7,78.6z"/>
		<path class="st2" d="M22.2,49.7c-0.8,0.3-1.7,0.4-2.5,0.4c-0.9,0.1-1.7-0.1-2.5-0.4c0.8-0.2,1.7-0.2,2.5-0.2
			C20.5,49.5,21.4,49.5,22.2,49.7z M19.7,50.3c-0.5,0-1,0-1.4,0.1c0.5,0.2,0.9,0.2,1.4,0.2c0.5,0,1,0,1.4-0.2
			C20.6,50.3,20.2,50.3,19.7,50.3L19.7,50.3z M19.7,50.9c-0.3,0-0.6,0-0.9,0c0.3,0.1,0.6,0.1,0.8,0.1c0.3,0,0.6,0,0.8-0.1
			C20.2,50.9,19.9,50.9,19.7,50.9L19.7,50.9z"/>
		<path class="st3" d="M33.5,31.6L33.5,31.6v0.3c0,0.1,0,0.2,0,0.3c0,0.1,0,0.3,0,0.4c0,0.1,0,0.1,0,0.2c0,0.3-0.1,0.6-0.1,0.9
			c0,0.1,0,0.3-0.1,0.4c0,0.2-0.1,0.3-0.1,0.5c0,0.2-0.1,0.4-0.1,0.7c-0.1,0.2,0,0.2-0.1,0.3s-0.1,0.3-0.1,0.5
			c-0.1,0.4-0.2,0.8-0.3,1.1l-0.2,0.6c0,0.1,0,0.1-0.1,0.2l-0.1,0.3c0,0,0,0.1-0.1,0.1l-0.1,0.3c0,0,0,0.1,0,0.1
			c0,0.1-0.1,0.2-0.1,0.3l-0.1,0.2c0,0.1-0.1,0.2-0.1,0.3c0,0.1-0.1,0.1-0.1,0.2c0,0.1-0.1,0.2-0.2,0.3c-0.1,0.2-0.1,0.3-0.2,0.4
			v0.1v0.1c-0.1,0.2-0.3,0.5-0.4,0.7l0,0c-0.1,0.2-0.2,0.3-0.3,0.5l0,0L30.5,42c0,0.1-0.1,0.1-0.1,0.2c0,0.1-0.1,0.2-0.2,0.2
			c-0.1,0.2-0.2,0.4-0.4,0.5l0,0c-0.1,0.1-0.2,0.3-0.3,0.4c0,0,0,0.1-0.1,0.1c0,0.1-0.1,0.1-0.1,0.1c-0.2,0.3-0.4,0.5-0.7,0.8
			c-0.1,0.1-0.2,0.2-0.3,0.3c-0.1,0.1-0.4,0.4-0.6,0.6l-0.2,0.2c-0.3,0.2-0.6,0.5-0.9,0.7l-0.1,0.1l-0.3,0.2l0,0l-0.3,0.2
			c-0.3,0.2-0.6,0.3-0.8,0.5H25l-0.2,0.1l-0.2,0.1l-0.1,0c-0.1,0-0.2,0.1-0.3,0.1c0,0-0.1,0-0.1,0.1l-0.2,0.1l-0.2,0.1l-0.2,0.1
			L23.3,48h-0.1c0,0-0.1,0-0.1,0c0,0,0,0-0.1,0H23h-0.1h-0.1h-0.1l-0.2,0h-0.1l-0.2,0h0l-0.2,0h-0.1c-0.2,0-0.3,0.1-0.4,0.1l0,0h0
			h-0.1h-0.1h-0.5h-0.2h-0.1c-0.1,0-0.3,0-0.4,0h-0.1h-0.5h-0.6c-0.2,0-0.3,0-0.5,0h-0.1l-0.4,0.3l0,0h-0.2l-0.4-0.1h-0.2l-0.2,0h0
			l-0.2,0c-0.1,0-0.2,0-0.2-0.1l-0.4-0.1h-0.1L16,48.1l-0.2-0.2c-0.1,0-0.1,0-0.2-0.1l-0.3-0.1L15,47.5h-0.1h-0.1l0,0h0
			c-0.1,0-0.1-0.1-0.2-0.1l-0.3-0.1c-0.1,0-0.1-0.1-0.2-0.1c-0.1,0-0.1,0-0.1-0.1l-0.3-0.2l-0.2-0.1c-0.1,0-0.1-0.1-0.2-0.1
			c0,0-0.1-0.1-0.2-0.1c0,0-0.1-0.1-0.1-0.1c-0.1-0.1-0.2-0.1-0.3-0.2c-0.1-0.1-0.2-0.1-0.3-0.2L12.4,46l-0.2-0.2l-0.4-0.4
			c-0.2-0.2-0.5-0.4-0.7-0.6l-0.5-0.5c-0.1-0.1-0.2-0.2-0.2-0.3l-0.2-0.3l-0.1-0.1L10,43.5c0,0-0.1-0.1-0.1-0.1
			c-0.1-0.1-0.2-0.2-0.3-0.4l-0.1-0.1l-0.3-0.5C9.1,42.2,9,42,8.8,41.8l-0.1-0.1l-0.2-0.3c-0.1-0.2-0.2-0.4-0.3-0.5
			c-0.3-0.5-0.6-1.1-0.8-1.6c-0.1-0.1-0.1-0.3-0.2-0.4c-0.1-0.2-0.1-0.3-0.2-0.4c0-0.1-0.1-0.2-0.1-0.4l0,0V38
			c0-0.2-0.1-0.3-0.2-0.5l-0.1-0.3l0,0c0,0,0-0.1,0-0.1c0-0.2-0.1-0.3-0.1-0.5c0-0.2-0.1-0.4-0.1-0.6c0-0.2,0-0.2-0.1-0.2
			c0-0.2-0.1-0.4-0.1-0.6c0-0.2-0.1-0.6-0.2-1c0-0.3-0.1-0.6-0.1-0.9c0,0,0,0,0-0.1c0-0.3-0.1-0.7-0.1-1c0.7-2.3,1.4-4.6,2.3-6.9
			c0.5-1.1,0.8-2.3,1.1-3.5c0.9-4.3,0.5-8.8-1.1-13c0.1-0.5,0.1-0.9,0.2-1.3h22.1c0.1,0.4,0.2,0.9,0.3,1.4
			c-1.5,4.1-1.8,8.5-0.9,12.7c0.3,1.2,0.6,2.3,1.1,3.5C32.1,27.2,32.9,29.4,33.5,31.6z"/>
		<path class="st3" d="M20.9,51.8c-0.2-0.4-2.3-0.4-2.5,0c-0.1,0.3-0.1,0.5,0,0.8c0.2,0.1,0.4,0.2,0.4,0.4c0.1,4.9,0.2,9.8,0,18.3
			c0,0.3,0.3,0.6,0.6,0.6c0,0,0,0,0,0h0.2c0.3,0,0.6-0.3,0.6-0.6c0,0,0,0,0,0c-0.2-8.5-0.1-13.4,0-18.3c0-0.2,0.2-0.3,0.4-0.3
			C20.9,52.6,21,52.1,20.9,51.8z"/>
		<path class="st4" d="M33.5,31.6L33.5,31.6v0.3c0,0.1,0,0.2,0,0.3c0,0.1,0,0.3,0,0.4c0,0.1,0,0.1,0,0.2c0,0.3-0.1,0.6-0.1,0.9
			c0,0.1,0,0.3-0.1,0.4c0,0.2-0.1,0.3-0.1,0.5c0,0.2-0.1,0.4-0.1,0.7c-0.1,0.2,0,0.2-0.1,0.3s-0.1,0.3-0.1,0.5
			c-0.1,0.4-0.2,0.8-0.3,1.1l-0.2,0.6c0,0.1,0,0.1-0.1,0.2l-0.1,0.3c0,0,0,0.1-0.1,0.1l-0.1,0.3c0,0,0,0.1,0,0.1
			c0,0.1-0.1,0.2-0.1,0.3l-0.1,0.2c0,0.1-0.1,0.2-0.1,0.3c0,0.1-0.1,0.1-0.1,0.2c0,0.1-0.1,0.2-0.2,0.3c-0.1,0.2-0.1,0.3-0.2,0.4
			v0.1v0.1c-0.1,0.2-0.3,0.5-0.4,0.7l0,0c-0.1,0.2-0.2,0.3-0.3,0.5l0,0L30.5,42c0,0.1-0.1,0.1-0.1,0.2c0,0.1-0.1,0.2-0.2,0.2
			c-0.1,0.2-0.2,0.4-0.4,0.5l0,0c-0.1,0.1-0.2,0.3-0.3,0.4c0,0,0,0.1-0.1,0.1c0,0.1-0.1,0.1-0.1,0.1c-0.2,0.3-0.4,0.5-0.7,0.8
			c-0.1,0.1-0.2,0.2-0.3,0.3c-0.1,0.1-0.4,0.4-0.6,0.6l-0.2,0.2c-0.3,0.2-0.6,0.5-0.9,0.7l-0.1,0.1l-0.3,0.2l0,0l-0.3,0.2
			c-0.3,0.2-0.6,0.3-0.8,0.5H25l-0.2,0.1l-0.2,0.1l-0.1,0c-0.1,0-0.2,0.1-0.3,0.1c0,0-0.1,0-0.1,0.1l-0.2,0.1l-0.2,0.1l-0.2,0.1
			L23.3,48h-0.1c0,0-0.1,0-0.1,0c0,0,0,0-0.1,0H23h-0.1h-0.1h-0.1l-0.2,0h-0.1l-0.2,0h0l-0.2,0h-0.1c-0.2,0-0.3,0.1-0.4,0.1l0,0h0
			h-0.1h-0.1h-0.5h-0.2h-0.1c-0.1,0-0.3,0-0.4,0h-0.1h-0.5h-0.6c-0.2,0-0.3,0-0.5,0h-0.1l-0.4,0.3l0,0h-0.2l-0.4-0.1h-0.2l-0.2,0h0
			l-0.2,0c-0.1,0-0.2,0-0.2-0.1l-0.4-0.1h-0.1L16,48.1l-0.2-0.2c-0.1,0-0.1,0-0.2-0.1l-0.3-0.1L15,47.5h-0.1h-0.1l0,0h0
			c-0.1,0-0.1-0.1-0.2-0.1l-0.3-0.1c-0.1,0-0.1-0.1-0.2-0.1c-0.1,0-0.1,0-0.1-0.1l-0.3-0.2l-0.2-0.1c-0.1,0-0.1-0.1-0.2-0.1
			c0,0-0.1-0.1-0.2-0.1c0,0-0.1-0.1-0.1-0.1c-0.1-0.1-0.2-0.1-0.3-0.2c-0.1-0.1-0.2-0.1-0.3-0.2L12.4,46l-0.2-0.2l-0.4-0.4
			c-0.2-0.2-0.5-0.4-0.7-0.6l-0.5-0.5c-0.1-0.1-0.2-0.2-0.2-0.3l-0.2-0.3l-0.1-0.1L10,43.5c0,0-0.1-0.1-0.1-0.1
			c-0.1-0.1-0.2-0.2-0.3-0.4l-0.1-0.1l-0.3-0.5C9.1,42.2,9,42,8.8,41.8l-0.1-0.1l-0.2-0.3c-0.1-0.2-0.2-0.4-0.3-0.5
			c-0.3-0.5-0.6-1.1-0.8-1.6c-0.1-0.1-0.1-0.3-0.2-0.4c-0.1-0.2-0.1-0.3-0.2-0.4c0-0.1-0.1-0.2-0.1-0.4l0,0V38
			c0-0.2-0.1-0.3-0.2-0.5l-0.1-0.3l0,0c0,0,0-0.1,0-0.1c0-0.2-0.1-0.3-0.1-0.5c0-0.2-0.1-0.4-0.1-0.6c0-0.2,0-0.2-0.1-0.2
			c0-0.2-0.1-0.4-0.1-0.6c0-0.2-0.1-0.6-0.2-1c0-0.3-0.1-0.6-0.1-0.9c0,0,0,0,0-0.1c0-0.3-0.1-0.7-0.1-1c0-0.2,0-0.5,0-0.5
			c0,0,0,0,0,0l0,0c0.6-2.2,1.4-4.3,2.4-6.3c0.5-1.1,0.8-2.3,1.1-3.5H30c0.3,1.2,0.6,2.3,1.1,3.5C32.1,27.3,32.9,29.4,33.5,31.6z"/>
		<path class="st5" d="M29.2,21.7c0,0.4-4.3,0.8-9.5,0.8s-9.5-0.3-9.5-0.8s4.3-0.8,9.5-0.8S29.2,21.3,29.2,21.7z"/>
		<path class="st6" d="M30.3,35.5c-0.5,2.8-1.7,5.5-3.3,7.9c-2,2.9-4.8,4.7-7.4,4.7c-1.4,0-2.8-0.5-4-1.3l3-0.5
			c-3-2.3-5.1-5.5-6.1-9.2l0,0c-1.1-4.6,0.4-7.4,2.3-12.1c0.3-0.8,0.6-1.5,0.8-2.3c1.2,0,2.5,0,4,0c2.9,0,5.2,0,7.1-0.1
			c0.2,0.8,0.5,1.6,0.8,2.4C29.4,29.2,30.7,31.8,30.3,35.5z"/>
		<path class="st4" d="M23.9,47.8c-1.3,0.6-2.7,0.9-4.2,0.9c-1.4,0-2.9-0.3-4.2-0.9c1.3-0.6,2.8-0.9,4.2-0.8
			C21.1,46.9,22.5,47.2,23.9,47.8z"/>
		<path class="st7" d="M12.7,37.2L12.7,37.2c-1.1-4.6,0.4-7.4,2.3-12.1c0.3-0.8,0.6-1.5,0.8-2.3c1.4-5.1,1-10.5-1.2-15.3h-3.8
			c1.9,4.2,2.4,8.9,1.6,13.4c-0.1,0.6-0.2,1.2-0.4,1.8c-0.2,0.9-0.5,1.7-0.9,2.5c-1.1,2.7-2.1,4.9-2.5,7.1c-0.2,1.2-0.2,2.3-0.1,3.5
			c1.2,5.4,3.9,9.1,7,11.1h0.1l3-0.5C15.8,44.1,13.6,40.9,12.7,37.2z"/>
		<path class="st1" d="M32.2,25.2c-0.5-1.1-0.8-2.3-1.1-3.5c-1.2-5.6-0.2-10.1,1.4-14.2h-2c-1.9,4.4-2.5,9.3-1.5,14c0,0,0,0.1,0,0.1
			c0,0.1,0,0.1,0,0.2c0.3,1.1,0.6,2.2,1.1,3.3c1.9,4.6,3.4,7.5,2.3,12.1l0,0l-0.2,0.6c0,0.1,0,0.1-0.1,0.2l-0.1,0.3
			c0,0,0,0.1-0.1,0.1l-0.1,0.3c0,0.1-0.1,0.2-0.1,0.4c0,0.1-0.1,0.1-0.1,0.2c0,0.1-0.1,0.2-0.1,0.3c0,0.1-0.1,0.1-0.1,0.2
			c0,0.1-0.1,0.2-0.2,0.3c-0.1,0.2-0.1,0.3-0.2,0.4v0.1v0.1c-0.1,0.2-0.3,0.5-0.4,0.7l0,0c-0.1,0.2-0.2,0.3-0.3,0.5l0,0L30.3,42
			c0,0.1-0.1,0.1-0.1,0.2c0,0.1-0.1,0.2-0.2,0.2c-0.1,0.2-0.2,0.4-0.4,0.5l0,0c-0.1,0.1-0.2,0.3-0.3,0.4c0,0,0,0.1-0.1,0.1
			c0,0.1-0.1,0.1-0.1,0.1c-0.2,0.3-0.4,0.5-0.7,0.8c-0.1,0.1-0.2,0.2-0.3,0.3c-0.1,0.1-0.4,0.4-0.6,0.6l-0.2,0.2
			c-0.3,0.2-0.6,0.5-0.9,0.7l-0.1,0.1L26,46.6l0,0l-0.3,0.2c-0.3,0.2-0.6,0.3-0.8,0.5h-0.1l-0.2,0.1l-0.2,0.1l-0.1,0
			c-0.1,0-0.2,0.1-0.3,0.1c0,0-0.1,0-0.1,0.1l-0.2,0.1l-0.2,0.1l-0.2,0.1L23.1,48H23h-0.1h-0.1h-0.1l0,0l-0.2,0.1l-0.2,0h-0.1
			l-0.2,0h0l-0.2,0l0,0h0c-0.2,0-0.3,0.1-0.4,0.1l0,0h0h-0.1h-0.1h-0.1h-0.1h-0.2h-0.2h-0.1c-0.1,0-0.3,0-0.4,0h-0.1h-0.5h-0.6
			c-0.2,0-0.3,0-0.5,0h-0.1l-0.4,0.3l0,0h-0.2l-0.4-0.1h-0.2l0,0h-0.2h0l-0.2,0c-0.1,0-0.2,0-0.2-0.1l-0.4-0.1h-0.1L16,48.2
			l-0.2-0.2c-0.1,0-0.1,0-0.2-0.1l-0.3-0.1L15,47.5h-0.1h-0.1h0c-0.1,0-0.1-0.1-0.2-0.1l-0.3-0.1c-0.1,0-0.1-0.1-0.2-0.1
			c-0.1,0-0.1,0-0.1-0.1l-0.3-0.2l-0.2-0.1c-0.1,0-0.1-0.1-0.2-0.1c0,0-0.1-0.1-0.2-0.1c0,0-0.1-0.1-0.1-0.1
			c-0.1-0.1-0.2-0.1-0.3-0.2c-0.1-0.1-0.2-0.1-0.3-0.2L12.4,46l-0.2-0.2l-0.4-0.4c-0.2-0.2-0.5-0.4-0.7-0.6
			c-0.2-0.2-0.3-0.3-0.5-0.5s-0.2-0.2-0.2-0.3c-0.1-0.1-0.1-0.1-0.1-0.1l-0.1-0.1c0,0-0.1,0-0.1-0.1L10,43.5c0,0-0.1-0.1-0.1-0.1
			c-0.1-0.1-0.2-0.2-0.3-0.4l-0.1-0.1l-0.3-0.5C9.1,42.2,9,42,8.8,41.8l-0.1-0.1l-0.2-0.3c-0.1-0.2-0.2-0.4-0.3-0.5
			c-0.3-0.5-0.6-1.1-0.8-1.6c-0.1-0.1-0.1-0.3-0.2-0.4c-0.1-0.2-0.1-0.3-0.2-0.4c0-0.1-0.1-0.2-0.1-0.4l0,0V38
			c0-0.2-0.1-0.3-0.2-0.5l-0.1-0.3l0,0c-1.1-4.6,0.5-7.4,2.4-12c0.4-1.1,0.8-2.2,1-3.4l0,0c0,0,0-0.1,0-0.1c0,0,0-0.1,0-0.1
			c1-4.7,0.5-9.6-1.5-14L7,7.3c0,0,0.2,0.5,0.5,1.3c1.5,4.1,1.8,8.6,0.9,12.9c-0.3,1.2-0.6,2.3-1.1,3.5c-1,2.4-2,4.1-2.4,6.3
			C4.7,33.2,4.7,35.1,5,37c2,11,11,12.4,12.1,13.9l0.1,0.3h4.9c0.1-0.1,0.1-0.2,0.2-0.3c1-1.5,10.4-2.2,12.4-14.7
			C35.2,32.8,33.2,27.7,32.2,25.2z M19.6,51.1c-0.3,0-0.6,0-0.8-0.1c0.3-0.1,0.6-0.1,0.8,0c0.3,0,0.6,0,0.8,0
			C20.2,51.1,19.9,51.1,19.6,51.1z M19.6,50.6c-0.5,0-1,0-1.4-0.2c0.5-0.1,1-0.1,1.4-0.1c0.5,0,1,0,1.4,0.1
			C20.6,50.6,20.1,50.6,19.6,50.6z M19.6,50c-0.8,0.1-1.7-0.1-2.5-0.4c0.8-0.2,1.7-0.2,2.5-0.2c0.8-0.1,1.7,0,2.5,0.2
			C21.4,50,20.5,50.1,19.6,50z"/>
		<path class="st8" d="M31.5,7.5L31.5,7.5L31.5,7.5"/>
	</g>
</g>
<g>
	<circle id="path1269" class="st9" cx="31.5" cy="7.5" r="7.5"/>
	<text transform="matrix(1 0 0 1 27.6467 12.2563)" class="st10 st11 st12">1</text>
</g>
</svg>
