<svg xmlns="http://www.w3.org/2000/svg" viewBox="0 0 37.82 91.02"><defs><style>.cls-1{fill:#f2f2f2;}.cls-2{fill:#ccc;}.cls-3,.cls-9{fill:#f8f9e9;}.cls-3{opacity:0.5;}.cls-4{fill:#e4ebf1;}.cls-5{fill:#84200c;}.cls-6{fill:#9b2310;}.cls-7{fill:#9b2815;}.cls-8{fill:#fff;opacity:0.3;}</style></defs><g id="Layer_2" data-name="Layer 2"><g id="Layer_1-2" data-name="Layer 1"><path class="cls-1" d="M36.39,87.84c0,1.76-7.88,3.18-17.6,3.18S1.19,89.6,1.19,87.84c0-.12,0-.35,0-.56.54-.91,2.69-1.64,6.58-2.38,3-.57,5.79-2.22,9.73-2.22,8.88,0,14.55,3.2,18.88,4.53C36.4,87.46,36.39,87.68,36.39,87.84Z"/><path class="cls-2" d="M26.29,83.54h0l-.37-.17h0c-2.17-.93-4-2.11-4.71-3.49-1.45-2.9-1.91-19.68.74-24.64H15.73c2.65,5,2.19,21.74.74,24.64-.62,1.24-2.19,2.36-4.09,3.26-.52.24-1.07.48-1.62.69s-.83.72-.83,1.12c0,1.45,4,2.62,8.86,2.62s8.86-1.17,8.86-2.62C27.65,84.42,27.16,83.94,26.29,83.54ZM17.28,57a1.13,1.13,0,0,1,0-1c.21-.47,2.81-.51,3.1,0,.17.34.06.92-.12,1s-.47.17-.48.42c-.15,6.18-.24,12.42,0,23.1a.77.77,0,0,1-.77.78h-.29a.78.78,0,0,1-.78-.78c.24-10.65.12-16.85,0-23C17.8,57.25,17.55,57.21,17.28,57Z"/><path class="cls-2" d="M35.59,86.38a13.07,13.07,0,0,0-3.49-1.12l-.29-.07c-3.86-.81-9.35-2.71-10.66-5.32-1.45-2.9-1.91-19.68.74-24.64H15.73c2.65,5,2.19,21.74.74,24.64-1.12,2.25-5.38,4.06-9,5h0a28.43,28.43,0,0,0-3.2.65h0A9.57,9.57,0,0,0,2,86.38c-.52.3-.81.62-.81,1,0,1.49,5.68,2.75,13.35,3.08.66,0,1.33.06,2,.08l2.23,0h1.8l.88,0c1.53,0,3-.12,4.36-.23l.68-.07c.45,0,.9-.08,1.33-.13,5.12-.55,8.55-1.56,8.55-2.72C36.4,87,36.12,86.68,35.59,86.38ZM17.28,57a1.15,1.15,0,0,1,0-1c.21-.47,2.81-.5,3.1,0,.17.34.06.93-.12,1s-.47.17-.48.43c-.15,6.17-.24,12.41,0,23.09a.77.77,0,0,1-.77.79h-.29a.78.78,0,0,1-.78-.79c.24-10.65.12-16.84,0-23C17.8,57.26,17.55,57.21,17.28,57ZM18.79,89.8C11.7,89.8,6,88.38,6,86.63c0-.48.43-.93,1.2-1.34a11,11,0,0,1,2.34-.85,38.73,38.73,0,0,1,9.29-1A35.78,35.78,0,0,1,29,84.72h0l.55.2h0c1.25.49,2,1.07,2,1.69C31.62,88.38,25.87,89.8,18.79,89.8Z"/><path class="cls-3" d="M22,53.39a7.63,7.63,0,0,1-3.16.46,7.48,7.48,0,0,1-3.16-.46,11.58,11.58,0,0,1,3.18-.2A12.2,12.2,0,0,1,22,53.39Zm-3.15.79a6.86,6.86,0,0,0-1.82.11,4.21,4.21,0,0,0,1.81.26,4.41,4.41,0,0,0,1.81-.26A7.25,7.25,0,0,0,18.8,54.18Zm0,.76a4.46,4.46,0,0,0-1.08.06,2.44,2.44,0,0,0,1.07.16A2.44,2.44,0,0,0,19.86,55,4.31,4.31,0,0,0,18.8,54.94Z"/><path class="cls-4" d="M36.3,30.63h0l0,.4c0,.14,0,.27,0,.4a4.6,4.6,0,0,1-.06.52,2,2,0,0,1,0,.26c0,.37-.09.74-.14,1.1,0,.18-.06.35-.09.54s-.07.4-.11.59-.1.55-.17.82,0,.27-.09.41-.09.39-.14.58c-.12.48-.25,1-.38,1.4l-.24.73c0,.08-.05.15-.08.24l-.12.36c0,.06,0,.11-.07.17l-.14.36a.7.7,0,0,1,0,.12,3.68,3.68,0,0,1-.15.35l-.11.27a4.08,4.08,0,0,1-.18.42c0,.09-.07.17-.1.24a4.3,4.3,0,0,1-.21.43c-.08.19-.17.37-.26.54l0,.08,0,.09c-.16.31-.33.61-.5.91h0c-.1.19-.22.38-.33.57l0,0-.14.22a2.12,2.12,0,0,1-.12.2,1.87,1.87,0,0,1-.2.29c-.14.24-.31.46-.46.68l0,0c-.13.18-.27.35-.42.53a.42.42,0,0,1-.08.12,1.3,1.3,0,0,1-.15.18q-.41.51-.84,1c-.13.15-.27.3-.41.44s-.53.53-.8.77l-.28.24c-.34.31-.71.59-1.08.87l-.15.11-.44.31,0,0-.38.23a11.93,11.93,0,0,1-1.07.63l-.07,0-.29.15-.28.14-.1.05a3.49,3.49,0,0,1-.34.15.61.61,0,0,1-.17.07l-.25.11-.23.09-.22.08-.27.1-.11,0a.2.2,0,0,1-.1,0,.19.19,0,0,1-.08,0l-.07,0-.09,0-.14,0-.12,0-.21.06-.08,0-.21.06h-.05l-.21.05-.09,0c-.19.05-.38.08-.56.11,0,0,0,0,0,0l-.06,0h-.09l-.15,0H20.4l-.22,0h-.11a4.73,4.73,0,0,1-.52,0h-.11l-.6,0h-.7c-.19,0-.38,0-.58,0h-.1L17,52h0l-.21,0-.54-.1-.25,0-.19-.05-.06,0-.22-.06a1.57,1.57,0,0,1-.29-.08l-.52-.16-.12,0-.36-.13L14,51.16a1.57,1.57,0,0,1-.23-.09l-.41-.18-.45-.21-.08,0-.08,0h0l-.06,0a1.41,1.41,0,0,1-.24-.13l-.34-.18a1.34,1.34,0,0,1-.23-.13.66.66,0,0,1-.18-.1l-.34-.21-.21-.13c-.08,0-.17-.11-.25-.16a1.22,1.22,0,0,0-.19-.12,1.92,1.92,0,0,0-.17-.13,4.33,4.33,0,0,1-.37-.27,2.88,2.88,0,0,1-.35-.26l-.16-.13-.29-.23L8.88,48c-.29-.24-.58-.52-.87-.81l-.58-.63c-.1-.1-.19-.21-.28-.32l-.28-.33-.09-.1-.16-.21a.41.41,0,0,1-.1-.13c-.13-.15-.24-.31-.36-.47L6,44.83,5.6,44.2c-.15-.22-.29-.45-.43-.69L5.1,43.4l-.2-.33c-.13-.23-.26-.46-.37-.69a19.6,19.6,0,0,1-1-2.06c-.08-.17-.15-.35-.22-.54s-.14-.35-.2-.54A3.71,3.71,0,0,1,3,38.77v0l0-.12c-.06-.21-.13-.41-.19-.62l-.14-.44a.43.43,0,0,0,0,0,.61.61,0,0,1,0-.18c-.06-.2-.11-.4-.17-.61s-.13-.52-.18-.77-.06-.2-.08-.3c-.06-.26-.12-.54-.16-.81s-.15-.78-.21-1.2-.11-.72-.16-1.1c0,0,0,0,0-.09-.05-.42-.09-.86-.13-1.31a86.69,86.69,0,0,1,2.94-8.7,26.87,26.87,0,0,0,1.39-4.37A29.31,29.31,0,0,0,4.57,1.83c.07-.59.15-1.13.2-1.59H32.63c.1.47.22,1.08.36,1.81a29.26,29.26,0,0,0-1.1,16,26.87,26.87,0,0,0,1.39,4.37A50,50,0,0,1,36.3,30.63Z"/><path class="cls-4" d="M20.33,56.08c-.28-.54-2.88-.5-3.09,0a1.15,1.15,0,0,0,0,1c.27.18.52.23.53.52.16,6.17.29,12.37,0,23a.78.78,0,0,0,.78.79h.29a.78.78,0,0,0,.78-.79c-.2-10.68-.11-16.92,0-23.09,0-.26.23-.37.48-.43S20.51,56.42,20.33,56.08Z"/><path class="cls-5" d="M36.3,30.63h0l0,.4c0,.14,0,.27,0,.4a4.6,4.6,0,0,1-.06.52,2,2,0,0,1,0,.26c0,.37-.09.74-.14,1.1,0,.18-.06.35-.09.54s-.07.4-.11.59-.1.55-.17.82,0,.27-.09.41-.09.39-.14.58c-.12.48-.25,1-.38,1.4l-.24.73c0,.08-.05.15-.08.24l-.12.36c0,.06,0,.11-.07.17l-.14.36a.7.7,0,0,1,0,.12,3.68,3.68,0,0,1-.15.35l-.11.27a4.08,4.08,0,0,1-.18.42c0,.09-.07.17-.1.24a4.3,4.3,0,0,1-.21.43c-.08.19-.17.37-.26.54l0,.08,0,.09c-.16.31-.33.61-.5.91h0c-.1.19-.22.38-.33.57l0,0-.14.22a2.12,2.12,0,0,1-.12.2,1.87,1.87,0,0,1-.2.29c-.14.24-.31.46-.46.68l0,0c-.13.18-.27.35-.42.53a.42.42,0,0,1-.08.12,1.3,1.3,0,0,1-.15.18q-.41.51-.84,1c-.13.15-.27.3-.41.44s-.53.53-.8.77l-.28.24c-.34.31-.71.59-1.08.87l-.15.11-.44.31,0,0-.38.23a11.93,11.93,0,0,1-1.07.63l-.07,0-.29.15-.28.14-.1.05a3.49,3.49,0,0,1-.34.15.61.61,0,0,1-.17.07l-.25.11-.23.09-.22.08-.27.1-.11,0a.2.2,0,0,1-.1,0,.19.19,0,0,1-.08,0l-.07,0-.09,0-.14,0-.12,0-.21.06-.08,0-.21.06h-.05l-.21.05-.09,0c-.19.05-.38.08-.56.11,0,0,0,0,0,0l-.06,0h-.09l-.15,0H20.4l-.22,0h-.11a4.73,4.73,0,0,1-.52,0h-.11l-.6,0h-.7c-.19,0-.38,0-.58,0h-.1L17,52h0l-.21,0-.54-.1-.25,0-.19-.05-.06,0-.22-.06a1.57,1.57,0,0,1-.29-.08l-.52-.16-.12,0-.36-.13L14,51.16a1.57,1.57,0,0,1-.23-.09l-.41-.18-.45-.21-.08,0-.08,0h0l-.06,0a1.41,1.41,0,0,1-.24-.13l-.34-.18a1.34,1.34,0,0,1-.23-.13.66.66,0,0,1-.18-.1l-.34-.21-.21-.13c-.08,0-.17-.11-.25-.16a1.22,1.22,0,0,0-.19-.12,1.92,1.92,0,0,0-.17-.13,4.33,4.33,0,0,1-.37-.27,2.88,2.88,0,0,1-.35-.26l-.16-.13-.29-.23L8.88,48c-.29-.24-.58-.52-.87-.81l-.58-.63c-.1-.1-.19-.21-.28-.32l-.28-.33-.09-.1-.16-.21a.41.41,0,0,1-.1-.13c-.13-.15-.24-.31-.36-.47L6,44.83,5.6,44.2c-.15-.22-.29-.45-.43-.69L5.1,43.4l-.2-.33c-.13-.23-.26-.46-.37-.69a19.6,19.6,0,0,1-1-2.06c-.08-.17-.15-.35-.22-.54s-.14-.35-.2-.54A3.71,3.71,0,0,1,3,38.77v0l0-.12c-.06-.21-.13-.41-.19-.62l-.14-.44a.43.43,0,0,0,0,0,.61.61,0,0,1,0-.18c-.06-.2-.11-.4-.17-.61s-.13-.52-.18-.77-.06-.2-.08-.3c-.06-.26-.12-.54-.16-.81s-.15-.78-.21-1.2-.11-.72-.16-1.1c0,0,0,0,0-.09-.05-.42-.09-.86-.13-1.31,0-.2,0-.63,0-.64s0,0,0,0v0a52.71,52.71,0,0,1,3-8,26.87,26.87,0,0,0,1.39-4.37H31.89a26.87,26.87,0,0,0,1.39,4.37A50,50,0,0,1,36.3,30.63Z"/><path class="cls-6" d="M30.88,18.11c0,.53-5.39,1-12,1s-12-.44-12-1,5.38-1,12-1S30.88,17.57,30.88,18.11Z"/><path class="cls-7" d="M32.22,35.53a27,27,0,0,1-4.13,10C25.51,49.2,22,51.4,18.82,51.4a9.46,9.46,0,0,1-5-1.63l3.83-.59A21.24,21.24,0,0,1,10,37.65h0c-1.38-5.8.48-9.37,2.91-15.19a27.88,27.88,0,0,0,1-2.94c1.49,0,3.16,0,5,0,3.61,0,6.53,0,8.89-.17a26.65,26.65,0,0,0,1.06,3.07C31.05,27.53,32.75,30.9,32.22,35.53Z"/><path class="cls-5" d="M24.09,51a13.43,13.43,0,0,1-5.28,1.16A13.55,13.55,0,0,1,13.53,51a11.77,11.77,0,0,1,5.28-1A11.7,11.7,0,0,1,24.09,51Z"/><path class="cls-8" d="M10,37.65h0c-1.38-5.8.48-9.37,2.91-15.19a27.88,27.88,0,0,0,1-2.94A28.94,28.94,0,0,0,12.46.24H7.71A29.19,29.19,0,0,1,9.76,17.09c-.14.73-.31,1.47-.52,2.21a25.54,25.54,0,0,1-1.08,3.15c-1.44,3.46-2.7,6.13-3.18,9a14.77,14.77,0,0,0-.07,4.42c1.51,6.83,4.9,11.46,8.78,14l.17,0,3.83-.59A21.24,21.24,0,0,1,10,37.65Z"/><path class="cls-2" d="M34.55,22.48a27.18,27.18,0,0,1-1.39-4.37c-1.57-7-.27-12.69,1.82-17.85l-2.46,0a29.1,29.1,0,0,0-1.88,17.68.94.94,0,0,1,0,.16,1.29,1.29,0,0,0,0,.19,24.72,24.72,0,0,0,1.35,4.18c2.43,5.82,4.29,9.39,2.91,15.19h0l-.24.73c0,.08-.05.15-.08.24l-.12.36c0,.06,0,.11-.07.17l-.14.36c0,.15-.12.31-.18.47a1.28,1.28,0,0,1-.11.27,4.08,4.08,0,0,1-.18.42c0,.09-.07.17-.1.24a4.3,4.3,0,0,1-.21.43c-.08.19-.17.37-.26.54l0,.08,0,.09c-.16.31-.33.61-.5.91h0c-.1.19-.22.38-.33.57l0,0-.14.22a2.12,2.12,0,0,1-.12.2,1.87,1.87,0,0,1-.2.29c-.14.24-.31.46-.46.68l0,0c-.14.18-.27.36-.42.53a.42.42,0,0,1-.08.12,1.3,1.3,0,0,1-.15.18q-.41.51-.84,1c-.13.15-.27.3-.41.44s-.53.53-.8.77l-.28.24c-.34.31-.71.59-1.08.87l-.15.11-.44.31,0,0-.38.23a11.93,11.93,0,0,1-1.07.63l-.07,0-.29.15-.28.14-.1.05a3.49,3.49,0,0,1-.34.15.61.61,0,0,1-.17.07l-.25.11-.23.09-.22.08-.27.1-.11,0-.18,0-.07,0-.07,0h0l-.26.08-.21.06-.08,0-.21.06h-.05l-.21.05h0l-.06,0c-.19.05-.38.08-.56.11,0,0,0,0,0,0l-.06,0h-.09l-.15,0h-.08l-.1,0H20.4l-.22,0h-.11a4.73,4.73,0,0,1-.52,0h-.11l-.6,0h-.7c-.19,0-.38,0-.58,0h-.1L17,52h0l-.21,0-.54-.1-.25,0h0l-.19,0-.06,0-.22-.06a1.57,1.57,0,0,1-.29-.08l-.52-.16-.12,0-.36-.13L14,51.16a1.57,1.57,0,0,1-.23-.09l-.41-.18-.45-.21-.08,0-.09,0-.06,0a1.41,1.41,0,0,1-.24-.13l-.34-.18a1.34,1.34,0,0,1-.23-.13.66.66,0,0,1-.18-.1l-.34-.21-.21-.13c-.08,0-.17-.11-.25-.16a1.22,1.22,0,0,0-.19-.12c-.05,0-.11-.08-.17-.13a4.33,4.33,0,0,1-.37-.27,2.88,2.88,0,0,1-.35-.26l-.16-.13-.29-.23L8.88,48c-.29-.24-.58-.52-.87-.81s-.39-.41-.58-.63-.19-.21-.28-.32-.1-.11-.15-.16l-.13-.17a.45.45,0,0,1-.09-.1l-.16-.21a.41.41,0,0,1-.1-.13c-.13-.15-.24-.31-.36-.47L6,44.83,5.6,44.2c-.15-.22-.29-.45-.43-.69L5.1,43.4l-.2-.33c-.13-.23-.26-.46-.37-.69a19.6,19.6,0,0,1-1-2.06c-.08-.17-.15-.35-.22-.54s-.14-.35-.2-.54A3.71,3.71,0,0,1,3,38.77v0l0-.12c-.06-.21-.13-.41-.19-.62l-.14-.44a.43.43,0,0,0,0,0c-1.37-5.76.62-9.27,3.05-15.07A26.66,26.66,0,0,0,7,18.27H7a1.16,1.16,0,0,1,0-.18.83.83,0,0,1,0-.15A29.14,29.14,0,0,0,5.17.24L2.82,0s.28.57.66,1.6A29.38,29.38,0,0,1,4.66,17.85a26.77,26.77,0,0,1-1.39,4.36c-1.29,3.08-2.49,5.2-3,8A22.28,22.28,0,0,0,.36,37.4C2.94,51.23,14.26,53,15.55,54.9l.18.33h6.16c.07-.12.12-.23.19-.33C23.4,53,35.21,52.08,37.71,36.41,38.39,32.12,35.86,25.63,34.55,22.48ZM18.78,55.16A2.46,2.46,0,0,1,17.72,55a4.41,4.41,0,0,1,1.07-.06,5,5,0,0,1,1.07.06A2.46,2.46,0,0,1,18.78,55.16Zm0-.6a4.08,4.08,0,0,1-1.8-.27,6.86,6.86,0,0,1,1.82-.11,7.44,7.44,0,0,1,1.81.11A4.25,4.25,0,0,1,18.78,54.56Zm0-.71a7.38,7.38,0,0,1-3.14-.46,11.6,11.6,0,0,1,3.17-.19,12.88,12.88,0,0,1,3.14.19A7.61,7.61,0,0,1,18.78,53.85Z"/><path class="cls-9" d="M33.71.24h0a0,0,0,0,0,0,0"/></g></g></svg>