<?xml version="1.0" encoding="UTF-8" standalone="no"?>
<!-- Generator: Adobe Illustrator 24.1.1, SVG Export Plug-In . SVG Version: 6.00 Build 0)  -->

<svg
   xmlns:dc="http://purl.org/dc/elements/1.1/"
   xmlns:cc="http://creativecommons.org/ns#"
   xmlns:rdf="http://www.w3.org/1999/02/22-rdf-syntax-ns#"
   xmlns:svg="http://www.w3.org/2000/svg"
   xmlns="http://www.w3.org/2000/svg"
   xmlns:sodipodi="http://sodipodi.sourceforge.net/DTD/sodipodi-0.dtd"
   xmlns:inkscape="http://www.inkscape.org/namespaces/inkscape"
   version="1.1"
   id="Layer_1"
   x="0px"
   y="0px"
   viewBox="0 0 40 56"
   xml:space="preserve"
   sodipodi:docname="Spirits.svg"
   width="40"
   height="56"
   inkscape:version="0.92.4 (5da689c313, 2019-01-14)"><metadata
   id="metadata50"><rdf:RDF><cc:Work
       rdf:about=""><dc:format>image/svg+xml</dc:format><dc:type
         rdf:resource="http://purl.org/dc/dcmitype/StillImage" /><dc:title /></cc:Work></rdf:RDF></metadata><defs
   id="defs48">
</defs><sodipodi:namedview
   pagecolor="#ffffff"
   bordercolor="#666666"
   borderopacity="1"
   objecttolerance="10"
   gridtolerance="10"
   guidetolerance="10"
   inkscape:pageopacity="0"
   inkscape:pageshadow="2"
   inkscape:window-width="1680"
   inkscape:window-height="966"
   id="namedview46"
   showgrid="false"
   inkscape:snap-page="true"
   inkscape:snap-bbox="true"
   inkscape:bbox-nodes="true"
   inkscape:zoom="4.2142857"
   inkscape:cx="-55.53258"
   inkscape:cy="27.918225"
   inkscape:window-x="-8"
   inkscape:window-y="-8"
   inkscape:window-maximized="1"
   inkscape:current-layer="Layer_1" />
<style
   type="text/css"
   id="style2">
	.st0{fill:#BFBFBF;}
	.st1{fill:#C6C6C6;}
	.st2{opacity:0.4;}
	.st3{fill:#B7D1E8;}
	.st4{fill:#F29A02;}
	.st5{opacity:0.3;fill:#FFFFFF;enable-background:new    ;}
	.st6{fill:#E6E6E6;}
	.st7{fill:#CBCFD2;}
	.st8{fill:#E5ECF2;}
	.st9{fill:#D5E4F2;}
	.st10{opacity:0.2;}
	.st11{fill:#F2F2F2;}
	.st12{fill:#0080FF;}
	.st13{fill:#EBEBEB;}
	.st14{font-family:'SegoeUI-Bold';}
	.st15{font-size:13.3354px;}
</style>


<g
   class="cls-1"
   id="g40"
   transform="matrix(0.72224454,0,0,0.72224454,2.4095303,13.568133)"
   style="isolation:isolate"><g
     id="Layer_2"
     data-name="Layer 2"><g
       id="Layer_1-2-2"
       data-name="Layer 1"><path
         class="cls-2"
         d="m 47.6,54.14 a 3.75,3.75 0 0 1 -3.75,3.75 H 4.61 A 3.75,3.75 0 0 1 0.86,54.14 V 1.23 A 0.38,0.38 0 0 1 1.23,0.86 h 46 A 0.38,0.38 0 0 1 47.6,1.23 Z M 47.23,0 h -46 A 1.23,1.23 0 0 0 0,1.24 v 52.9 a 4.61,4.61 0 0 0 4.61,4.61 h 39.24 a 4.61,4.61 0 0 0 4.61,-4.61 V 1.24 A 1.24,1.24 0 0 0 47.23,0 Z"
         id="path6-5"
         inkscape:connector-curvature="0"
         style="fill:#bfbfbf" /><path
         class="cls-3"
         d="M 44.31,44.76 H 4.15 A 3.29,3.29 0 0 1 0.89,41.89 v 0 12.25 a 3.75,3.75 0 0 0 3.75,3.75 h 39.21 a 3.75,3.75 0 0 0 3.75,-3.75 v -12.25 0 a 3.29,3.29 0 0 1 -3.29,2.87 z"
         id="path8-1"
         inkscape:connector-curvature="0"
         style="fill:#c6c6c6" /><g
         class="cls-4"
         id="g12"
         style="opacity:0.4"><path
           class="cls-5"
           d="m 47.6,1.19 v 40.28 a 3.29,3.29 0 0 1 -3.29,3.29 H 4.15 A 3.29,3.29 0 0 1 0.86,41.47 V 1.19 A 0.33,0.33 0 0 1 1.19,0.86 h 46.08 a 0.33,0.33 0 0 1 0.33,0.33 z"
           id="path10"
           inkscape:connector-curvature="0"
           style="fill:#b7d1e8" /></g><path
         class="cls-6"
         d="m 47.6,24.47 v 17 a 3.29,3.29 0 0 1 -3.29,3.29 H 4.15 A 3.29,3.29 0 0 1 0.86,41.47 v -17 z"
         id="path14-5"
         inkscape:connector-curvature="0"
         style="fill:#f29a02" /><path
         class="cls-7"
         d="M 12.08,54.14 V 1.23 A 1.23,1.23 0 0 1 13.31,0 H 5.16 A 1.23,1.23 0 0 0 3.93,1.23 v 52.91 a 4.6,4.6 0 0 0 4.61,4.61 h 8.15 a 4.6,4.6 0 0 1 -4.61,-4.61 z"
         id="path16-0"
         inkscape:connector-curvature="0"
         style="opacity:0.3;fill:#ffffff" /><path
         class="cls-8"
         d="M 34.9,54.14 V 1.23 A 1.23,1.23 0 0 0 33.66,0 h 8.15 a 1.23,1.23 0 0 1 1.24,1.23 v 52.91 a 4.61,4.61 0 0 1 -4.61,4.61 h -8.15 a 4.61,4.61 0 0 0 4.61,-4.61 z"
         id="path18-4"
         inkscape:connector-curvature="0"
         style="mix-blend-mode:multiply;fill:#e6e6e6" /><path
         class="cls-9"
         d="M 26.91,44.76 H 14.83 A 1.13,1.13 0 0 1 13.69,43.65 L 13.61,36.31 27.89,36.17 28,43.5 a 1.2,1.2 0 0 1 -1.09,1.26 z"
         id="path20-7"
         inkscape:connector-curvature="0"
         style="fill:#cbcfd2" /><path
         class="cls-10"
         d="M 27.94,40.42 13.66,40.57 13.55,29.85 a 0.73,0.73 0 0 1 0.72,-0.74 L 27.09,29 a 0.73,0.73 0 0 1 0.74,0.72 z"
         id="path22-8"
         inkscape:connector-curvature="0"
         style="fill:#e5ecf2" /><path
         class="cls-9"
         d="m 14.63,14.44 a 0.56,0.56 0 0 1 0.73,0.31 l 4.26,10.42 a 1.48,1.48 0 0 1 -0.8,1.91 L 7.06,31.89 A 1.48,1.48 0 0 1 5.14,31.08 L 5,30.75 0.93,20.75 a 0.7,0.7 0 0 1 0.34,-0.89 v 0 l 12.25,-5 z"
         id="path24-8"
         inkscape:connector-curvature="0"
         style="fill:#cbcfd2" /><path
         class="cls-11"
         d="m 14.48,15.26 4.07,10 L 5,30.75 0.93,20.75 a 0.7,0.7 0 0 1 0.34,-0.89 v 0 l 12.25,-5 a 0.69,0.69 0 0 1 0.96,0.4 z"
         id="path26-7"
         inkscape:connector-curvature="0"
         style="fill:#d5e4f2" /><path
         class="cls-9"
         d="m 47.44,35.73 a 0.56,0.56 0 0 1 0,0.8 l -8.23,7.82 A 1.48,1.48 0 0 1 37.11,44.3 L 28.26,35 a 1.48,1.48 0 0 1 0,-2.09 l 0.27,-0.25 7.87,-7.48 a 0.71,0.71 0 0 1 1,0 c 0,0 0,0 0,0 l 9.19,9.68 z"
         id="path28-2"
         inkscape:connector-curvature="0"
         style="fill:#cbcfd2" /><path
         class="cls-10"
         d="m 46.62,35.89 -7.87,7.48 -10.17,-10.71 7.87,-7.48 a 0.71,0.71 0 0 1 1,0 c 0,0 0,0 0,0 l 9.19,9.68 a 0.69,0.69 0 0 1 -0.02,1.03 z"
         id="path30-0"
         inkscape:connector-curvature="0"
         style="fill:#e5ecf2" /><g
         class="cls-12"
         id="g34"
         style="opacity:0.2"><path
           class="cls-6"
           d="m 47.6,24.47 v 17 a 3.29,3.29 0 0 1 -3.29,3.29 H 4.15 A 3.29,3.29 0 0 1 0.86,41.47 v -17 z"
           id="path32"
           inkscape:connector-curvature="0"
           style="fill:#f29a02" /></g><path
         class="cls-13"
         d="m 48.46,1.24 v 52.9 a 4.61,4.61 0 0 1 -4.61,4.61 H 24.23 V 0 h 23 a 1.24,1.24 0 0 1 1.23,1.24 z"
         id="path36"
         inkscape:connector-curvature="0"
         style="mix-blend-mode:multiply;fill:#f2f2f2" /></g></g></g><circle
   r="8.5"
   cy="8.5000029"
   cx="31.500006"
   class="st0"
   id="path1269"
   style="fill:#0080ff;stroke-width:0.7589286" /><g
   aria-label="1"
   style="font-size:15.1785717px;font-family:SegoeUI-Bold;opacity:1;fill:#ebebeb;stroke-width:0.7589286"
   id="text1518"><path
     d="M 33.308985,3.0680518 V 13.933182 H 30.974391 V 5.7065145 Q 30.781694,5.876977 30.514883,6.0326166 30.255484,6.1808448 29.959027,6.3068389 29.662571,6.4254214 29.34388,6.5143584 29.025189,6.5958839 28.71391,6.632941 V 4.6615054 q 0.911604,-0.2668108 1.719448,-0.6818499 0.807843,-0.4150391 1.460048,-0.9116037 z"
     style="font-style:normal;font-variant:normal;font-weight:bold;font-stretch:normal;font-family:'Segoe UI';-inkscape-font-specification:'Segoe UI Bold';stroke-width:0.7589286"
     id="path838" /></g></svg>