<?xml version="1.0" encoding="utf-8"?>
<!-- Generator: Adobe Illustrator 24.1.1, SVG Export Plug-In . SVG Version: 6.00 Build 0)  -->
<svg version="1.1" id="Layer_1" xmlns="http://www.w3.org/2000/svg" xmlns:xlink="http://www.w3.org/1999/xlink" x="0px" y="0px"
	 viewBox="0 0 50 56" style="enable-background:new 0 0 50 56;" xml:space="preserve">
<style type="text/css">
	.st0{fill:#BFBFBF;}
	.st1{fill:#C6C6C6;}
	.st2{opacity:0.4;}
	.st3{fill:#B7D1E8;}
	.st4{fill:#F29A02;}
	.st5{opacity:0.3;fill:#FFFFFF;enable-background:new    ;}
	.st6{fill:#E6E6E6;}
	.st7{fill:#CBCFD2;}
	.st8{fill:#E5ECF2;}
	.st9{fill:#D5E4F2;}
	.st10{opacity:0.2;}
	.st11{fill:#F2F2F2;}
	.st12{fill:#0080FF;}
	.st13{fill:#EBEBEB;}
	.st14{font-family:'SegoeUI-Bold';}
	.st15{font-size:13.3354px;}
</style>
<g>
	<g id="Layer_2_1_">
		<g id="Layer_1-2">
			<path class="st0" d="M44.3,52.2c0,1.7-1.4,3.1-3.1,3.1l0,0H8.8c-1.7,0-3.1-1.4-3.1-3.1l0,0V8.5c0-0.2,0.1-0.3,0.3-0.3h38
				c0.2,0,0.3,0.1,0.3,0.3V52.2z M44,7.5H6c-0.6,0-1,0.5-1,1c0,0,0,0,0,0v43.7C5,54.3,6.7,56,8.8,56l0,0h32.4c2.1,0,3.8-1.7,3.8-3.8
				l0,0V8.5C45,8,44.5,7.5,44,7.5z"/>
			<path class="st1" d="M41.6,44.4H8.4c-1.4,0-2.5-1-2.7-2.4l0,0v10.1c0,1.7,1.4,3.1,3.1,3.1h32.4c1.7,0,3.1-1.4,3.1-3.1l0,0V42.1
				l0,0C44.1,43.4,42.9,44.5,41.6,44.4z"/>
			<g class="st2">
				<path class="st3" d="M44.3,8.5v33.2c0,1.5-1.2,2.7-2.7,2.7c0,0,0,0,0,0H8.4c-1.5,0-2.7-1.2-2.7-2.7c0,0,0,0,0,0V8.5
					c0-0.2,0.1-0.3,0.3-0.3l0,0h38C44.2,8.2,44.3,8.3,44.3,8.5z"/>
			</g>
			<path class="st4" d="M44.3,27.7v14c0,1.5-1.2,2.7-2.7,2.7c0,0,0,0,0,0H8.4c-1.5,0-2.7-1.2-2.7-2.7c0,0,0,0,0,0v-14L44.3,27.7z"/>
			<path class="st5" d="M15,52.2V8.5c0-0.6,0.5-1,1-1c0,0,0,0,0,0H9.3c-0.6,0-1,0.5-1,1v43.7c0,2.1,1.7,3.8,3.8,3.8c0,0,0,0,0,0h6.7
				C16.7,56,15,54.3,15,52.2C15,52.2,15,52.2,15,52.2z"/>
			<path class="st6" d="M33.8,52.2V8.5c0-0.6-0.5-1-1-1c0,0,0,0,0,0h6.7c0.6,0,1,0.4,1,1c0,0,0,0,0,0v43.7c0,2.1-1.7,3.8-3.8,3.8
				l0,0H30C32.1,56,33.8,54.3,33.8,52.2L33.8,52.2z"/>
			<path class="st7" d="M27.2,44.4h-10c-0.5,0-0.9-0.4-0.9-0.9l-0.1-6.1L28,37.4l0.1,6.1C28.1,43.9,27.7,44.4,27.2,44.4z"/>
			<path class="st8" d="M28.1,40.9L16.3,41l-0.1-8.8c0-0.3,0.3-0.6,0.6-0.6c0,0,0,0,0,0l10.6-0.1c0.3,0,0.6,0.3,0.6,0.6c0,0,0,0,0,0
				L28.1,40.9z"/>
			<path class="st7" d="M17.1,19.4c0.2-0.1,0.5,0,0.6,0.3c0,0,0,0,0,0l3.5,8.6c0.2,0.6,0,1.3-0.7,1.6l-9.7,4c-0.6,0.2-1.3,0-1.6-0.7
				l-0.1-0.3l-3.4-8.3c-0.1-0.3,0-0.6,0.3-0.7l0,0l10.1-4.1L17.1,19.4z"/>
			<path class="st9" d="M17,20.1l3.4,8.3L9.1,32.9l-3.4-8.3c-0.1-0.3,0-0.6,0.3-0.7l0,0l10.1-4.1C16.4,19.6,16.8,19.7,17,20.1
				C16.9,20,16.9,20.1,17,20.1z"/>
			<path class="st7" d="M44.2,37c0.2,0.2,0.2,0.5,0,0.7c0,0,0,0,0,0l-6.8,6.5c-0.5,0.5-1.3,0.5-1.7,0c0,0,0,0,0,0l-7.3-7.7
				c-0.5-0.5-0.5-1.2,0-1.7l0.2-0.2l6.5-6.2c0.2-0.2,0.6-0.2,0.8,0l0,0l7.6,8L44.2,37z"/>
			<path class="st8" d="M43.5,37.1L37,43.3l-8.4-8.8l6.5-6.2c0.2-0.2,0.6-0.2,0.8,0l0,0l7.6,8C43.7,36.5,43.7,36.8,43.5,37.1
				C43.5,37.1,43.5,37.1,43.5,37.1z"/>
			<g class="st10">
				<path class="st4" d="M44.3,27.7v14c0,1.5-1.2,2.7-2.7,2.7c0,0,0,0,0,0H8.4c-1.5,0-2.7-1.2-2.7-2.7c0,0,0,0,0,0v-14L44.3,27.7z"
					/>
			</g>
			<path class="st11" d="M45,8.5v43.7c0,2.1-1.7,3.8-3.8,3.8l0,0H25V7.5h19C44.5,7.5,45,8,45,8.5z"/>
		</g>
	</g>
</g>
<g>
	<circle id="path1269" class="st12" cx="42.5" cy="7.5" r="7.5"/>
	<text transform="matrix(1 0 0 1 38.6562 12.2563)" class="st13 st14 st15">1</text>
</g>
</svg>
