<svg xmlns="http://www.w3.org/2000/svg" viewBox="0 0 48.46 58.75"><defs><style>.cls-1{isolation:isolate;}.cls-2{fill:#bfbfbf;}.cls-3{fill:#c6c6c6;}.cls-4{opacity:0.4;}.cls-5{fill:#b7d1e8;}.cls-6{fill:#f29a02;}.cls-7{fill:#fff;opacity:0.3;}.cls-8{fill:#e6e6e6;}.cls-13,.cls-8{mix-blend-mode:multiply;}.cls-9{fill:#cbcfd2;}.cls-10{fill:#e5ecf2;}.cls-11{fill:#d5e4f2;}.cls-12{opacity:0.2;}.cls-13{fill:#f2f2f2;}</style></defs><g class="cls-1"><g id="Layer_2" data-name="Layer 2"><g id="Layer_1-2" data-name="Layer 1"><path class="cls-2" d="M47.6,54.14a3.75,3.75,0,0,1-3.75,3.75H4.61A3.75,3.75,0,0,1,.86,54.14V1.23A.38.38,0,0,1,1.23.86h46a.38.38,0,0,1,.37.37ZM47.23,0h-46A1.23,1.23,0,0,0,0,1.24v52.9a4.61,4.61,0,0,0,4.61,4.61H43.85a4.61,4.61,0,0,0,4.61-4.61V1.24A1.24,1.24,0,0,0,47.23,0Z"/><path class="cls-3" d="M44.31,44.76H4.15A3.29,3.29,0,0,1,.89,41.89h0V54.14a3.75,3.75,0,0,0,3.75,3.75H43.85a3.75,3.75,0,0,0,3.75-3.75V41.89h0A3.29,3.29,0,0,1,44.31,44.76Z"/><g class="cls-4"><path class="cls-5" d="M47.6,1.19V41.47a3.29,3.29,0,0,1-3.29,3.29H4.15A3.29,3.29,0,0,1,.86,41.47V1.19A.33.33,0,0,1,1.19.86H47.27A.33.33,0,0,1,47.6,1.19Z"/></g><path class="cls-6" d="M47.6,24.47v17a3.29,3.29,0,0,1-3.29,3.29H4.15A3.29,3.29,0,0,1,.86,41.47v-17Z"/><path class="cls-7" d="M12.08,54.14V1.23A1.23,1.23,0,0,1,13.31,0H5.16A1.23,1.23,0,0,0,3.93,1.23V54.14a4.6,4.6,0,0,0,4.61,4.61h8.15A4.6,4.6,0,0,1,12.08,54.14Z"/><path class="cls-8" d="M34.9,54.14V1.23A1.23,1.23,0,0,0,33.66,0h8.15a1.23,1.23,0,0,1,1.24,1.23V54.14a4.61,4.61,0,0,1-4.61,4.61H30.29A4.61,4.61,0,0,0,34.9,54.14Z"/><path class="cls-9" d="M26.91,44.76H14.83a1.13,1.13,0,0,1-1.14-1.11l-.08-7.34,14.28-.14L28,43.5A1.2,1.2,0,0,1,26.91,44.76Z"/><path class="cls-10" d="M27.94,40.42l-14.28.15-.11-10.72a.73.73,0,0,1,.72-.74L27.09,29a.73.73,0,0,1,.74.72Z"/><path class="cls-9" d="M14.63,14.44a.56.56,0,0,1,.73.31l4.26,10.42a1.48,1.48,0,0,1-.8,1.91L7.06,31.89a1.48,1.48,0,0,1-1.92-.81L5,30.75l-4.07-10a.7.7,0,0,1,.34-.89l0,0,12.25-5Z"/><path class="cls-11" d="M14.48,15.26l4.07,10L5,30.75l-4.07-10a.7.7,0,0,1,.34-.89l0,0,12.25-5A.69.69,0,0,1,14.48,15.26Z"/><path class="cls-9" d="M47.44,35.73a.56.56,0,0,1,0,.8l-8.23,7.82a1.48,1.48,0,0,1-2.1-.05L28.26,35a1.48,1.48,0,0,1,0-2.09l.27-.25,7.87-7.48a.71.71,0,0,1,1,0s0,0,0,0l9.19,9.68Z"/><path class="cls-10" d="M46.62,35.89l-7.87,7.48L28.58,32.66l7.87-7.48a.71.71,0,0,1,1,0s0,0,0,0l9.19,9.68A.69.69,0,0,1,46.62,35.89Z"/><g class="cls-12"><path class="cls-6" d="M47.6,24.47v17a3.29,3.29,0,0,1-3.29,3.29H4.15A3.29,3.29,0,0,1,.86,41.47v-17Z"/></g><path class="cls-13" d="M48.46,1.24v52.9a4.61,4.61,0,0,1-4.61,4.61H24.23V0h23A1.24,1.24,0,0,1,48.46,1.24Z"/></g></g></g></svg>