<svg xmlns="http://www.w3.org/2000/svg" viewBox="0 0 38.22 143.93"><defs><style>.cls-1{isolation:isolate;}.cls-2{fill:#1c000c;}.cls-3{fill:#2b0013;}.cls-4{fill:#f3eddd;}.cls-12,.cls-5{mix-blend-mode:multiply;}.cls-12,.cls-6{fill:#d1d3d4;}.cls-7{opacity:0.35;}.cls-11,.cls-8{fill:#fff;}.cls-11,.cls-9{opacity:0.2;}.cls-10{fill:#821018;}.cls-13{opacity:0.25;}.cls-14{opacity:0.1;}</style></defs><g class="cls-1"><g id="Layer_2" data-name="Layer 2"><g id="Layer_1-2" data-name="Layer 1"><path class="cls-2" d="M2.56,143.87l.06.06h33l.06-.06a3.6,3.6,0,0,0,.41-.45,11.74,11.74,0,0,0,2.15-6.88V55.78c0-9.69-11.48-14-11.48-22V11.88h.46a1.08,1.08,0,0,0,1.08-1.07V4.6a.36.36,0,0,1,0-.1.24.24,0,0,1,0-.08.66.66,0,0,0-.11-.24.41.41,0,0,0-.05-.09L28,4,28,3.94a1.31,1.31,0,0,0-.37-.24l-.07,0a1.12,1.12,0,0,0-.31-.05H27V.86A.86.86,0,0,0,26.14,0H12.07a.86.86,0,0,0-.79.52.56.56,0,0,0,0,.12.83.83,0,0,0,0,.22V3.63H11a1.09,1.09,0,0,0-1,.67l0,.1a.81.81,0,0,0-.05.27v6.14A1.07,1.07,0,0,0,11,11.88h.46V33.8c0,8-11.48,12.29-11.48,22v80.76a11.81,11.81,0,0,0,2.14,6.88A3,3,0,0,0,2.56,143.87Z"/><path class="cls-3" d="M3.54,143.93H34.68l.5-.37c1.2-1,2.48-4,2.48-7V55.77c0-4.86-3-8.34-6-11.71-2.81-3.21-5.47-6.23-5.47-10.26V11.34h1a.54.54,0,0,0,.54-.53V4.71a.54.54,0,0,0-.54-.53h-.74V.86a.32.32,0,0,0-.31-.32H12.08a.32.32,0,0,0-.32.32V4.18H11a.53.53,0,0,0-.53.53v6.1a.53.53,0,0,0,.53.53h1V33.8c0,4-2.65,7.05-5.46,10.26-3,3.37-6,6.85-6,11.71v80.76c0,3,1.29,6.07,2.49,7Z"/><path class="cls-2" d="M2.63,143.93h33a3.94,3.94,0,0,0,.48-.51,24.71,24.71,0,0,0-17-6.5,24.71,24.71,0,0,0-17,6.5A4,4,0,0,0,2.63,143.93Z"/><path class="cls-4" d="M37.1,125.51c-13.7,2.23-21.85,1.77-36,0V63.64h36Z"/><g class="cls-5"><path class="cls-6" d="M2.63,143.93H14l-.49-.38c-1-.78-2-3-2.38-5.39C11,136.89,11,142.57,11,55.77c0-9.43,8-13.64,8-22V11.35c-.79,0-1.53.14-1.53-.53V4.69c0-.61.75-.49,1.27-.49V3.65c0-2.73-.08-3.07.26-3.08h0a63.54,63.54,0,0,0-7.84.88V3.63H11a1.11,1.11,0,0,0-1,.67l0,.1a.65.65,0,0,0-.05.27v6.14A1.07,1.07,0,0,0,11,11.88h.46V33.8c0,8-11.48,12.29-11.48,22v80.76C0,139.92,1.44,142.92,2.63,143.93Z"/></g><g class="cls-7"><path class="cls-8" d="M7.93,133.46c0-92.54-1-81.88,1.6-88.92-2.81,3.07-6.46,6.28-6.46,10.69V132.1c0,2.86,1.28,5.77,2.49,6.68a14.86,14.86,0,0,0,5.8,2.43C9,139.73,7.93,136.06,7.93,133.46Z"/></g><g class="cls-9"><path class="cls-8" d="M29.32,133.46c0-93.05,1.9-80.88-2.7-88.92,5.51,1.62,10.48,6.28,10.48,10.69V132.1a8.07,8.07,0,0,1-4,6.68,32.81,32.81,0,0,1-9.29,2.43A8.75,8.75,0,0,0,29.32,133.46Z"/></g><path class="cls-10" d="M28.28,4.67v6.14a1.08,1.08,0,0,1-1.08,1.07h-.46V30H11.48V11.88H11a1.07,1.07,0,0,1-1.08-1.07V4.67A.81.81,0,0,1,10,4.4l0-.1a1.09,1.09,0,0,1,1-.67h.19V.86a.83.83,0,0,1,0-.22.56.56,0,0,1,0-.12A.86.86,0,0,1,12.07,0H26.13A.86.86,0,0,1,27,.86V3.63h.2a1.12,1.12,0,0,1,.31.05l.07,0a1.31,1.31,0,0,1,.37.24L28,4l.08.1a.41.41,0,0,1,.05.09.66.66,0,0,1,.11.24.24.24,0,0,0,0,.08.36.36,0,0,0,0,.1Z"/><path class="cls-11" d="M28.28,4.67H9.94A.81.81,0,0,1,10,4.4l0-.1a1.09,1.09,0,0,1,1-.67H27.2a1.12,1.12,0,0,1,.31.05l.07,0a1.31,1.31,0,0,1,.37.24L28,4l.08.1a.41.41,0,0,1,.05.09.66.66,0,0,1,.11.24.24.24,0,0,0,0,.08.36.36,0,0,0,0,.1Z"/><path class="cls-12" d="M28.28,10.66v.15a1.08,1.08,0,0,1-1.08,1.07H11a1.07,1.07,0,0,1-1.08-1.07v-.15Z"/><g class="cls-5"><path class="cls-6" d="M19.11,0V30H11.48V11.88H11a1.07,1.07,0,0,1-1.08-1.07V4.67A.81.81,0,0,1,10,4.4l0-.1a1.09,1.09,0,0,1,1-.67h.19V.86A.86.86,0,0,1,12.07,0Z"/></g><g class="cls-13"><rect class="cls-8" x="12.92" width="3.21" height="35.64"/></g><g class="cls-14"><rect class="cls-8" x="21.67" width="4.35" height="35.64"/></g><path d="M27.28,94.37a17.7,17.7,0,0,1-1.05,6.46,8.67,8.67,0,0,1-3,4.08,7.87,7.87,0,0,1-4.68,1.39,11.17,11.17,0,0,1-2.22-.23,8.11,8.11,0,0,1-1.85-.55v-3a7.42,7.42,0,0,0,1.87.77,8,8,0,0,0,2.09.3,4.71,4.71,0,0,0,4-2,9.17,9.17,0,0,0,1.44-5.53h0l0,0a4.27,4.27,0,0,1-1.76,1.65,5.38,5.38,0,0,1-2.6.64,6.16,6.16,0,0,1-3.17-.82,5.63,5.63,0,0,1-2.21-2.3,7.17,7.17,0,0,1-.78-3.38,6.91,6.91,0,0,1,2-5.14,6.82,6.82,0,0,1,5.05-2A6.25,6.25,0,0,1,24,85.84a7.07,7.07,0,0,1,2.4,3.3A14.56,14.56,0,0,1,27.28,94.37Zm-3.52-2.22a5.36,5.36,0,0,0-1-3.37,3.26,3.26,0,0,0-5.07-.16,4.83,4.83,0,0,0,0,5.85,3.42,3.42,0,0,0,2.68,1.1,3.24,3.24,0,0,0,2.4-1,3.3,3.3,0,0,0,1-2.43Z"/></g></g></g></svg>