<?xml version="1.0" encoding="UTF-8" standalone="no"?>
<svg
   xmlns:dc="http://purl.org/dc/elements/1.1/"
   xmlns:cc="http://creativecommons.org/ns#"
   xmlns:rdf="http://www.w3.org/1999/02/22-rdf-syntax-ns#"
   xmlns:svg="http://www.w3.org/2000/svg"
   xmlns="http://www.w3.org/2000/svg"
   xmlns:sodipodi="http://sodipodi.sourceforge.net/DTD/sodipodi-0.dtd"
   xmlns:inkscape="http://www.inkscape.org/namespaces/inkscape"
   viewBox="0 0 39.999999 140.00001"
   version="1.1"
   id="svg50"
   sodipodi:docname="Winebottle.svg"
   width="40"
   height="140"
   inkscape:version="0.92.4 (5da689c313, 2019-01-14)">
  <metadata
     id="metadata54">
    <rdf:RDF>
      <cc:Work
         rdf:about="">
        <dc:format>image/svg+xml</dc:format>
        <dc:type
           rdf:resource="http://purl.org/dc/dcmitype/StillImage" />
        <dc:title />
      </cc:Work>
    </rdf:RDF>
  </metadata>
  <sodipodi:namedview
     pagecolor="#ffffff"
     bordercolor="#666666"
     borderopacity="1"
     objecttolerance="10"
     gridtolerance="10"
     guidetolerance="10"
     inkscape:pageopacity="0"
     inkscape:pageshadow="2"
     inkscape:window-width="1680"
     inkscape:window-height="966"
     id="namedview52"
     showgrid="false"
     inkscape:snap-page="true"
     fit-margin-top="0"
     fit-margin-left="0"
     fit-margin-right="0"
     fit-margin-bottom="0"
     inkscape:zoom="4.6377325"
     inkscape:cx="46.146376"
     inkscape:cy="72.201367"
     inkscape:window-x="-8"
     inkscape:window-y="-8"
     inkscape:window-maximized="1"
     inkscape:current-layer="svg50"
     inkscape:snap-bbox="true"
     inkscape:bbox-nodes="true" />
  <defs
     id="defs4">
    <style
       id="style2">.cls-1{isolation:isolate;}.cls-2{fill:#1c000c;}.cls-3{fill:#2b0013;}.cls-4{fill:#f3eddd;}.cls-12,.cls-5{mix-blend-mode:multiply;}.cls-12,.cls-6{fill:#d1d3d4;}.cls-7{opacity:0.35;}.cls-11,.cls-8{fill:#fff;}.cls-11,.cls-9{opacity:0.2;}.cls-10{fill:#821018;}.cls-13{opacity:0.25;}.cls-14{opacity:0.1;}</style>
  </defs>
  <g
     class="cls-1"
     id="g48"
     style="isolation:isolate"
     transform="matrix(0.91477177,0,0,0.91477177,2.7343005,8.3368988)">
    <g
       id="Layer_2"
       data-name="Layer 2">
      <g
         id="Layer_1-2"
         data-name="Layer 1">
        <path
           class="cls-2"
           d="m 2.56,143.87 0.06,0.06 h 33 l 0.06,-0.06 a 3.6,3.6 0 0 0 0.41,-0.45 11.74,11.74 0 0 0 2.15,-6.88 V 55.78 c 0,-9.69 -11.48,-14 -11.48,-22 v -21.9 h 0.46 A 1.08,1.08 0 0 0 28.3,10.81 V 4.6 a 0.36,0.36 0 0 1 0,-0.1 0.24,0.24 0 0 1 0,-0.08 A 0.66,0.66 0 0 0 28.19,4.18 0.41,0.41 0 0 0 28.14,4.09 L 28,4 V 3.94 A 1.31,1.31 0 0 0 27.63,3.7 H 27.56 A 1.12,1.12 0 0 0 27.25,3.65 H 27 V 0.86 A 0.86,0.86 0 0 0 26.14,0 H 12.07 a 0.86,0.86 0 0 0 -0.79,0.52 0.56,0.56 0 0 0 0,0.12 0.83,0.83 0 0 0 0,0.22 V 3.63 H 11 A 1.09,1.09 0 0 0 10,4.3 V 4.4 A 0.81,0.81 0 0 0 9.95,4.67 v 6.14 A 1.07,1.07 0 0 0 11,11.88 h 0.46 V 33.8 c 0,8 -11.48,12.29 -11.48,22 v 80.76 a 11.81,11.81 0 0 0 2.14,6.88 3,3 0 0 0 0.44,0.43 z"
           id="path6"
           inkscape:connector-curvature="0"
           style="fill:#1c000c" />
        <path
           class="cls-3"
           d="m 3.54,143.93 h 31.14 l 0.5,-0.37 c 1.2,-1 2.48,-4 2.48,-7 V 55.77 c 0,-4.86 -3,-8.34 -6,-11.71 C 28.85,40.85 26.19,37.83 26.19,33.8 V 11.34 h 1 a 0.54,0.54 0 0 0 0.54,-0.53 V 4.71 A 0.54,0.54 0 0 0 27.19,4.18 H 26.45 V 0.86 A 0.32,0.32 0 0 0 26.14,0.54 H 12.08 A 0.32,0.32 0 0 0 11.76,0.86 V 4.18 H 11 a 0.53,0.53 0 0 0 -0.53,0.53 v 6.1 A 0.53,0.53 0 0 0 11,11.34 h 1 V 33.8 c 0,4 -2.65,7.05 -5.46,10.26 -3,3.37 -6,6.85 -6,11.71 v 80.76 c 0,3 1.29,6.07 2.49,7 z"
           id="path8"
           inkscape:connector-curvature="0"
           style="fill:#2b0013" />
        <path
           class="cls-2"
           d="m 2.63,143.93 h 33 a 3.94,3.94 0 0 0 0.48,-0.51 24.71,24.71 0 0 0 -17,-6.5 24.71,24.71 0 0 0 -17,6.5 4,4 0 0 0 0.52,0.51 z"
           id="path10"
           inkscape:connector-curvature="0"
           style="fill:#1c000c" />
        <path
           class="cls-4"
           d="m 37.1,125.51 c -13.7,2.23 -21.85,1.77 -36,0 V 63.64 h 36 z"
           id="path12"
           inkscape:connector-curvature="0"
           style="fill:#f3eddd" />
        <g
           class="cls-5"
           id="g16"
           style="mix-blend-mode:multiply">
          <path
             class="cls-6"
             d="M 2.63,143.93 H 14 l -0.49,-0.38 c -1,-0.78 -2,-3 -2.38,-5.39 C 11,136.89 11,142.57 11,55.77 c 0,-9.43 8,-13.64 8,-22 V 11.35 c -0.79,0 -1.53,0.14 -1.53,-0.53 V 4.69 c 0,-0.61 0.75,-0.49 1.27,-0.49 V 3.65 C 18.74,0.92 18.66,0.58 19,0.57 v 0 A 63.54,63.54 0 0 0 11.16,1.45 V 3.63 H 11 A 1.11,1.11 0 0 0 10,4.3 V 4.4 A 0.65,0.65 0 0 0 9.95,4.67 v 6.14 A 1.07,1.07 0 0 0 11,11.88 h 0.46 V 33.8 c 0,8 -11.48,12.29 -11.48,22 v 80.76 c 0.02,3.36 1.46,6.36 2.65,7.37 z"
             id="path14"
             inkscape:connector-curvature="0"
             style="fill:#d1d3d4" />
        </g>
        <g
           class="cls-7"
           id="g20"
           style="opacity:0.35">
          <path
             class="cls-8"
             d="m 7.93,133.46 c 0,-92.54 -1,-81.88 1.6,-88.92 -2.81,3.07 -6.46,6.28 -6.46,10.69 v 76.87 c 0,2.86 1.28,5.77 2.49,6.68 a 14.86,14.86 0 0 0 5.8,2.43 C 9,139.73 7.93,136.06 7.93,133.46 Z"
             id="path18"
             inkscape:connector-curvature="0"
             style="fill:#ffffff" />
        </g>
        <g
           class="cls-9"
           id="g24"
           style="opacity:0.2">
          <path
             class="cls-8"
             d="m 29.32,133.46 c 0,-93.05 1.9,-80.88 -2.7,-88.92 5.51,1.62 10.48,6.28 10.48,10.69 v 76.87 a 8.07,8.07 0 0 1 -4,6.68 32.81,32.81 0 0 1 -9.29,2.43 8.75,8.75 0 0 0 5.51,-7.75 z"
             id="path22"
             inkscape:connector-curvature="0"
             style="fill:#ffffff" />
        </g>
        <path
           class="cls-10"
           d="m 28.28,4.67 v 6.14 A 1.08,1.08 0 0 1 27.2,11.88 H 26.74 V 30 H 11.48 V 11.88 H 11 A 1.07,1.07 0 0 1 9.92,10.81 V 4.67 A 0.81,0.81 0 0 1 10,4.4 V 4.3 a 1.09,1.09 0 0 1 1,-0.67 h 0.19 V 0.86 a 0.83,0.83 0 0 1 0,-0.22 0.56,0.56 0 0 1 0,-0.12 A 0.86,0.86 0 0 1 12.07,0 H 26.13 A 0.86,0.86 0 0 1 27,0.86 v 2.77 h 0.2 a 1.12,1.12 0 0 1 0.31,0.05 h 0.07 a 1.31,1.31 0 0 1 0.37,0.24 L 28,4 28.08,4.1 a 0.41,0.41 0 0 1 0.05,0.09 0.66,0.66 0 0 1 0.11,0.24 0.24,0.24 0 0 0 0,0.08 0.36,0.36 0 0 0 0,0.1 z"
           id="path26"
           inkscape:connector-curvature="0"
           style="fill:#821018" />
        <path
           class="cls-11"
           d="M 28.28,4.67 H 9.94 A 0.81,0.81 0 0 1 10,4.4 V 4.3 a 1.09,1.09 0 0 1 1,-0.67 h 16.2 a 1.12,1.12 0 0 1 0.31,0.05 h 0.07 a 1.31,1.31 0 0 1 0.37,0.24 L 28,4 28.08,4.1 a 0.41,0.41 0 0 1 0.05,0.09 0.66,0.66 0 0 1 0.11,0.24 0.24,0.24 0 0 0 0,0.08 0.36,0.36 0 0 0 0,0.1 z"
           id="path28"
           inkscape:connector-curvature="0"
           style="opacity:0.2;fill:#ffffff" />
        <path
           class="cls-12"
           d="m 28.28,10.66 v 0.15 A 1.08,1.08 0 0 1 27.2,11.88 H 11 A 1.07,1.07 0 0 1 9.92,10.81 v -0.15 z"
           id="path30"
           inkscape:connector-curvature="0"
           style="mix-blend-mode:multiply;fill:#d1d3d4" />
        <g
           class="cls-5"
           id="g34"
           style="mix-blend-mode:multiply">
          <path
             class="cls-6"
             d="M 19.11,0 V 30 H 11.48 V 11.88 H 11 A 1.07,1.07 0 0 1 9.92,10.81 V 4.67 A 0.81,0.81 0 0 1 10,4.4 V 4.3 a 1.09,1.09 0 0 1 1,-0.67 h 0.19 V 0.86 A 0.86,0.86 0 0 1 12.07,0 Z"
             id="path32"
             inkscape:connector-curvature="0"
             style="fill:#d1d3d4" />
        </g>
        <g
           class="cls-13"
           id="g38"
           style="opacity:0.25">
          <rect
             class="cls-8"
             x="12.92"
             width="3.21"
             height="35.639999"
             id="rect36"
             y="0"
             style="fill:#ffffff" />
        </g>
        <g
           class="cls-14"
           id="g42"
           style="opacity:0.1">
          <rect
             class="cls-8"
             x="21.67"
             width="4.3499999"
             height="35.639999"
             id="rect40"
             y="0"
             style="fill:#ffffff" />
        </g>
      </g>
    </g>
  </g>
  <g
     transform="matrix(3.7795276,0,0,3.7795276,-464.18054,-841.29905)"
     id="g1736">
    <circle
       r="3.0427084"
       cy="225.63641"
       cx="130.35506"
       class="st4"
       id="path1269-7_4_"
       style="fill:#e5c720;stroke-width:0.30427083" />
    <g
       aria-label="9"
       transform="scale(1.0145442,0.98566427)"
       style="font-style:normal;font-variant:normal;font-weight:bold;font-stretch:normal;font-size:5.36862993px;font-family:'Segoe UI';-inkscape-font-specification:'Segoe UI Bold';fill:#401a00;stroke-width:0.26843148"
       id="text1545">
      <path
         d="m 129.86904,228.79999 q 0,0.50069 -0.1101,0.89652 -0.1101,0.39321 -0.32243,0.66584 -0.20971,0.27262 -0.5138,0.41942 -0.30408,0.14418 -0.68942,0.14418 -0.46137,0 -0.79429,-0.1468 v -0.68157 q 0.29622,0.19399 0.71302,0.19399 0.42729,0 0.66846,-0.29098 0.24117,-0.29097 0.24379,-0.84147 l -0.0157,-0.005 q -0.24903,0.36962 -0.75758,0.36962 -0.23069,0 -0.42729,-0.0865 -0.19399,-0.0865 -0.33816,-0.23855 -0.14156,-0.15466 -0.22282,-0.36699 -0.0786,-0.21234 -0.0786,-0.46661 0,-0.29622 0.097,-0.54001 0.097,-0.24379 0.27,-0.41942 0.17564,-0.17564 0.41943,-0.27001 0.24379,-0.097 0.54001,-0.097 0.3067,0 0.55049,0.12058 0.24379,0.11797 0.41418,0.34341 0.17301,0.22544 0.26214,0.55311 0.0918,0.32768 0.0918,0.74448 z m -0.83623,-0.44039 q 0,-0.14418 -0.0367,-0.27001 -0.0367,-0.12845 -0.10223,-0.2202 -0.0655,-0.0918 -0.15991,-0.14417 -0.0944,-0.055 -0.20709,-0.055 -0.10747,0 -0.19922,0.0472 -0.0891,0.0472 -0.15467,0.13107 -0.0655,0.0813 -0.10223,0.19661 -0.0367,0.11534 -0.0367,0.24903 0,0.1468 0.0367,0.26214 0.0367,0.11272 0.10223,0.19136 0.0682,0.0787 0.16253,0.12059 0.0944,0.0393 0.20971,0.0393 0.1101,0 0.19923,-0.0419 0.0891,-0.0446 0.15204,-0.11797 0.0655,-0.0734 0.0996,-0.17301 0.0367,-0.0996 0.0367,-0.21495 z"
         style="font-style:normal;font-variant:normal;font-weight:bold;font-stretch:normal;font-size:5.36862993px;font-family:'Segoe UI';-inkscape-font-specification:'Segoe UI Bold';fill:#401a00;stroke-width:0.26843148"
         id="path840" />
    </g>
  </g>
</svg>
