<?xml version="1.0" encoding="utf-8"?>
<!-- Generator: Adobe Illustrator 24.1.1, SVG Export Plug-In . SVG Version: 6.00 Build 0)  -->
<svg version="1.1" id="Layer_1" xmlns="http://www.w3.org/2000/svg" xmlns:xlink="http://www.w3.org/1999/xlink" x="0px" y="0px"
	 viewBox="0 0 40 150" style="enable-background:new 0 0 40 150;" xml:space="preserve">
<style type="text/css">
	.st0{fill:#1C000C;}
	.st1{fill:#2B0013;}
	.st2{fill:#F3EDDD;}
	.st3{fill:#D1D3D4;}
	.st4{opacity:0.35;}
	.st5{fill:#FFFFFF;}
	.st6{opacity:0.2;}
	.st7{fill:#821018;}
	.st8{opacity:0.2;fill:#FFFFFF;enable-background:new    ;}
	.st9{opacity:0.25;}
	.st10{opacity:0.1;}
	.st11{fill:#E5C720;}
	.st12{fill:#401A00;}
	.st13{font-family:'SegoeUI-Bold';}
	.st14{font-size:20px;}
</style>
<g>
	<g id="Layer_2_1_">
		<g id="Layer_1-2">
			<path class="st0" d="M3.4,149.9L3.4,149.9l33.1,0.1l0.1-0.1c0.1-0.1,0.3-0.3,0.4-0.4c1.4-2,2.2-4.4,2.2-6.9V61.8
				c0-9.7-11.5-14-11.5-22V17.9h0.5c0.6,0,1.1-0.5,1.1-1.1v-6.2c0,0,0-0.1,0-0.1c0,0,0-0.1,0-0.1c0-0.1-0.1-0.2-0.1-0.2
				c0,0,0-0.1,0-0.1L28.9,10V10c-0.1-0.1-0.2-0.2-0.4-0.2h-0.1c-0.1,0-0.2,0-0.3-0.1h-0.3V6.9C27.9,6.4,27.5,6,27,6c0,0,0,0,0,0H13
				c-0.3,0-0.7,0.2-0.8,0.5c0,0,0,0.1,0,0.1c0,0.1,0,0.1,0,0.2v2.8h-0.3c-0.4,0-0.8,0.3-1,0.7v0.1c0,0.1,0,0.2-0.1,0.3v6.1
				c0,0.6,0.5,1.1,1.1,1.1h0.5v21.9c0,8-11.5,12.3-11.5,22v80.8c0,2.5,0.7,4.9,2.1,6.9C3.1,149.6,3.3,149.8,3.4,149.9z"/>
			<path class="st1" d="M4.4,150h31.1l0.5-0.4c1.2-1,2.5-4,2.5-7V61.8c0-4.9-3-8.3-6-11.7c-2.8-3.2-5.5-6.2-5.5-10.3V17.4h1
				c0.3,0,0.5-0.2,0.5-0.5v-6.1c0-0.3-0.2-0.5-0.5-0.5h-0.7V6.9c0-0.2-0.1-0.3-0.3-0.3H13c-0.2,0-0.3,0.1-0.3,0.3v3.3h-0.8
				c-0.3,0-0.5,0.2-0.5,0.5v6.1c0,0.3,0.2,0.5,0.5,0.5h1v22.5c0,4-2.6,7-5.5,10.3c-3,3.4-6,6.8-6,11.7v80.8c0,3,1.3,6.1,2.5,7
				L4.4,150z"/>
			<path class="st0" d="M3.5,150h33c0.2-0.2,0.3-0.3,0.5-0.5c-4.6-4.3-10.7-6.6-17-6.5c-6.3-0.1-12.4,2.2-17,6.5
				C3.2,149.6,3.3,149.8,3.5,150z"/>
			<path class="st2" d="M38,131.5c-13.7,2.2-21.9,1.8-36,0V69.7h36V131.5z"/>
			<g>
				<path class="st3" d="M3.5,150h11.4l-0.5-0.4c-1-0.8-2-3-2.4-5.4c-0.1-1.3-0.1,4.4-0.1-82.4c0-9.4,8-13.6,8-22V17.4
					c-0.8,0-1.5,0.1-1.5-0.5v-6.1c0-0.6,0.8-0.5,1.3-0.5V9.7c0-2.7-0.1-3.1,0.3-3.1l0,0C17.3,6.7,14.6,7,12,7.5v2.2h-0.2
					c-0.4,0-0.8,0.3-1,0.7v0.1c0,0.1-0.1,0.2-0.1,0.3v6.1c0,0.6,0.5,1.1,1.1,1.1h0.5v21.9c0,8-11.5,12.3-11.5,22v80.8
					C0.9,146,2.3,149,3.5,150z"/>
			</g>
			<g class="st4">
				<path class="st5" d="M8.8,139.5c0-92.5-1-81.9,1.6-88.9C7.6,53.6,4,56.9,4,61.3v76.9c0,2.9,1.3,5.8,2.5,6.7
					c1.7,1.2,3.7,2,5.8,2.4C9.9,145.8,8.8,142.1,8.8,139.5z"/>
			</g>
			<g class="st6">
				<path class="st5" d="M30.2,139.5c0-93.1,1.9-80.9-2.7-88.9C33,52.2,38,56.9,38,61.3v76.9c-0.1,2.8-1.6,5.3-4,6.7
					c-3,1.3-6.1,2.1-9.3,2.4C27.9,146,30.1,142.9,30.2,139.5z"/>
			</g>
			<path class="st7" d="M29.2,10.7v6.1c0,0.6-0.5,1.1-1.1,1.1h-0.5V36H12.4V17.9h-0.5c-0.6,0-1.1-0.5-1.1-1.1c0,0,0,0,0,0v-6.1
				c0-0.1,0-0.2,0.1-0.3v-0.1c0.2-0.4,0.6-0.7,1-0.7h0.2V6.9c0-0.1,0-0.1,0-0.2c0,0,0-0.1,0-0.1C12.2,6.2,12.6,6,13,6H27
				c0.5,0,0.9,0.4,0.9,0.8c0,0,0,0,0,0v2.8h0.2c0.1,0,0.2,0,0.3,0.1h0.1c0.1,0.1,0.3,0.1,0.4,0.2l0,0.1l0.1,0.1c0,0,0,0.1,0,0.1
				c0.1,0.1,0.1,0.2,0.1,0.2c0,0,0,0.1,0,0.1C29.1,10.6,29.1,10.6,29.2,10.7L29.2,10.7z"/>
			<path class="st8" d="M29.2,10.7H10.8c0-0.1,0-0.2,0.1-0.3v-0.1c0.2-0.4,0.6-0.7,1-0.7h16.2c0.1,0,0.2,0,0.3,0.1h0.1
				c0.1,0.1,0.3,0.1,0.4,0.2l0,0.1l0.1,0.1c0,0,0,0.1,0,0.1c0.1,0.1,0.1,0.2,0.1,0.2c0,0,0,0.1,0,0.1C29.1,10.6,29.1,10.6,29.2,10.7
				L29.2,10.7z"/>
			<path class="st3" d="M29.2,16.7v0.1c0,0.6-0.5,1.1-1.1,1.1H11.9c-0.6,0-1.1-0.5-1.1-1.1c0,0,0,0,0,0v-0.1H29.2z"/>
			<g>
				<path class="st3" d="M20,6v30h-7.6V17.9h-0.5c-0.6,0-1.1-0.5-1.1-1.1c0,0,0,0,0,0v-6.1c0-0.1,0-0.2,0.1-0.3v-0.1
					c0.2-0.4,0.6-0.7,1-0.7h0.2V6.9c0-0.5,0.4-0.9,0.9-0.9c0,0,0,0,0,0H20z"/>
			</g>
			<g class="st9">
				<rect x="13.8" y="6" class="st5" width="3.2" height="35.6"/>
			</g>
			<g class="st10">
				<rect x="22.6" y="6" class="st5" width="4.4" height="35.6"/>
			</g>
		</g>
	</g>
</g>
<circle id="path1269-7_4_" class="st11" cx="29.2" cy="10.7" r="10"/>
<text transform="matrix(1.0293 0 0 1 23.5329 17.8914)" class="st12 st13 st14">9</text>
</svg>
